OxygenSans-Bold.ufo
<glyph name="exclam" format="1">
  <advance width="601.1"/>
  <unicode hex="0021"/>
  <outline>
    <contour>
      <point x="301.5" y="-9.4" type="curve" smooth="yes"/>
      <point x="385.5" y="-9.4"/>
      <point x="438.6" y="55.6"/>
      <point x="438.6" y="127.1" type="curve" smooth="yes"/>
      <point x="438.6" y="198.7"/>
      <point x="385.5" y="264.0"/>
      <point x="301.5" y="264.0" type="curve" smooth="yes"/>
      <point x="217.1" y="264.0"/>
      <point x="164.3" y="198.7"/>
      <point x="164.3" y="127.1" type="curve" smooth="yes"/>
      <point x="164.3" y="56.2"/>
      <point x="217.1" y="-9.4"/>
    </contour>
    <contour>
      <point x="258.0" y="430.0" type="line"/>
      <point x="353.8" y="430.0" type="line"/>
      <point x="410.5" y="1273.0" type="line"/>
      <point x="410.5" y="1450.9" type="line"/>
      <point x="194.2" y="1450.9" type="line"/>
      <point x="194.2" y="1273.0" type="line"/>
    </contour>
  </outline>
</glyph>
<glyph name="quotedbl" format="1">
  <advance width="710.4"/>
  <unicode hex="0022"/>
  <outline>
    <contour>
      <point x="469.2" y="940.4" type="line"/>
      <point x="600.3" y="940.4" type="line"/>
      <point x="629.3" y="1440.7" type="line"/>
      <point x="435.5" y="1440.7" type="line"/>
    </contour>
    <contour>
      <point x="149.4" y="940.4" type="line"/>
      <point x="280.5" y="940.4" type="line"/>
      <point x="309.2" y="1440.7" type="line"/>
      <point x="115.7" y="1440.7" type="line"/>
    </contour>
  </outline>
</glyph>
<glyph name="numbersign" format="1">
  <advance width="1227"/>
  <unicode hex="0023"/>
  <outline>
    <contour>
      <point x="723" y="554" type="line"/>
      <point x="484" y="554" type="line"/>
      <point x="562" y="958" type="line"/>
      <point x="801" y="958" type="line"/>
    </contour>
    <contour>
      <point x="616" y="-9" type="line"/>
      <point x="756" y="-9" type="line"/>
      <point x="843" y="442" type="line"/>
      <point x="1038" y="442" type="line"/>
      <point x="1054" y="554" type="line"/>
      <point x="865" y="554" type="line"/>
      <point x="942" y="958" type="line"/>
      <point x="1125" y="958" type="line"/>
      <point x="1142" y="1070" type="line"/>
      <point x="963" y="1070" type="line"/>
      <point x="1036" y="1448" type="line"/>
      <point x="895" y="1448" type="line"/>
      <point x="823" y="1070" type="line"/>
      <point x="583" y="1070" type="line"/>
      <point x="656" y="1448" type="line"/>
      <point x="514" y="1448" type="line"/>
      <point x="442" y="1070" type="line"/>
      <point x="243" y="1070" type="line"/>
      <point x="227" y="958" type="line"/>
      <point x="421" y="958" type="line"/>
      <point x="343" y="554" type="line"/>
      <point x="156" y="554" type="line"/>
      <point x="140" y="442" type="line"/>
      <point x="322" y="442" type="line"/>
      <point x="236" y="-9" type="line"/>
      <point x="376" y="-9" type="line"/>
      <point x="462" y="442" type="line"/>
      <point x="702" y="442" type="line"/>
    </contour>
  </outline>
</glyph>
<glyph name="percent" format="1">
  <advance width="1759.9"/>
  <unicode hex="0025"/>
  <outline>
    <contour>
      <point x="1409.1" y="-13.7" type="curve" smooth="yes"/>
      <point x="1181.3" y="-13.7"/>
      <point x="1063.9" y="148.2"/>
      <point x="1063.9" y="356.4" type="curve" smooth="yes"/>
      <point x="1063.9" y="565.6"/>
      <point x="1184.6" y="725.5"/>
      <point x="1409.1" y="725.5" type="curve" smooth="yes"/>
      <point x="1637.9" y="725.5"/>
      <point x="1756.0" y="568.6"/>
      <point x="1756.0" y="356.4" type="curve" smooth="yes"/>
      <point x="1756.0" y="148.2"/>
      <point x="1634.9" y="-13.7"/>
    </contour>
    <contour>
      <point x="1409.7" y="102.5" type="curve" smooth="yes"/>
      <point x="1551.9" y="102.5"/>
      <point x="1613.1" y="215.3"/>
      <point x="1613.1" y="358.1" type="curve" smooth="yes"/>
      <point x="1613.1" y="505.5"/>
      <point x="1550.9" y="610.7"/>
      <point x="1409.7" y="610.7" type="curve" smooth="yes"/>
      <point x="1267.2" y="610.7"/>
      <point x="1204.3" y="500.2"/>
      <point x="1204.3" y="358.1" type="curve" smooth="yes"/>
      <point x="1204.3" y="211.7"/>
      <point x="1267.5" y="102.5"/>
    </contour>
    <contour>
      <point x="410.6" y="817.5" type="curve" smooth="yes"/>
      <point x="552.8" y="817.5"/>
      <point x="614.0" y="930.3"/>
      <point x="614.0" y="1073.1" type="curve" smooth="yes"/>
      <point x="614.0" y="1220.5"/>
      <point x="551.8" y="1325.7"/>
      <point x="410.6" y="1325.7" type="curve" smooth="yes"/>
      <point x="268.1" y="1325.7"/>
      <point x="205.2" y="1215.2"/>
      <point x="205.2" y="1073.1" type="curve" smooth="yes"/>
      <point x="205.2" y="926.7"/>
      <point x="268.4" y="817.5"/>
    </contour>
    <contour>
      <point x="410.0" y="701.3" type="curve" smooth="yes"/>
      <point x="182.2" y="701.3"/>
      <point x="64.8" y="863.2"/>
      <point x="64.8" y="1071.4" type="curve" smooth="yes"/>
      <point x="64.8" y="1280.6"/>
      <point x="185.5" y="1440.5"/>
      <point x="410.0" y="1440.5" type="curve" smooth="yes"/>
      <point x="638.8" y="1440.5"/>
      <point x="756.9" y="1283.6"/>
      <point x="756.9" y="1071.4" type="curve" smooth="yes"/>
      <point x="756.9" y="863.2"/>
      <point x="635.8" y="701.3"/>
    </contour>
    <contour>
      <point x="414.7" y="0.0" type="line"/>
      <point x="1241.5" y="1428.7" type="line"/>
      <point x="1393.6" y="1428.7" type="line"/>
      <point x="575.1" y="0.0" type="line"/>
    </contour>
  </outline>
</glyph>
<glyph name="ampersand" format="1">
  <advance width="1387.2"/>
  <unicode hex="0026"/>
  <outline>
    <contour>
      <point x="622.7" y="-17.6" type="curve" smooth="yes"/>
      <point x="797.0" y="-17.6"/>
      <point x="889.1" y="18.0"/>
      <point x="1012.2" y="109.1" type="curve"/>
      <point x="1143.6" y="-15.8" type="line"/>
      <point x="1338.4" y="59.6" type="line"/>
      <point x="1158.6" y="243.0" type="line"/>
      <point x="1223.0" y="312.3"/>
      <point x="1292.3" y="419.3"/>
      <point x="1332.2" y="503.2" type="curve"/>
      <point x="1182.2" y="600.7" type="line"/>
      <point x="1146.5" y="527.7"/>
      <point x="1086.1" y="429.9"/>
      <point x="1035.8" y="373.6" type="curve"/>
      <point x="690.4" y="756.2" type="line"/>
      <point x="855.5" y="842.6"/>
      <point x="1011.0" y="973.8"/>
      <point x="1011.0" y="1147.6" type="curve" smooth="yes"/>
      <point x="1011.0" y="1355.9"/>
      <point x="829.5" y="1447.0"/>
      <point x="642.4" y="1447.0" type="curve" smooth="yes"/>
      <point x="438.9" y="1447.0"/>
      <point x="259.9" y="1330.3"/>
      <point x="259.9" y="1122.7" type="curve" smooth="yes"/>
      <point x="259.9" y="998.6"/>
      <point x="320.5" y="884.2"/>
      <point x="406.8" y="788.0" type="curve"/>
      <point x="247.9" y="698.5"/>
      <point x="126.2" y="591.8"/>
      <point x="126.2" y="384.0" type="curve" smooth="yes"/>
      <point x="126.2" y="113.9"/>
      <point x="338.9" y="-17.6"/>
    </contour>
    <contour>
      <point x="631.2" y="153.3" type="curve" smooth="yes"/>
      <point x="465.3" y="153.3"/>
      <point x="340.0" y="229.7"/>
      <point x="340.0" y="393.4" type="curve" smooth="yes"/>
      <point x="340.0" y="513.7"/>
      <point x="409.8" y="601.1"/>
      <point x="513.1" y="660.9" type="curve"/>
      <point x="893.0" y="239.1" type="line"/>
      <point x="823.8" y="182.8"/>
      <point x="742.2" y="153.3"/>
    </contour>
    <contour>
      <point x="587.0" y="877.7" type="curve"/>
      <point x="504.2" y="960.0"/>
      <point x="463.6" y="1051.0"/>
      <point x="463.6" y="1139.2" type="curve" smooth="yes"/>
      <point x="463.6" y="1241.5"/>
      <point x="544.1" y="1293.6"/>
      <point x="647.3" y="1293.6" type="curve" smooth="yes"/>
      <point x="748.7" y="1293.6"/>
      <point x="810.4" y="1243.7"/>
      <point x="810.4" y="1143.4" type="curve" smooth="yes"/>
      <point x="810.4" y="1029.8"/>
      <point x="699.6" y="935.2"/>
    </contour>
  </outline>
</glyph>
<glyph name="quotesingle" format="1">
  <advance width="440.2"/>
  <unicode hex="0027"/>
  <outline>
    <contour>
      <point x="163.3" y="907.1" type="line"/>
      <point x="297.9" y="907.1" type="line"/>
      <point x="320.3" y="1420.3" type="line"/>
      <point x="136.9" y="1420.3" type="line"/>
    </contour>
  </outline>
</glyph>
<glyph name="parenleft" format="1">
  <advance width="713.2"/>
  <unicode hex="0028"/>
  <outline>
    <contour>
      <point x="450.0" y="-182.1" type="curve"/>
      <point x="655.3" y="-182.1" type="line"/>
      <point x="493.8" y="82.2"/>
      <point x="398.2" y="364.9"/>
      <point x="398.2" y="678.6" type="curve" smooth="yes"/>
      <point x="398.2" y="997.7"/>
      <point x="518.2" y="1310.5"/>
      <point x="656.6" y="1518.4" type="curve"/>
      <point x="448.7" y="1518.4" type="line"/>
      <point x="293.8" y="1303.0"/>
      <point x="184.2" y="1005.0"/>
      <point x="184.2" y="675.7" type="curve" smooth="yes"/>
      <point x="184.2" y="335.0"/>
      <point x="287.8" y="45.5"/>
    </contour>
  </outline>
</glyph>
<glyph name="parenright" format="1">
  <advance width="734"/>
  <unicode hex="0029"/>
  <outline>
    <contour>
      <point x="103" y="-186" type="curve"/>
      <point x="314" y="-186" type="line"/>
      <point x="470" y="25"/>
      <point x="585" y="352"/>
      <point x="585" y="702" type="curve" smooth="yes"/>
      <point x="585" y="1036"/>
      <point x="481" y="1309"/>
      <point x="314" y="1549" type="curve"/>
      <point x="104" y="1549" type="line"/>
      <point x="271" y="1275"/>
      <point x="366" y="1011"/>
      <point x="366" y="701" type="curve" smooth="yes"/>
      <point x="366" y="366"/>
      <point x="242" y="21"/>
    </contour>
  </outline>
</glyph>
<glyph name="asterisk" format="1">
  <advance width="1126.4"/>
  <unicode hex="002A"/>
  <outline>
    <contour>
      <point x="390.3" y="524.4" type="line"/>
      <point x="211.4" y="627.1" type="line"/>
      <point x="442.8" y="929.2" type="line"/>
      <point x="106.5" y="1005.0" type="line"/>
      <point x="163.3" y="1199.3" type="line"/>
      <point x="493.8" y="1060.8" type="line"/>
      <point x="460.3" y="1440.1" type="line"/>
      <point x="664.4" y="1440.1" type="line"/>
      <point x="631.0" y="1060.8" type="line"/>
      <point x="964.2" y="1199.3" type="line"/>
      <point x="1020.2" y="1005.0" type="line"/>
      <point x="680.1" y="929.2" type="line"/>
      <point x="720.1" y="877.4"/>
      <point x="872.9" y="680.8"/>
      <point x="914.9" y="627.1" type="curve"/>
      <point x="889.1" y="610.9"/>
      <point x="764.7" y="539.5"/>
      <point x="738.9" y="523.3" type="curve"/>
      <point x="559.7" y="847.5" type="line"/>
    </contour>
  </outline>
</glyph>
<glyph name="plus" format="1">
  <advance width="1064.4"/>
  <unicode hex="002B"/>
  <outline>
    <contour>
      <point x="472.5" y="151.3" type="line"/>
      <point x="642.2" y="151.3" type="line"/>
      <point x="642.2" y="546.2" type="line"/>
      <point x="1018.8" y="546.2" type="line"/>
      <point x="1018.8" y="709.0" type="line"/>
      <point x="642.9" y="709.0" type="line"/>
      <point x="642.9" y="1100.9" type="line"/>
      <point x="473.9" y="1100.9" type="line"/>
      <point x="473.9" y="709.0" type="line"/>
      <point x="93.5" y="709.0" type="line"/>
      <point x="93.5" y="546.2" type="line"/>
      <point x="472.5" y="546.2" type="line"/>
    </contour>
  </outline>
</glyph>
<glyph name="comma" format="1">
  <advance width="517"/>
  <unicode hex="002C"/>
  <outline>
    <contour>
      <point x="125" y="-352" type="curve"/>
      <point x="276" y="-352" type="line"/>
      <point x="276" y="-352"/>
      <point x="410" y="183"/>
      <point x="410" y="196" type="curve"/>
      <point x="415" y="246" type="line"/>
      <point x="197" y="246" type="line"/>
      <point x="197" y="214"/>
      <point x="125" y="-352"/>
    </contour>
  </outline>
</glyph>
<glyph name="hyphen" format="1">
  <advance width="813"/>
  <unicode hex="002D"/>
  <outline>
    <contour>
      <point x="116" y="467" type="line"/>
      <point x="697" y="467" type="line"/>
      <point x="697" y="648" type="line"/>
      <point x="116" y="648" type="line"/>
    </contour>
  </outline>
</glyph>
<glyph name="period" format="1">
  <advance width="523.2"/>
  <unicode hex="002E"/>
  <outline>
    <contour>
      <point x="278.2" y="-3.0" type="curve" smooth="yes"/>
      <point x="359.5" y="-3.0"/>
      <point x="411.7" y="60.4"/>
      <point x="411.7" y="130.4" type="curve" smooth="yes"/>
      <point x="411.7" y="201.1"/>
      <point x="359.5" y="265.9"/>
      <point x="278.2" y="265.9" type="curve" smooth="yes"/>
      <point x="195.6" y="265.9"/>
      <point x="143.0" y="201.1"/>
      <point x="143.0" y="130.4" type="curve" smooth="yes"/>
      <point x="143.0" y="60.0"/>
      <point x="196.9" y="-3.0"/>
    </contour>
  </outline>
</glyph>
<glyph name="slash" format="1">
  <advance width="916.1"/>
  <unicode hex="002F"/>
  <outline>
    <contour>
      <point x="76.4" y="-159.5" type="line"/>
      <point x="253.6" y="-159.5" type="line"/>
      <point x="875.1" y="1415.8" type="line"/>
      <point x="694.5" y="1415.8" type="line"/>
    </contour>
  </outline>
</glyph>
<glyph name="zero" format="1">
  <advance width="1215.3"/>
  <unicode hex="0030"/>
  <outline>
    <contour>
      <point x="630.4" y="157.3" type="curve" smooth="yes"/>
      <point x="433.1" y="157.3"/>
      <point x="348.9" y="390.6"/>
      <point x="348.9" y="718.6" type="curve"/>
      <point x="349.7" y="1035.0"/>
      <point x="433.9" y="1265.4"/>
      <point x="630.4" y="1265.4" type="curve" smooth="yes"/>
      <point x="827.7" y="1265.4"/>
      <point x="907.6" y="1045.9"/>
      <point x="907.6" y="717.1" type="curve" smooth="yes"/>
      <point x="907.6" y="389.5"/>
      <point x="827.7" y="157.3"/>
    </contour>
    <contour>
      <point x="630.4" y="-23.2" type="curve" smooth="yes"/>
      <point x="998.5" y="-23.2"/>
      <point x="1135.2" y="313.3"/>
      <point x="1135.2" y="710.7" type="curve" smooth="yes"/>
      <point x="1135.2" y="1120.9"/>
      <point x="989.8" y="1445.8"/>
      <point x="630.4" y="1445.8" type="curve" smooth="yes"/>
      <point x="272.1" y="1445.8"/>
      <point x="122.1" y="1122.4"/>
      <point x="122.1" y="710.7" type="curve" smooth="yes"/>
      <point x="122.1" y="313.3"/>
      <point x="263.0" y="-23.2"/>
    </contour>
  </outline>
</glyph>
<glyph name="one" format="1">
  <advance width="1205.0"/>
  <unicode hex="0031"/>
  <outline>
    <contour>
      <point x="235.9" y="0.0" type="line"/>
      <point x="1085.0" y="0.0" type="line"/>
      <point x="1085.0" y="175.2" type="line"/>
      <point x="707.9" y="175.2" type="line"/>
      <point x="790.6" y="91.8" type="line"/>
      <point x="790.6" y="1428.7" type="line"/>
      <point x="592.2" y="1428.7" type="line"/>
      <point x="512.9" y="1372.1"/>
      <point x="361.5" y="1320.6"/>
      <point x="255.6" y="1293.8" type="curve"/>
      <point x="255.6" y="1116.4" type="line"/>
      <point x="380.9" y="1135.2"/>
      <point x="544.1" y="1192.2"/>
      <point x="610.0" y="1250.3" type="curve"/>
      <point x="565.7" y="1280.6" type="line"/>
      <point x="565.7" y="92.4" type="line"/>
      <point x="647.8" y="175.2" type="line"/>
      <point x="235.9" y="175.2" type="line"/>
    </contour>
  </outline>
</glyph>
<glyph name="two" format="1">
  <advance width="1217"/>
  <unicode hex="0032"/>
  <outline>
    <contour>
      <point x="200" y="0" type="line"/>
      <point x="1032" y="0" type="line"/>
      <point x="1047" y="180" type="line"/>
      <point x="324" y="180" type="line"/>
      <point x="367" y="103" type="line"/>
      <point x="792" y="558" type="line" smooth="yes"/>
      <point x="986" y="769"/>
      <point x="1053" y="885"/>
      <point x="1049" y="1072" type="curve" smooth="yes"/>
      <point x="1043" y="1375"/>
      <point x="818" y="1481"/>
      <point x="595" y="1481" type="curve" smooth="yes"/>
      <point x="436" y="1481"/>
      <point x="271" y="1428"/>
      <point x="165" y="1354" type="curve"/>
      <point x="236" y="1165" type="line"/>
      <point x="315" y="1227"/>
      <point x="453" y="1280"/>
      <point x="573" y="1280" type="curve" smooth="yes"/>
      <point x="698" y="1280"/>
      <point x="819" y="1222"/>
      <point x="819" y="1058" type="curve" smooth="yes"/>
      <point x="819" y="934"/>
      <point x="754" y="850"/>
      <point x="646" y="725" type="curve" smooth="yes"/>
      <point x="185" y="194" type="line"/>
    </contour>
  </outline>
</glyph>
<glyph name="three" format="1">
  <advance width="1205.0"/>
  <unicode hex="0033"/>
  <outline>
    <contour>
      <point x="585.0" y="-23.9" type="curve" smooth="yes"/>
      <point x="859.6" y="-23.9"/>
      <point x="1074.6" y="120.5"/>
      <point x="1074.6" y="387.1" type="curve" smooth="yes"/>
      <point x="1074.6" y="570.2"/>
      <point x="971.9" y="712.1"/>
      <point x="806.3" y="754.2" type="curve"/>
      <point x="953.2" y="804.2"/>
      <point x="1037.6" y="909.4"/>
      <point x="1037.6" y="1074.4" type="curve" smooth="yes"/>
      <point x="1037.6" y="1301.9"/>
      <point x="832.8" y="1447.0"/>
      <point x="577.7" y="1447.0" type="curve" smooth="yes"/>
      <point x="413.7" y="1447.0"/>
      <point x="283.2" y="1409.4"/>
      <point x="172.3" y="1341.0" type="curve"/>
      <point x="239.5" y="1177.3" type="line"/>
      <point x="325.0" y="1231.8"/>
      <point x="441.3" y="1268.4"/>
      <point x="561.9" y="1268.4" type="curve" smooth="yes"/>
      <point x="717.3" y="1268.4"/>
      <point x="813.6" y="1180.5"/>
      <point x="813.6" y="1058.6" type="curve" smooth="yes"/>
      <point x="813.6" y="875.4"/>
      <point x="646.4" y="839.5"/>
      <point x="446.8" y="836.1" type="curve"/>
      <point x="391.9" y="836.1" type="line"/>
      <point x="391.9" y="658.8" type="line"/>
      <point x="446.2" y="658.8" type="line"/>
      <point x="679.9" y="653.8"/>
      <point x="842.5" y="611.5"/>
      <point x="842.5" y="394.7" type="curve" smooth="yes"/>
      <point x="842.5" y="237.5"/>
      <point x="725.0" y="164.5"/>
      <point x="561.5" y="164.5" type="curve" smooth="yes"/>
      <point x="450.2" y="164.5"/>
      <point x="333.9" y="200.8"/>
      <point x="244.1" y="255.1" type="curve"/>
      <point x="174.2" y="95.4" type="line"/>
      <point x="279.8" y="25.8"/>
      <point x="426.2" y="-23.9"/>
    </contour>
  </outline>
</glyph>
<glyph name="four" format="1">
  <advance width="1205.0"/>
  <unicode hex="0034"/>
  <outline>
    <contour>
      <point x="738.6" y="0.0" type="line"/>
      <point x="958.1" y="0.0" type="line"/>
      <point x="958.1" y="335.3" type="line"/>
      <point x="1118.5" y="335.3" type="line"/>
      <point x="1132.0" y="511.3" type="line"/>
      <point x="958.1" y="511.3" type="line"/>
      <point x="958.1" y="1428.7" type="line"/>
      <point x="697.1" y="1428.7" type="line"/>
      <point x="103.7" y="509.8" type="line"/>
      <point x="103.7" y="335.3" type="line"/>
      <point x="738.6" y="335.3" type="line"/>
    </contour>
    <contour>
      <point x="329.8" y="509.1" type="line"/>
      <point x="738.3" y="1171.8" type="line"/>
      <point x="738.3" y="509.1" type="line"/>
    </contour>
  </outline>
</glyph>
<glyph name="five" format="1">
  <advance width="1205.0"/>
  <unicode hex="0035"/>
  <outline>
    <contour>
      <point x="578.5" y="-19.3" type="curve" smooth="yes"/>
      <point x="889.7" y="-19.3"/>
      <point x="1091.5" y="162.8"/>
      <point x="1091.5" y="453.2" type="curve" smooth="yes"/>
      <point x="1091.5" y="707.9"/>
      <point x="926.7" y="898.3"/>
      <point x="670.2" y="898.3" type="curve" smooth="yes"/>
      <point x="549.7" y="898.3"/>
      <point x="471.4" y="860.2"/>
      <point x="429.4" y="830.9" type="curve"/>
      <point x="458.6" y="1247.6" type="line"/>
      <point x="1019.7" y="1247.6" type="line"/>
      <point x="1035.6" y="1428.7" type="line"/>
      <point x="255.1" y="1428.7" type="line"/>
      <point x="213.5" y="644.6" type="line"/>
      <point x="381.3" y="619.9" type="line"/>
      <point x="443.7" y="686.6"/>
      <point x="529.5" y="721.5"/>
      <point x="611.5" y="721.5" type="curve" smooth="yes"/>
      <point x="773.1" y="721.5"/>
      <point x="861.0" y="610.3"/>
      <point x="861.0" y="453.8" type="curve" smooth="yes"/>
      <point x="861.0" y="276.4"/>
      <point x="748.8" y="161.7"/>
      <point x="555.3" y="161.7" type="curve" smooth="yes"/>
      <point x="410.7" y="161.7"/>
      <point x="275.0" y="240.1"/>
      <point x="230.8" y="268.9" type="curve"/>
      <point x="153.4" y="108.8" type="line"/>
      <point x="206.4" y="72.3"/>
      <point x="387.0" y="-19.3"/>
    </contour>
  </outline>
</glyph>
<glyph name="six" format="1">
  <advance width="1217"/>
  <unicode hex="0036"/>
  <outline>
    <contour>
      <point x="623" y="-19" type="curve" smooth="yes"/>
      <point x="919" y="-19"/>
      <point x="1128" y="172"/>
      <point x="1128" y="443" type="curve" smooth="yes"/>
      <point x="1128" y="709"/>
      <point x="920" y="888"/>
      <point x="662" y="888" type="curve" smooth="yes"/>
      <point x="506" y="888"/>
      <point x="399" y="772"/>
      <point x="380" y="760" type="curve"/>
      <point x="421" y="716" type="line"/>
      <point x="421" y="716"/>
      <point x="585" y="933"/>
      <point x="623" y="988" type="curve"/>
      <point x="957" y="1460" type="line"/>
      <point x="687" y="1460" type="line"/>
      <point x="323" y="945" type="line"/>
      <point x="206" y="782"/>
      <point x="115" y="648"/>
      <point x="115" y="447" type="curve" smooth="yes"/>
      <point x="115" y="180"/>
      <point x="314" y="-19"/>
    </contour>
    <contour>
      <point x="615" y="159" type="curve" smooth="yes"/>
      <point x="436" y="159"/>
      <point x="345" y="278"/>
      <point x="345" y="436" type="curve" smooth="yes"/>
      <point x="345" y="626"/>
      <point x="462" y="717"/>
      <point x="620" y="717" type="curve" smooth="yes"/>
      <point x="804" y="717"/>
      <point x="897" y="605"/>
      <point x="897" y="440" type="curve" smooth="yes"/>
      <point x="897" y="281"/>
      <point x="797" y="159"/>
    </contour>
  </outline>
</glyph>
<glyph name="seven" format="1">
  <advance width="1205.0"/>
  <unicode hex="0037"/>
  <outline>
    <contour>
      <point x="336.7" y="0.3" type="line"/>
      <point x="576.2" y="0.3" type="line"/>
      <point x="1047.5" y="1272.2" type="line"/>
      <point x="1047.5" y="1428.7" type="line"/>
      <point x="174.4" y="1428.7" type="line"/>
      <point x="182.8" y="1240.9" type="line"/>
      <point x="794.9" y="1240.9" type="line"/>
    </contour>
  </outline>
</glyph>
<glyph name="eight" format="1">
  <advance width="1205.0"/>
  <unicode hex="0038"/>
  <outline>
    <contour>
      <point x="604.6" y="-19.0" type="curve" smooth="yes"/>
      <point x="863.0" y="-19.0"/>
      <point x="1091.3" y="111.1"/>
      <point x="1091.3" y="367.4" type="curve" smooth="yes"/>
      <point x="1091.3" y="545.4"/>
      <point x="982.5" y="690.5"/>
      <point x="831.5" y="754.6" type="curve"/>
      <point x="963.5" y="815.9"/>
      <point x="1063.6" y="921.4"/>
      <point x="1063.6" y="1086.4" type="curve" smooth="yes"/>
      <point x="1063.6" y="1323.2"/>
      <point x="857.7" y="1447.0"/>
      <point x="604.2" y="1447.0" type="curve" smooth="yes"/>
      <point x="351.5" y="1447.0"/>
      <point x="142.2" y="1323.2"/>
      <point x="142.2" y="1086.4" type="curve" smooth="yes"/>
      <point x="142.2" y="919.2"/>
      <point x="250.5" y="810.9"/>
      <point x="383.7" y="753.7" type="curve"/>
      <point x="224.4" y="687.0"/>
      <point x="113.7" y="552.8"/>
      <point x="113.7" y="368.1" type="curve" smooth="yes"/>
      <point x="113.7" y="112.2"/>
      <point x="345.7" y="-19.0"/>
    </contour>
    <contour>
      <point x="604.6" y="150.5" type="curve" smooth="yes"/>
      <point x="430.7" y="150.5"/>
      <point x="335.6" y="238.6"/>
      <point x="335.6" y="386.7" type="curve" smooth="yes"/>
      <point x="335.6" y="541.7"/>
      <point x="449.7" y="637.6"/>
      <point x="604.6" y="675.5" type="curve"/>
      <point x="759.4" y="637.6"/>
      <point x="870.3" y="538.3"/>
      <point x="870.3" y="387.4" type="curve" smooth="yes"/>
      <point x="870.3" y="235.6"/>
      <point x="781.6" y="150.5"/>
    </contour>
    <contour>
      <point x="604.6" y="818.3" type="curve"/>
      <point x="445.4" y="854.6"/>
      <point x="357.8" y="946.0"/>
      <point x="357.8" y="1087.5" type="curve" smooth="yes"/>
      <point x="357.8" y="1209.5"/>
      <point x="459.1" y="1287.3"/>
      <point x="604.6" y="1287.3" type="curve" smooth="yes"/>
      <point x="750.7" y="1287.3"/>
      <point x="848.4" y="1209.5"/>
      <point x="848.4" y="1087.5" type="curve" smooth="yes"/>
      <point x="848.4" y="946.0"/>
      <point x="764.0" y="854.6"/>
    </contour>
  </outline>
</glyph>
<glyph name="nine" format="1">
  <advance width="1205.0"/>
  <unicode hex="0039"/>
  <outline>
    <contour>
      <point x="260.1" y="0.0" type="line"/>
      <point x="532.1" y="0.0" type="line"/>
      <point x="532.1" y="0.0"/>
      <point x="898.4" y="490.8"/>
      <point x="913.8" y="511.1" type="curve" smooth="yes"/>
      <point x="1024.2" y="662.9"/>
      <point x="1115.6" y="794.6"/>
      <point x="1115.6" y="988.8" type="curve" smooth="yes"/>
      <point x="1115.6" y="1251.5"/>
      <point x="919.8" y="1447.0"/>
      <point x="617.1" y="1447.0" type="curve" smooth="yes"/>
      <point x="326.5" y="1447.0"/>
      <point x="121.6" y="1259.1"/>
      <point x="121.6" y="991.8" type="curve" smooth="yes"/>
      <point x="121.6" y="728.2"/>
      <point x="325.4" y="553.5"/>
      <point x="578.5" y="553.5" type="curve" smooth="yes"/>
      <point x="717.9" y="553.5"/>
      <point x="840.3" y="663.7"/>
      <point x="857.0" y="679.6" type="curve"/>
      <point x="814.8" y="717.9" type="line"/>
      <point x="814.8" y="717.9"/>
      <point x="668.6" y="532.7"/>
      <point x="629.3" y="480.2" type="curve"/>
    </contour>
    <contour>
      <point x="620.6" y="723.9" type="curve" smooth="yes"/>
      <point x="439.9" y="723.9"/>
      <point x="348.4" y="832.1"/>
      <point x="348.4" y="996.0" type="curve" smooth="yes"/>
      <point x="348.4" y="1153.6"/>
      <point x="447.8" y="1270.5"/>
      <point x="626.1" y="1270.5" type="curve" smooth="yes"/>
      <point x="801.8" y="1270.5"/>
      <point x="891.5" y="1156.9"/>
      <point x="891.5" y="1000.9" type="curve" smooth="yes"/>
      <point x="891.5" y="812.0"/>
      <point x="774.6" y="723.9"/>
    </contour>
  </outline>
</glyph>
<glyph name="colon" format="1">
  <advance width="594.5"/>
  <unicode hex="003A"/>
  <outline>
    <contour>
      <point x="191.1" y="0.0" type="line"/>
      <point x="421.9" y="0.0" type="line"/>
      <point x="421.9" y="246.9" type="line"/>
      <point x="191.1" y="246.9" type="line"/>
    </contour>
    <contour>
      <point x="191.1" y="822.7" type="line"/>
      <point x="421.9" y="822.7" type="line"/>
      <point x="421.9" y="1063.4" type="line"/>
      <point x="191.1" y="1063.4" type="line"/>
    </contour>
  </outline>
</glyph>
<glyph name="semicolon" format="1">
  <advance width="589.2"/>
  <unicode hex="003B"/>
  <outline>
    <contour>
      <point x="202.3" y="822.7" type="line"/>
      <point x="433.1" y="822.7" type="line"/>
      <point x="433.1" y="1063.4" type="line"/>
      <point x="202.3" y="1063.4" type="line"/>
    </contour>
    <contour>
      <point x="180.0" y="-300.4" type="line"/>
      <point x="315.0" y="-300.4" type="line"/>
      <point x="436.7" y="224.9" type="line"/>
      <point x="232.9" y="224.9" type="line"/>
    </contour>
  </outline>
</glyph>
<glyph name="less" format="1">
  <advance width="1135.9"/>
  <unicode hex="003C"/>
  <outline>
    <contour>
      <point x="1025.7" y="159.0" type="line"/>
      <point x="1025.7" y="159.0"/>
      <point x="1025.6" y="347.7"/>
      <point x="1024.9" y="348.4" type="curve" smooth="yes"/>
      <point x="336.1" y="661.5" type="line"/>
      <point x="1026.9" y="1001.5" type="line"/>
      <point x="1026.9" y="1184.7" type="line"/>
      <point x="104.9" y="712.1" type="line"/>
      <point x="104.9" y="601.1" type="line"/>
    </contour>
  </outline>
</glyph>
<glyph name="equal" format="1">
  <advance width="1217.0"/>
  <unicode hex="003D"/>
  <outline>
    <contour>
      <point x="143" y="851" type="line"/>
      <point x="1074" y="851" type="line"/>
      <point x="1074" y="1032" type="line"/>
      <point x="143" y="1032" type="line"/>
    </contour>
    <contour>
      <point x="143.0" y="467.0" type="line"/>
      <point x="1074.0" y="467" type="line"/>
      <point x="1074.0" y="648" type="line"/>
      <point x="143.0" y="648.0" type="line"/>
    </contour>
  </outline>
</glyph>
<glyph name="greater" format="1">
  <advance width="1139.8"/>
  <unicode hex="003E"/>
  <outline>
    <contour>
      <point x="144.2" y="163.2" type="line"/>
      <point x="1066.2" y="600.5" type="line"/>
      <point x="1066.2" y="710.4" type="line"/>
      <point x="145.1" y="1187.8" type="line"/>
      <point x="145.1" y="1004.9" type="line"/>
      <point x="831.0" y="661.5" type="line"/>
      <point x="144.2" y="352.5" type="line"/>
    </contour>
  </outline>
</glyph>
<glyph name="question" format="1">
  <advance width="971"/>
  <unicode hex="003F"/>
  <outline>
    <contour>
      <point x="385" y="-10" type="curve" smooth="yes"/>
      <point x="469" y="-10"/>
      <point x="521" y="57"/>
      <point x="521" y="130" type="curve" smooth="yes"/>
      <point x="521" y="203"/>
      <point x="469" y="269"/>
      <point x="385" y="269" type="curve" smooth="yes"/>
      <point x="300" y="269"/>
      <point x="246" y="203"/>
      <point x="246" y="130" type="curve" smooth="yes"/>
      <point x="246" y="57"/>
      <point x="301" y="-10"/>
    </contour>
    <contour>
      <point x="433" y="439" type="line"/>
      <point x="516" y="681"/>
      <point x="845" y="826"/>
      <point x="845" y="1142" type="curve" smooth="yes"/>
      <point x="845" y="1370"/>
      <point x="653" y="1480"/>
      <point x="451" y="1480" type="curve" smooth="yes"/>
      <point x="330" y="1480"/>
      <point x="206" y="1441"/>
      <point x="117" y="1364" type="curve"/>
      <point x="177" y="1180" type="line"/>
      <point x="246" y="1220"/>
      <point x="327" y="1262"/>
      <point x="417" y="1262" type="curve" smooth="yes"/>
      <point x="503" y="1262"/>
      <point x="589" y="1203"/>
      <point x="590" y="1089" type="curve" smooth="yes"/>
      <point x="590" y="892"/>
      <point x="396" y="795"/>
      <point x="331" y="439" type="curve"/>
    </contour>
  </outline>
</glyph>
<glyph name="at" format="1">
  <advance width="1844.7"/>
  <unicode hex="0040"/>
  <outline>
    <contour>
      <point x="903.3" y="-147.7" type="curve" smooth="yes"/>
      <point x="1090.2" y="-147.7"/>
      <point x="1279.5" y="-105.3"/>
      <point x="1405.3" y="-21.0" type="curve"/>
      <point x="1362.8" y="93.1" type="line"/>
      <point x="1233.0" y="19.1"/>
      <point x="1065.8" y="-20.3"/>
      <point x="905.5" y="-20.3" type="curve" smooth="yes"/>
      <point x="505.2" y="-20.3"/>
      <point x="282.5" y="263.5"/>
      <point x="282.5" y="621.8" type="curve" smooth="yes"/>
      <point x="282.5" y="993.6"/>
      <point x="535.5" y="1328.7"/>
      <point x="962.1" y="1328.7" type="curve" smooth="yes"/>
      <point x="1381.6" y="1328.7"/>
      <point x="1577.7" y="1057.3"/>
      <point x="1577.7" y="764.9" type="curve" smooth="yes"/>
      <point x="1577.7" y="501.3"/>
      <point x="1463.0" y="366.9"/>
      <point x="1348.7" y="366.9" type="curve" smooth="yes"/>
      <point x="1275.2" y="366.9"/>
      <point x="1226.5" y="424.4"/>
      <point x="1226.5" y="504.2" type="curve" smooth="yes"/>
      <point x="1226.5" y="624.7"/>
      <point x="1263.4" y="803.9"/>
      <point x="1290.6" y="1000.1" type="curve"/>
      <point x="1206.6" y="1042.3"/>
      <point x="1069.8" y="1069.9"/>
      <point x="975.9" y="1069.9" type="curve" smooth="yes"/>
      <point x="697.9" y="1069.9"/>
      <point x="542.6" y="824.4"/>
      <point x="542.6" y="585.3" type="curve" smooth="yes"/>
      <point x="542.6" y="395.3"/>
      <point x="641.9" y="247.4"/>
      <point x="840.1" y="247.4" type="curve" smooth="yes"/>
      <point x="1015.9" y="247.4"/>
      <point x="1113.1" y="416.6"/>
      <point x="1145.9" y="539.3" type="curve"/>
      <point x="1103.9" y="539.3" type="line"/>
      <point x="1117.0" y="366.8"/>
      <point x="1195.4" y="251.2"/>
      <point x="1348.9" y="251.2" type="curve" smooth="yes"/>
      <point x="1517.0" y="251.2"/>
      <point x="1718.1" y="420.9"/>
      <point x="1718.1" y="756.5" type="curve" smooth="yes"/>
      <point x="1718.1" y="1185.7"/>
      <point x="1389.3" y="1456.6"/>
      <point x="969.0" y="1456.6" type="curve" smooth="yes"/>
      <point x="482.1" y="1456.6"/>
      <point x="125.4" y="1103.7"/>
      <point x="125.4" y="625.7" type="curve" smooth="yes"/>
      <point x="125.4" y="146.7"/>
      <point x="443.6" y="-147.7"/>
    </contour>
    <contour>
      <point x="856.9" y="361.9" type="curve" smooth="yes"/>
      <point x="750.6" y="361.9"/>
      <point x="696.0" y="447.1"/>
      <point x="696.0" y="582.4" type="curve" smooth="yes"/>
      <point x="696.0" y="775.6"/>
      <point x="808.0" y="960.8"/>
      <point x="991.3" y="960.8" type="curve" smooth="yes"/>
      <point x="1044.7" y="960.8"/>
      <point x="1143.5" y="941.5"/>
      <point x="1181.7" y="928.2" type="curve"/>
      <point x="1134.5" y="1005.2" type="line"/>
      <point x="1132.7" y="986.3"/>
      <point x="1087.0" y="721.7"/>
      <point x="1084.3" y="703.1" type="curve" smooth="yes"/>
      <point x="1053.1" y="511.3"/>
      <point x="1005.6" y="361.9"/>
    </contour>
  </outline>
</glyph>
<glyph name="A" format="1">
  <advance width="1396"/>
  <unicode hex="0041"/>
  <outline>
    <contour>
      <point x="36" y="0" type="line"/>
      <point x="281" y="0" type="line"/>
      <point x="451" y="488" type="line"/>
      <point x="366" y="424" type="line"/>
      <point x="1030" y="424" type="line"/>
      <point x="943" y="484" type="line"/>
      <point x="1117" y="0" type="line"/>
      <point x="1360" y="0" type="line"/>
      <point x="844" y="1460" type="line"/>
      <point x="553" y="1460" type="line"/>
    </contour>
    <contour>
      <point x="461" y="521" type="line"/>
      <point x="724" y="1308" type="line"/>
      <point x="676" y="1308" type="line"/>
      <point x="932" y="522" type="line"/>
      <point x="980" y="594" type="line"/>
      <point x="416" y="594" type="line"/>
    </contour>
  </outline>
</glyph>
<glyph name="B" format="1">
  <advance width="1333"/>
  <unicode hex="0042"/>
  <outline>
    <contour>
      <point x="148" y="0" type="line"/>
      <point x="714" y="0" type="line" smooth="yes"/>
      <point x="1050" y="0"/>
      <point x="1236" y="159"/>
      <point x="1236" y="427" type="curve" smooth="yes"/>
      <point x="1236" y="650"/>
      <point x="1098" y="762"/>
      <point x="897" y="806" type="curve"/>
      <point x="897" y="748" type="line"/>
      <point x="1108" y="815"/>
      <point x="1191" y="931"/>
      <point x="1191" y="1098" type="curve" smooth="yes"/>
      <point x="1191" y="1361"/>
      <point x="1003" y="1460"/>
      <point x="642" y="1460" type="curve" smooth="yes"/>
      <point x="148" y="1460" type="line"/>
    </contour>
    <contour>
      <point x="329" y="180" type="line"/>
      <point x="388" y="118" type="line"/>
      <point x="388" y="750" type="line"/>
      <point x="329" y="684" type="line"/>
      <point x="652" y="684" type="line" smooth="yes"/>
      <point x="888" y="684"/>
      <point x="998" y="618"/>
      <point x="998" y="438" type="curve" smooth="yes"/>
      <point x="998" y="265"/>
      <point x="899" y="180"/>
      <point x="680" y="180" type="curve" smooth="yes"/>
    </contour>
    <contour>
      <point x="328" y="854" type="line"/>
      <point x="388" y="801" type="line"/>
      <point x="388" y="1335" type="line"/>
      <point x="329" y="1276" type="line"/>
      <point x="621" y="1276" type="line" smooth="yes"/>
      <point x="845" y="1276"/>
      <point x="950" y="1233"/>
      <point x="950" y="1064" type="curve" smooth="yes"/>
      <point x="950" y="903"/>
      <point x="851" y="854"/>
      <point x="675" y="854" type="curve" smooth="yes"/>
    </contour>
  </outline>
</glyph>
<glyph name="C" format="1">
  <advance width="1310.4"/>
  <unicode hex="0043"/>
  <outline>
    <contour>
      <point x="826.5" y="-19.0" type="curve" smooth="yes"/>
      <point x="981.2" y="-19.0"/>
      <point x="1132.7" y="22.6"/>
      <point x="1224.6" y="66.3" type="curve"/>
      <point x="1174.9" y="251.5" type="line"/>
      <point x="1106.6" y="219.4"/>
      <point x="976.3" y="180.6"/>
      <point x="851.0" y="180.6" type="curve" smooth="yes"/>
      <point x="584.7" y="180.6"/>
      <point x="378.4" y="349.3"/>
      <point x="378.4" y="715.0" type="curve" smooth="yes"/>
      <point x="378.4" y="1071.6"/>
      <point x="579.6" y="1250.9"/>
      <point x="841.6" y="1250.9" type="curve" smooth="yes"/>
      <point x="952.2" y="1250.9"/>
      <point x="1070.9" y="1219.8"/>
      <point x="1159.3" y="1168.4" type="curve"/>
      <point x="1230.0" y="1334.3" type="line"/>
      <point x="1125.3" y="1403.9"/>
      <point x="981.7" y="1447.0"/>
      <point x="824.1" y="1447.0" type="curve" smooth="yes"/>
      <point x="442.3" y="1447.0"/>
      <point x="129.7" y="1196.4"/>
      <point x="129.7" y="719.2" type="curve" smooth="yes"/>
      <point x="129.7" y="235.7"/>
      <point x="431.4" y="-19.0"/>
    </contour>
  </outline>
</glyph>
<glyph name="D" format="1">
  <advance width="1547.4"/>
  <unicode hex="0044"/>
  <outline>
    <contour>
      <point x="440.2" y="116.8" type="line"/>
      <point x="440.2" y="1310.5" type="line"/>
      <point x="375.2" y="1245.8" type="line"/>
      <point x="622.9" y="1245.8" type="line" smooth="yes"/>
      <point x="974.1" y="1245.8"/>
      <point x="1171.8" y="1089.5"/>
      <point x="1171.8" y="715.0" type="curve" smooth="yes"/>
      <point x="1171.8" y="372.4"/>
      <point x="991.1" y="187.1"/>
      <point x="649.9" y="187.1" type="curve" smooth="yes"/>
      <point x="375.9" y="187.1" type="line"/>
    </contour>
    <contour>
      <point x="192.2" y="0.0" type="line"/>
      <point x="646.1" y="0.0" type="line" smooth="yes"/>
      <point x="1109.6" y="0.0"/>
      <point x="1419.1" y="253.4"/>
      <point x="1419.1" y="720.0" type="curve" smooth="yes"/>
      <point x="1419.1" y="1206.9"/>
      <point x="1087.4" y="1428.7"/>
      <point x="620.0" y="1428.7" type="curve" smooth="yes"/>
      <point x="192.2" y="1428.7" type="line"/>
    </contour>
  </outline>
</glyph>
<glyph name="E" format="1">
  <advance width="1217.9"/>
  <unicode hex="0045"/>
  <outline>
    <contour>
      <point x="192.2" y="0.0" type="line"/>
      <point x="1094.9" y="0.0" type="line"/>
      <point x="1110.2" y="187.1" type="line"/>
      <point x="371.7" y="187.1" type="line"/>
      <point x="440.2" y="119.7" type="line"/>
      <point x="440.2" y="723.9" type="line"/>
      <point x="371.0" y="653.9" type="line"/>
      <point x="1050.5" y="653.9" type="line"/>
      <point x="1050.5" y="836.8" type="line"/>
      <point x="371.7" y="836.8" type="line"/>
      <point x="440.2" y="769.9" type="line"/>
      <point x="440.2" y="1313.2" type="line"/>
      <point x="371.6" y="1245.8" type="line"/>
      <point x="1093.6" y="1245.8" type="line"/>
      <point x="1102.5" y="1428.7" type="line"/>
      <point x="192.2" y="1428.7" type="line"/>
    </contour>
  </outline>
</glyph>
<glyph name="F" format="1">
  <advance width="1152.0"/>
  <unicode hex="0046"/>
  <outline>
    <contour>
      <point x="192.2" y="0.0" type="line"/>
      <point x="441.4" y="0.0" type="line"/>
      <point x="441.4" y="705.8" type="line"/>
      <point x="355.4" y="625.9" type="line"/>
      <point x="1031.6" y="625.9" type="line"/>
      <point x="1031.6" y="805.9" type="line"/>
      <point x="350.5" y="805.9" type="line"/>
      <point x="441.4" y="738.6" type="line"/>
      <point x="441.4" y="1318.8" type="line"/>
      <point x="347.0" y="1238.8" type="line"/>
      <point x="1086.4" y="1238.8" type="line"/>
      <point x="1097.5" y="1428.7" type="line"/>
      <point x="192.2" y="1428.7" type="line"/>
    </contour>
  </outline>
</glyph>
<glyph name="G" format="1">
  <advance width="1464.1"/>
  <unicode hex="0047"/>
  <outline>
    <contour>
      <point x="813.6" y="-19.0" type="curve" smooth="yes"/>
      <point x="1007.4" y="-19.0"/>
      <point x="1163.5" y="16.2"/>
      <point x="1314.9" y="79.4" type="curve"/>
      <point x="1314.9" y="751.0" type="line"/>
      <point x="788.8" y="751.0" type="line"/>
      <point x="785.8" y="566.6" type="line"/>
      <point x="1162.3" y="566.6" type="line"/>
      <point x="1097.0" y="631.9" type="line"/>
      <point x="1097.0" y="139.4" type="line"/>
      <point x="1166.0" y="250.6" type="line"/>
      <point x="1104.4" y="220.1"/>
      <point x="1019.5" y="179.9"/>
      <point x="833.0" y="179.9" type="curve" smooth="yes"/>
      <point x="514.9" y="179.9"/>
      <point x="377.4" y="391.7"/>
      <point x="377.4" y="717.9" type="curve" smooth="yes"/>
      <point x="377.4" y="1042.2"/>
      <point x="561.1" y="1252.3"/>
      <point x="854.4" y="1252.3" type="curve" smooth="yes"/>
      <point x="1005.7" y="1252.3"/>
      <point x="1116.8" y="1207.0"/>
      <point x="1222.4" y="1153.3" type="curve"/>
      <point x="1282.1" y="1336.5" type="line"/>
      <point x="1147.0" y="1413.8"/>
      <point x="1015.7" y="1447.0"/>
      <point x="843.7" y="1447.0" type="curve" smooth="yes"/>
      <point x="432.0" y="1447.0"/>
      <point x="128.7" y="1163.4"/>
      <point x="128.7" y="715.5" type="curve" smooth="yes"/>
      <point x="128.7" y="280.1"/>
      <point x="381.0" y="-19.0"/>
    </contour>
  </outline>
</glyph>
<glyph name="H" format="1">
  <advance width="1544.8"/>
  <unicode hex="0048"/>
  <outline>
    <contour>
      <point x="191.3" y="0.0" type="line"/>
      <point x="439.3" y="0.0" type="line"/>
      <point x="439.3" y="710.1" type="line"/>
      <point x="364.7" y="642.2" type="line"/>
      <point x="1183.0" y="642.2" type="line"/>
      <point x="1105.5" y="710.1" type="line"/>
      <point x="1105.5" y="0.0" type="line"/>
      <point x="1353.5" y="0.0" type="line"/>
      <point x="1353.5" y="1428.7" type="line"/>
      <point x="1105.5" y="1428.7" type="line"/>
      <point x="1105.5" y="758.3" type="line"/>
      <point x="1177.5" y="826.5" type="line"/>
      <point x="364.0" y="826.5" type="line"/>
      <point x="439.3" y="758.3" type="line"/>
      <point x="439.3" y="1428.7" type="line"/>
      <point x="191.3" y="1428.7" type="line"/>
    </contour>
  </outline>
</glyph>
<glyph name="I" format="1">
  <advance width="833.0"/>
  <unicode hex="0049"/>
  <outline>
    <contour>
      <point x="118.2" y="1428.7" type="line"/>
      <point x="118.2" y="1280.3" type="line"/>
      <point x="362.0" y="1280.3" type="line"/>
      <point x="294.2" y="1335.7" type="line"/>
      <point x="294.2" y="87.7" type="line"/>
      <point x="362.8" y="147.7" type="line"/>
      <point x="118.2" y="147.7" type="line"/>
      <point x="118.2" y="0.0" type="line"/>
      <point x="715.1" y="0.0" type="line"/>
      <point x="715.1" y="147.7" type="line"/>
      <point x="466.6" y="147.7" type="line"/>
      <point x="542.2" y="87.6" type="line"/>
      <point x="542.2" y="1337.2" type="line"/>
      <point x="467.8" y="1280.3" type="line"/>
      <point x="715.1" y="1280.3" type="line"/>
      <point x="715.1" y="1428.7" type="line"/>
    </contour>
  </outline>
</glyph>
<glyph name="J" format="1">
  <advance width="841.9"/>
  <unicode hex="004A"/>
  <outline>
    <contour>
      <point x="182.6" y="-205.1" type="line"/>
      <point x="484.0" y="-205.1"/>
      <point x="650.4" y="-10.5"/>
      <point x="650.4" y="307.3" type="curve" smooth="yes"/>
      <point x="650.4" y="1428.7" type="line"/>
      <point x="401.7" y="1428.7" type="line"/>
      <point x="401.7" y="292.1" type="line" smooth="yes"/>
      <point x="401.7" y="147.8"/>
      <point x="339.1" y="-7.1"/>
      <point x="153.9" y="-7.1" type="curve" smooth="yes"/>
      <point x="14.0" y="-7.1" type="line"/>
      <point x="14.0" y="-205.1" type="line"/>
    </contour>
  </outline>
</glyph>
<glyph name="K" format="1">
  <advance width="1316"/>
  <unicode hex="004B"/>
  <outline>
    <contour>
      <point x="148" y="0" type="line"/>
      <point x="388" y="0" type="line"/>
      <point x="388" y="621" type="line"/>
      <point x="335" y="493" type="line"/>
      <point x="580" y="737" type="line"/>
      <point x="480" y="737" type="line"/>
      <point x="1036" y="0" type="line"/>
      <point x="1324" y="0" type="line"/>
      <point x="659" y="875" type="line"/>
      <point x="659" y="746" type="line"/>
      <point x="1291" y="1460" type="line"/>
      <point x="1007" y="1460" type="line"/>
      <point x="327" y="706" type="line"/>
      <point x="388" y="697" type="line"/>
      <point x="388" y="1460" type="line"/>
      <point x="148" y="1460" type="line"/>
    </contour>
  </outline>
</glyph>
<glyph name="L" format="1">
  <advance width="1147.5"/>
  <unicode hex="004C"/>
  <outline>
    <contour>
      <point x="192.2" y="0.0" type="line"/>
      <point x="1082.2" y="0.0" type="line"/>
      <point x="1092.0" y="187.1" type="line"/>
      <point x="354.5" y="187.1" type="line"/>
      <point x="440.2" y="100.1" type="line"/>
      <point x="440.2" y="1428.7" type="line"/>
      <point x="192.2" y="1428.7" type="line"/>
    </contour>
  </outline>
</glyph>
<glyph name="M" format="1">
  <advance width="1878.3"/>
  <unicode hex="004D"/>
  <outline>
    <contour>
      <point x="173.0" y="0.0" type="line"/>
      <point x="408.8" y="0.0" type="line"/>
      <point x="420.6" y="676.6" type="line"/>
      <point x="420.6" y="1154.5" type="line"/>
      <point x="376.7" y="1154.5" type="line"/>
      <point x="841.0" y="187.7" type="line"/>
      <point x="1030.5" y="187.7" type="line"/>
      <point x="1506.0" y="1154.5" type="line"/>
      <point x="1458.3" y="1154.5" type="line"/>
      <point x="1458.3" y="679.9" type="line"/>
      <point x="1470.1" y="0.0" type="line"/>
      <point x="1704.6" y="0.0" type="line"/>
      <point x="1669.5" y="1428.7" type="line"/>
      <point x="1412.5" y="1428.7" type="line"/>
      <point x="895.0" y="365.2" type="line"/>
      <point x="983.4" y="365.2" type="line"/>
      <point x="470.4" y="1428.7" type="line"/>
      <point x="207.5" y="1428.7" type="line"/>
    </contour>
  </outline>
</glyph>
<glyph name="N" format="1">
  <advance width="1594.2"/>
  <unicode hex="004E"/>
  <outline>
    <contour>
      <point x="192.2" y="0.0" type="line"/>
      <point x="433.0" y="0.0" type="line"/>
      <point x="433.0" y="571.2" type="line"/>
      <point x="411.6" y="1194.9" type="line"/>
      <point x="359.1" y="1188.3" type="line"/>
      <point x="1133.7" y="0.0" type="line"/>
      <point x="1402.0" y="0.0" type="line"/>
      <point x="1402.0" y="1428.7" type="line"/>
      <point x="1161.5" y="1428.7" type="line"/>
      <point x="1161.5" y="756.0" type="line"/>
      <point x="1178.6" y="225.3" type="line"/>
      <point x="1227.0" y="226.8" type="line"/>
      <point x="450.9" y="1428.7" type="line"/>
      <point x="192.2" y="1428.7" type="line"/>
    </contour>
  </outline>
</glyph>
<glyph name="O" format="1">
  <advance width="1654.3"/>
  <unicode hex="004F"/>
  <outline>
    <contour>
      <point x="828.5" y="177.1" type="curve" smooth="yes"/>
      <point x="542.1" y="177.1"/>
      <point x="378.4" y="395.9"/>
      <point x="378.4" y="708.8" type="curve" smooth="yes"/>
      <point x="378.4" y="1031.2"/>
      <point x="547.3" y="1249.5"/>
      <point x="829.1" y="1249.5" type="curve" smooth="yes"/>
      <point x="1111.2" y="1249.5"/>
      <point x="1276.6" y="1030.3"/>
      <point x="1276.6" y="708.8" type="curve" smooth="yes"/>
      <point x="1276.6" y="395.9"/>
      <point x="1114.9" y="177.1"/>
    </contour>
    <contour>
      <point x="829.1" y="-19.0" type="curve" smooth="yes"/>
      <point x="1254.4" y="-19.0"/>
      <point x="1524.6" y="264.3"/>
      <point x="1524.6" y="709.3" type="curve" smooth="yes"/>
      <point x="1524.6" y="1164.3"/>
      <point x="1248.2" y="1447.0"/>
      <point x="829.4" y="1447.0" type="curve" smooth="yes"/>
      <point x="406.7" y="1447.0"/>
      <point x="129.7" y="1165.8"/>
      <point x="129.7" y="710.2" type="curve" smooth="yes"/>
      <point x="129.7" y="261.9"/>
      <point x="401.4" y="-19.0"/>
    </contour>
  </outline>
</glyph>
<glyph name="P" format="1">
  <advance width="1312.3"/>
  <unicode hex="0050"/>
  <outline>
    <contour>
      <point x="192.2" y="0.0" type="line"/>
      <point x="440.2" y="0.0" type="line"/>
      <point x="440.2" y="717.5" type="line"/>
      <point x="374.8" y="647.1" type="line"/>
      <point x="717.3" y="647.1" type="line" smooth="yes"/>
      <point x="1095.3" y="647.1"/>
      <point x="1232.8" y="805.7"/>
      <point x="1232.8" y="1059.7" type="curve" smooth="yes"/>
      <point x="1232.8" y="1344.1"/>
      <point x="1014.5" y="1428.7"/>
      <point x="718.8" y="1428.7" type="curve" smooth="yes"/>
      <point x="192.2" y="1428.7" type="line"/>
    </contour>
    <contour>
      <point x="700.5" y="836.3" type="curve" smooth="yes"/>
      <point x="376.6" y="836.3" type="line"/>
      <point x="440.2" y="773.1" type="line"/>
      <point x="440.2" y="1307.5" type="line"/>
      <point x="376.6" y="1245.8" type="line"/>
      <point x="718.9" y="1245.8" type="line" smooth="yes"/>
      <point x="892.7" y="1245.8"/>
      <point x="984.8" y="1198.0"/>
      <point x="984.8" y="1053.7" type="curve" smooth="yes"/>
      <point x="984.8" y="902.9"/>
      <point x="921.1" y="836.3"/>
    </contour>
  </outline>
</glyph>
<glyph name="Q" format="1">
  <advance width="1652.9"/>
  <unicode hex="0051"/>
  <outline>
    <contour>
      <point x="1233.0" y="-460.8" type="curve"/>
      <point x="1377.0" y="-333.2" type="line"/>
      <point x="1271.1" y="-226.4"/>
      <point x="1160.0" y="-51.1"/>
      <point x="1111.5" y="37.8" type="curve"/>
      <point x="906.7" y="-9.2" type="line"/>
      <point x="990.7" y="-167.2"/>
      <point x="1136.5" y="-386.0"/>
    </contour>
    <component base="O"/>
  </outline>
</glyph>
<glyph name="R" format="1">
  <advance width="1419.9"/>
  <unicode hex="0052"/>
  <outline>
    <contour>
      <point x="192.2" y="0.0" type="line"/>
      <point x="440.2" y="0.0" type="line"/>
      <point x="440.2" y="682.4" type="line"/>
      <point x="376.2" y="633.8" type="line"/>
      <point x="878.0" y="633.8" type="line"/>
      <point x="769.0" y="690.5" type="line"/>
      <point x="889.8" y="395.1" type="line"/>
      <point x="1060.1" y="0.0" type="line"/>
      <point x="1319.9" y="0.0" type="line"/>
      <point x="1114.9" y="454.5" type="line"/>
      <point x="984.9" y="753.2" type="line"/>
      <point x="968.7" y="651.4" type="line"/>
      <point x="1137.6" y="700.5"/>
      <point x="1264.5" y="795.0"/>
      <point x="1264.5" y="1035.9" type="curve" smooth="yes"/>
      <point x="1264.5" y="1332.3"/>
      <point x="1076.3" y="1428.7"/>
      <point x="762.8" y="1428.7" type="curve" smooth="yes"/>
      <point x="192.2" y="1428.7" type="line"/>
    </contour>
    <contour>
      <point x="440.2" y="739.6" type="line"/>
      <point x="440.2" y="1306.2" type="line"/>
      <point x="378.4" y="1245.8" type="line"/>
      <point x="772.0" y="1245.8" type="line" smooth="yes"/>
      <point x="961.1" y="1245.8"/>
      <point x="1018.0" y="1171.5"/>
      <point x="1018.0" y="1032.5" type="curve" smooth="yes"/>
      <point x="1018.0" y="870.3"/>
      <point x="970.0" y="802.2"/>
      <point x="753.3" y="802.2" type="curve" smooth="yes"/>
      <point x="374.8" y="802.2" type="line"/>
    </contour>
  </outline>
</glyph>
<glyph name="S" format="1">
  <advance width="1168.09030734"/>
  <unicode hex="0053"/>
  <outline>
    <contour>
      <point x="577" y="-20" type="curve" smooth="yes"/>
      <point x="872" y="-20"/>
      <point x="1088" y="113"/>
      <point x="1093" y="398" type="curve" smooth="yes"/>
      <point x="1097" y="639"/>
      <point x="968" y="743"/>
      <point x="730" y="828" type="curve" smooth="yes"/>
      <point x="499" y="911" type="line" smooth="yes"/>
      <point x="401" y="947"/>
      <point x="359" y="989"/>
      <point x="359" y="1083" type="curve" smooth="yes"/>
      <point x="359" y="1223"/>
      <point x="471" y="1280"/>
      <point x="621" y="1280" type="curve" smooth="yes"/>
      <point x="765" y="1280"/>
      <point x="898" y="1212"/>
      <point x="976" y="1176" type="curve"/>
      <point x="1055" y="1362" type="line"/>
      <point x="945" y="1430"/>
      <point x="787" y="1480"/>
      <point x="617" y="1480" type="curve" smooth="yes"/>
      <point x="342" y="1480"/>
      <point x="123" y="1355"/>
      <point x="123" y="1078" type="curve" smooth="yes"/>
      <point x="123" y="874"/>
      <point x="230" y="762"/>
      <point x="415" y="696" type="curve" smooth="yes"/>
      <point x="660" y="609" type="line" smooth="yes"/>
      <point x="801" y="559"/>
      <point x="858" y="511"/>
      <point x="856" y="400" type="curve" smooth="yes"/>
      <point x="853" y="245"/>
      <point x="761" y="180"/>
      <point x="586" y="180" type="curve" smooth="yes"/>
      <point x="426" y="180"/>
      <point x="271" y="234"/>
      <point x="183" y="294" type="curve"/>
      <point x="105" y="106" type="line"/>
      <point x="207" y="43"/>
      <point x="361" y="-20"/>
    </contour>
  </outline>
</glyph>
<glyph name="T" format="1">
  <advance width="1165"/>
  <unicode hex="0054"/>
  <outline>
    <contour>
      <point x="462" y="0" type="line"/>
      <point x="702" y="0" type="line"/>
      <point x="702" y="1363" type="line"/>
      <point x="640" y="1280" type="line"/>
      <point x="1147" y="1280" type="line"/>
      <point x="1147" y="1460" type="line"/>
      <point x="18" y="1460" type="line"/>
      <point x="18" y="1280" type="line"/>
      <point x="523" y="1280" type="line"/>
      <point x="462" y="1363" type="line"/>
    </contour>
  </outline>
</glyph>
<glyph name="U" format="1">
  <advance width="1510.1"/>
  <unicode hex="0055"/>
  <outline>
    <contour>
      <point x="755.7" y="-19.0" type="curve" smooth="yes"/>
      <point x="1128.4" y="-19.0"/>
      <point x="1348.2" y="193.5"/>
      <point x="1348.2" y="515.8" type="curve" smooth="yes"/>
      <point x="1348.2" y="1428.7" type="line"/>
      <point x="1100.2" y="1428.7" type="line"/>
      <point x="1100.2" y="530.9" type="line" smooth="yes"/>
      <point x="1100.2" y="298.9"/>
      <point x="977.6" y="179.9"/>
      <point x="755.7" y="179.9" type="curve" smooth="yes"/>
      <point x="533.2" y="179.9"/>
      <point x="410.6" y="298.5"/>
      <point x="410.6" y="530.5" type="curve" smooth="yes"/>
      <point x="410.6" y="1428.7" type="line"/>
      <point x="161.9" y="1428.7" type="line"/>
      <point x="161.9" y="517.4" type="line" smooth="yes"/>
      <point x="161.9" y="189.4"/>
      <point x="380.8" y="-19.0"/>
    </contour>
  </outline>
</glyph>
<glyph name="V" format="1">
  <advance width="1407.1"/>
  <unicode hex="0056"/>
  <outline>
    <contour>
      <point x="571.5" y="0.0" type="line"/>
      <point x="834.5" y="0.0" type="line"/>
      <point x="1337.9" y="1428.7" type="line"/>
      <point x="1076.9" y="1428.7" type="line"/>
      <point x="801.3" y="577.3" type="line"/>
      <point x="673.7" y="169.5" type="line"/>
      <point x="740.1" y="169.5" type="line"/>
      <point x="610.0" y="575.1" type="line"/>
      <point x="332.6" y="1428.7" type="line"/>
      <point x="69.2" y="1428.7" type="line"/>
    </contour>
  </outline>
</glyph>
<glyph name="W" format="1">
  <advance width="2039.4"/>
  <unicode hex="0057"/>
  <outline>
    <contour>
      <point x="457.1" y="0.0" type="line"/>
      <point x="690.6" y="0.0" type="line"/>
      <point x="1046.3" y="1172.7" type="line"/>
      <point x="998.4" y="1172.7" type="line"/>
      <point x="1335.3" y="0.0" type="line"/>
      <point x="1572.1" y="0.0" type="line"/>
      <point x="1990.0" y="1428.4" type="line"/>
      <point x="1748.7" y="1428.4" type="line"/>
      <point x="1430.9" y="250.4" type="line"/>
      <point x="1469.0" y="250.4" type="line"/>
      <point x="1134.1" y="1411.2" type="line"/>
      <point x="905.9" y="1411.2" type="line"/>
      <point x="560.5" y="249.8" type="line"/>
      <point x="601.1" y="249.8" type="line"/>
      <point x="290.5" y="1428.4" type="line"/>
      <point x="49.4" y="1428.4" type="line"/>
    </contour>
  </outline>
</glyph>
<glyph name="X" format="1">
  <advance width="1407.0"/>
  <unicode hex="0058"/>
  <outline>
    <contour>
      <point x="94.1" y="0.0" type="line"/>
      <point x="345.7" y="0.0" type="line"/>
      <point x="719.0" y="562.4" type="line"/>
      <point x="832.0" y="700.2" type="line"/>
      <point x="1301.9" y="1428.7" type="line"/>
      <point x="1051.7" y="1428.7" type="line"/>
      <point x="710.9" y="893.4" type="line"/>
      <point x="586.0" y="753.1" type="line"/>
    </contour>
    <contour>
      <point x="1056.3" y="0.0" type="line"/>
      <point x="1318.0" y="0.0" type="line"/>
      <point x="370.1" y="1428.7" type="line"/>
      <point x="112.8" y="1428.7" type="line"/>
    </contour>
  </outline>
</glyph>
<glyph name="Y" format="1">
  <advance width="1296.4"/>
  <unicode hex="0059"/>
  <outline>
    <contour>
      <point x="532.5" y="0.0" type="line"/>
      <point x="774.2" y="0.0" type="line"/>
      <point x="774.2" y="656.1" type="line"/>
      <point x="723.6" y="464.6" type="line"/>
      <point x="1242.1" y="1428.7" type="line"/>
      <point x="988.8" y="1428.7" type="line"/>
      <point x="613.4" y="694.2" type="line"/>
      <point x="690.1" y="694.2" type="line"/>
      <point x="310.8" y="1428.7" type="line"/>
      <point x="54.3" y="1428.7" type="line"/>
      <point x="589.5" y="451.6" type="line"/>
      <point x="532.5" y="652.2" type="line"/>
    </contour>
  </outline>
</glyph>
<glyph name="Z" format="1">
  <advance width="1240.7"/>
  <unicode hex="005A"/>
  <outline>
    <contour>
      <point x="149.4" y="0.0" type="line"/>
      <point x="1118.8" y="0.0" type="line"/>
      <point x="1122.1" y="187.1" type="line"/>
      <point x="378.3" y="187.1" type="line"/>
      <point x="411.6" y="112.1" type="line"/>
      <point x="1114.0" y="1264.8" type="line"/>
      <point x="1111.0" y="1428.7" type="line"/>
      <point x="168.2" y="1428.7" type="line"/>
      <point x="168.2" y="1245.8" type="line"/>
      <point x="911.0" y="1245.8" type="line"/>
      <point x="870.1" y="1318.7" type="line"/>
      <point x="149.4" y="156.7" type="line"/>
    </contour>
  </outline>
</glyph>
<glyph name="bracketleft" format="1">
  <advance width="735"/>
  <unicode hex="005B"/>
  <outline>
    <contour>
      <point x="205" y="-175" type="line"/>
      <point x="205" y="1519" type="line"/>
      <point x="660" y="1519" type="line"/>
      <point x="660" y="1357" type="line"/>
      <point x="419" y="1357" type="line"/>
      <point x="419" y="-13" type="line"/>
      <point x="660" y="-13" type="line"/>
      <point x="660" y="-175" type="line"/>
    </contour>
  </outline>
</glyph>
<glyph name="backslash" format="1">
  <advance width="894"/>
  <unicode hex="005C"/>
  <outline>
    <contour>
      <point x="623" y="-18" type="line"/>
      <point x="115" y="1445" type="line"/>
      <point x="313" y="1445" type="line"/>
      <point x="818" y="-18" type="line"/>
    </contour>
  </outline>
</glyph>
<glyph name="bracketright" format="1">
  <advance width="736"/>
  <unicode hex="005D"/>
  <outline>
    <contour>
      <point x="106" y="-175" type="line"/>
      <point x="106" y="-13" type="line"/>
      <point x="347" y="-13" type="line"/>
      <point x="347" y="1356" type="line"/>
      <point x="106" y="1356" type="line"/>
      <point x="106" y="1519" type="line"/>
      <point x="560" y="1519" type="line"/>
      <point x="560" y="-175" type="line"/>
    </contour>
  </outline>
</glyph>
<glyph name="asciicircum" format="1">
  <advance width="1178"/>
  <unicode hex="005E"/>
  <outline>
    <contour>
      <point x="94" y="554" type="line"/>
      <point x="537" y="1469" type="line"/>
      <point x="654" y="1469" type="line"/>
      <point x="1123" y="554" type="line"/>
      <point x="939" y="554" type="line"/>
      <point x="597" y="1234" type="line"/>
      <point x="277" y="554" type="line"/>
    </contour>
  </outline>
</glyph>
<glyph name="underscore" format="1">
  <advance width="1031.5"/>
  <unicode hex="005F"/>
  <outline>
    <contour>
      <point x="65.1" y="-216.4" type="line"/>
      <point x="997.5" y="-216.4" type="line"/>
      <point x="997.5" y="-60.6" type="line"/>
      <point x="65.1" y="-60.6" type="line"/>
    </contour>
  </outline>
</glyph>
<glyph name="grave" format="1">
  <advance width="534.0"/>
  <unicode hex="0060"/>
  <outline>
    <contour>
      <point x="352.5" y="1171.9" type="line"/>
      <point x="491.3" y="1171.9" type="line"/>
      <point x="309.5" y="1548.8" type="line"/>
      <point x="49.8" y="1548.8" type="line"/>
    </contour>
  </outline>
</glyph>
<glyph name="a" format="1">
  <advance width="1042"/>
  <unicode hex="0061"/>
  <outline>
    <contour>
      <point x="557" y="-18"/>
      <point x="681" y="60"/>
      <point x="766" y="208" type="curve"/>
      <point x="719" y="209" type="line"/>
      <point x="761" y="0" type="line"/>
      <point x="923" y="0" type="line"/>
      <point x="923" y="669" type="line" smooth="yes"/>
      <point x="923" y="953"/>
      <point x="790" y="1076"/>
      <point x="541" y="1076" type="curve" smooth="yes"/>
      <point x="381" y="1076"/>
      <point x="270" y="1062"/>
      <point x="144" y="1006" type="curve"/>
      <point x="191" y="845" type="line"/>
      <point x="296" y="888"/>
      <point x="412" y="906"/>
      <point x="505" y="906" type="curve" smooth="yes"/>
      <point x="639" y="906"/>
      <point x="704" y="840"/>
      <point x="704" y="689" type="curve" smooth="yes"/>
      <point x="704" y="572" type="line"/>
      <point x="742" y="610" type="line"/>
      <point x="543" y="610" type="line" smooth="yes"/>
      <point x="231" y="610"/>
      <point x="86" y="522"/>
      <point x="86" y="292" type="curve" smooth="yes"/>
      <point x="86" y="85"/>
      <point x="235" y="-18"/>
      <point x="417" y="-18" type="curve" smooth="yes"/>
    </contour>
    <contour>
      <point x="352" y="147"/>
      <point x="297" y="207"/>
      <point x="297" y="312" type="curve" smooth="yes"/>
      <point x="297" y="437"/>
      <point x="376" y="472"/>
      <point x="596" y="472" type="curve" smooth="yes"/>
      <point x="731" y="472" type="line"/>
      <point x="703" y="507" type="line"/>
      <point x="703" y="250" type="line"/>
      <point x="741" y="332" type="line"/>
      <point x="697" y="241"/>
      <point x="584" y="147"/>
      <point x="456" y="147" type="curve" smooth="yes"/>
    </contour>
  </outline>
</glyph>
<glyph name="b" format="1">
  <advance width="1172"/>
  <unicode hex="0062"/>
  <outline>
    <contour>
      <point x="657" y="-18" type="curve" smooth="yes"/>
      <point x="934" y="-18"/>
      <point x="1100" y="204"/>
      <point x="1100" y="534" type="curve" smooth="yes"/>
      <point x="1100" y="854"/>
      <point x="944" y="1076"/>
      <point x="662" y="1076" type="curve" smooth="yes"/>
      <point x="502" y="1076"/>
      <point x="373" y="994"/>
      <point x="312" y="842" type="curve"/>
      <point x="344" y="829" type="line"/>
      <point x="348" y="1103" type="line"/>
      <point x="348" y="1480" type="line"/>
      <point x="124" y="1460" type="line"/>
      <point x="124" y="0" type="line"/>
      <point x="313" y="0" type="line"/>
      <point x="339" y="239" type="line"/>
      <point x="295" y="225" type="line"/>
      <point x="351" y="82"/>
      <point x="485" y="-18"/>
    </contour>
    <contour>
      <point x="612" y="152" type="curve" smooth="yes"/>
      <point x="451" y="152"/>
      <point x="343" y="273"/>
      <point x="343" y="546" type="curve"/>
      <point x="344" y="789"/>
      <point x="446" y="904"/>
      <point x="618" y="904" type="curve" smooth="yes"/>
      <point x="784" y="904"/>
      <point x="874" y="781"/>
      <point x="874" y="533" type="curve" smooth="yes"/>
      <point x="874" y="282"/>
      <point x="777" y="152"/>
    </contour>
  </outline>
</glyph>
<glyph name="c" format="1">
  <advance width="1007.4"/>
  <unicode hex="0063"/>
  <outline>
    <contour>
      <point x="617.2" y="-19.0" type="curve" smooth="yes"/>
      <point x="788.7" y="-19.0"/>
      <point x="878.7" y="34.9"/>
      <point x="914.5" y="61.6" type="curve"/>
      <point x="881.0" y="219.4" type="line"/>
      <point x="815.0" y="182.2"/>
      <point x="733.1" y="152.8"/>
      <point x="641.2" y="156.3" type="curve" smooth="yes"/>
      <point x="453.5" y="161.2"/>
      <point x="330.6" y="300.1"/>
      <point x="330.6" y="532.4" type="curve" smooth="yes"/>
      <point x="330.6" y="777.7"/>
      <point x="469.7" y="912.0"/>
      <point x="645.3" y="912.0" type="curve" smooth="yes"/>
      <point x="765.3" y="912.0"/>
      <point x="843.0" y="865.1"/>
      <point x="865.4" y="851.8" type="curve"/>
      <point x="921.5" y="1007.3" type="line"/>
      <point x="861.3" y="1048.6"/>
      <point x="761.2" y="1087.3"/>
      <point x="619.3" y="1087.3" type="curve" smooth="yes"/>
      <point x="329.5" y="1087.3"/>
      <point x="106.3" y="881.0"/>
      <point x="106.3" y="534.5" type="curve" smooth="yes"/>
      <point x="106.3" y="190.7"/>
      <point x="309.9" y="-19.0"/>
    </contour>
  </outline>
</glyph>
<glyph name="d" format="1">
  <advance width="1173"/>
  <unicode hex="0064"/>
  <outline>
    <contour>
      <point x="526" y="-18" type="curve" smooth="yes"/>
      <point x="741" y="-18"/>
      <point x="842" y="102"/>
      <point x="890" y="267" type="curve"/>
      <point x="839" y="267" type="line"/>
      <point x="872" y="0" type="line"/>
      <point x="1053" y="0" type="line"/>
      <point x="1053" y="1480" type="line"/>
      <point x="829" y="1460" type="line"/>
      <point x="829" y="1110" type="line"/>
      <point x="840" y="862" type="line"/>
      <point x="877" y="878" type="line"/>
      <point x="816" y="994"/>
      <point x="712" y="1076"/>
      <point x="525" y="1076" type="curve" smooth="yes"/>
      <point x="248" y="1076"/>
      <point x="72" y="858"/>
      <point x="72" y="537" type="curve" smooth="yes"/>
      <point x="72" y="199"/>
      <point x="243" y="-18"/>
    </contour>
    <contour>
      <point x="569" y="152" type="curve" smooth="yes"/>
      <point x="395" y="152"/>
      <point x="298" y="274"/>
      <point x="298" y="533" type="curve" smooth="yes"/>
      <point x="298" y="798"/>
      <point x="416" y="904"/>
      <point x="580" y="904" type="curve" smooth="yes"/>
      <point x="743" y="904"/>
      <point x="838" y="796"/>
      <point x="838" y="518" type="curve"/>
      <point x="837" y="275"/>
      <point x="747" y="152"/>
    </contour>
  </outline>
</glyph>
<glyph name="e" format="1">
  <advance width="1055"/>
  <unicode hex="0065"/>
  <outline>
    <contour>
      <point x="580" y="-18" type="curve" smooth="yes"/>
      <point x="732" y="-18"/>
      <point x="840" y="12"/>
      <point x="934" y="73" type="curve"/>
      <point x="900" y="227" type="line"/>
      <point x="836" y="195"/>
      <point x="746" y="152"/>
      <point x="603" y="152" type="curve" smooth="yes"/>
      <point x="422" y="152"/>
      <point x="300" y="246"/>
      <point x="300" y="507" type="curve"/>
      <point x="246" y="462" type="line"/>
      <point x="961" y="462" type="line"/>
      <point x="961" y="462"/>
      <point x="969" y="547"/>
      <point x="969" y="567" type="curve" smooth="yes"/>
      <point x="969" y="861"/>
      <point x="823" y="1076"/>
      <point x="556" y="1076" type="curve" smooth="yes"/>
      <point x="275" y="1076"/>
      <point x="74" y="865"/>
      <point x="74" y="528" type="curve" smooth="yes"/>
      <point x="74" y="188"/>
      <point x="280" y="-18"/>
    </contour>
    <contour>
      <point x="304" y="565" type="line"/>
      <point x="304" y="785"/>
      <point x="412" y="904"/>
      <point x="560" y="904" type="curve" smooth="yes"/>
      <point x="709" y="904"/>
      <point x="774" y="785"/>
      <point x="774" y="565" type="curve"/>
      <point x="819" y="613" type="line"/>
      <point x="247" y="613" type="line"/>
    </contour>
  </outline>
</glyph>
<glyph name="f" format="1">
  <advance width="721"/>
  <unicode hex="0066"/>
  <outline>
    <contour>
      <point x="205" y="0" type="line"/>
      <point x="429" y="0" type="line"/>
      <point x="429" y="958" type="line"/>
      <point x="387" y="907" type="line"/>
      <point x="677" y="907" type="line"/>
      <point x="677" y="1058" type="line"/>
      <point x="380" y="1058" type="line"/>
      <point x="429" y="1012" type="line"/>
      <point x="429" y="1120" type="line" smooth="yes"/>
      <point x="429" y="1281"/>
      <point x="483" y="1303"/>
      <point x="575" y="1303" type="curve" smooth="yes"/>
      <point x="618" y="1303"/>
      <point x="674" y="1295"/>
      <point x="696" y="1291" type="curve"/>
      <point x="716" y="1451" type="line"/>
      <point x="667" y="1461"/>
      <point x="601" y="1469"/>
      <point x="535" y="1469" type="curve" smooth="yes"/>
      <point x="339" y="1469"/>
      <point x="205" y="1390"/>
      <point x="205" y="1103" type="curve" smooth="yes"/>
      <point x="205" y="1011" type="line"/>
      <point x="250" y="1061" type="line"/>
      <point x="41" y="1039" type="line"/>
      <point x="36" y="907" type="line"/>
      <point x="244" y="907" type="line"/>
      <point x="205" y="962" type="line"/>
    </contour>
  </outline>
</glyph>
<glyph name="g" format="1">
  <advance width="1172.0"/>
  <unicode hex="0067"/>
  <outline>
    <contour>
      <point x="832" y="-575"/>
      <point x="1054" y="-289"/>
      <point x="1054" y="68" type="curve" smooth="yes"/>
      <point x="1054.0" y="1058.0" type="line"/>
      <point x="848.0" y="1058.0" type="line"/>
      <point x="831.0" y="830" type="line"/>
      <point x="866.0" y="837" type="line"/>
      <point x="819.0" y="994"/>
      <point x="701.0" y="1076"/>
      <point x="536.0" y="1076.0" type="curve" smooth="yes"/>
      <point x="261.0" y="1076"/>
      <point x="74.0" y="858.0"/>
      <point x="74.0" y="533.0" type="curve" smooth="yes"/>
      <point x="74.0" y="243.0"/>
      <point x="242" y="17"/>
      <point x="527" y="17" type="curve" smooth="yes"/>
      <point x="705" y="17"/>
      <point x="848" y="119"/>
      <point x="885" y="316" type="curve"/>
      <point x="840" y="323" type="line"/>
      <point x="852" y="90" type="line" smooth="yes"/>
      <point x="874" y="-143"/>
      <point x="742" y="-382"/>
      <point x="233" y="-232" type="curve"/>
      <point x="206" y="-404" type="line"/>
    </contour>
    <contour>
      <point x="564" y="187" type="curve" smooth="yes"/>
      <point x="363" y="187"/>
      <point x="300.0" y="347.0"/>
      <point x="300.0" y="540.0" type="curve" smooth="yes"/>
      <point x="300.0" y="739.0"/>
      <point x="373.0" y="904.0"/>
      <point x="570.0" y="904.0" type="curve" smooth="yes"/>
      <point x="761.0" y="904.0"/>
      <point x="833.0" y="774.0"/>
      <point x="833.0" y="566.0" type="curve" smooth="yes"/>
      <point x="833.0" y="512.0" type="line"/>
      <point x="832.0" y="322.0"/>
      <point x="761" y="187"/>
    </contour>
  </outline>
</glyph>
<glyph name="h" format="1">
  <advance width="1132"/>
  <unicode hex="0068"/>
  <outline>
    <contour>
      <point x="118" y="0" type="line"/>
      <point x="342" y="0" type="line"/>
      <point x="342" y="539" type="line" smooth="yes"/>
      <point x="342" y="741"/>
      <point x="394" y="904"/>
      <point x="614" y="904" type="curve" smooth="yes"/>
      <point x="751" y="904"/>
      <point x="799" y="820"/>
      <point x="799" y="640" type="curve" smooth="yes"/>
      <point x="799" y="0" type="line"/>
      <point x="1023" y="0" type="line"/>
      <point x="1023" y="657" type="line" smooth="yes"/>
      <point x="1023" y="938"/>
      <point x="884" y="1076"/>
      <point x="657" y="1076" type="curve" smooth="yes"/>
      <point x="493" y="1076"/>
      <point x="351" y="981"/>
      <point x="299" y="786" type="curve"/>
      <point x="335" y="786" type="line"/>
      <point x="344" y="1133" type="line"/>
      <point x="344" y="1480" type="line"/>
      <point x="118" y="1460" type="line"/>
    </contour>
  </outline>
</glyph>
<glyph name="i" format="1">
  <advance width="518"/>
  <unicode hex="0069"/>
  <outline>
    <contour>
      <point x="264" y="1460" type="curve" smooth="yes"/>
      <point x="345" y="1460"/>
      <point x="401" y="1420"/>
      <point x="401" y="1340" type="curve" smooth="yes"/>
      <point x="401" y="1260"/>
      <point x="345" y="1220"/>
      <point x="264" y="1220" type="curve" smooth="yes"/>
      <point x="183" y="1220"/>
      <point x="126" y="1260"/>
      <point x="126" y="1340" type="curve" smooth="yes"/>
      <point x="126" y="1420"/>
      <point x="183" y="1460"/>
    </contour>
    <contour>
      <point x="158" y="0" type="line"/>
      <point x="378" y="0" type="line"/>
      <point x="378" y="1058" type="line"/>
      <point x="158" y="1058" type="line"/>
    </contour>
  </outline>
</glyph>
<glyph name="j" format="1">
  <advance width="571"/>
  <unicode hex="006A"/>
  <outline>
    <contour>
      <point x="332" y="1460" type="curve" smooth="yes"/>
      <point x="413" y="1460"/>
      <point x="469" y="1420"/>
      <point x="469" y="1340" type="curve" smooth="yes"/>
      <point x="469" y="1260"/>
      <point x="413" y="1220"/>
      <point x="332" y="1220" type="curve" smooth="yes"/>
      <point x="251" y="1220"/>
      <point x="194" y="1260"/>
      <point x="194" y="1340" type="curve" smooth="yes"/>
      <point x="194" y="1420"/>
      <point x="251" y="1460"/>
    </contour>
    <contour>
      <point x="22" y="-380" type="line"/>
      <point x="83" y="-375" type="line" smooth="yes"/>
      <point x="371" y="-351"/>
      <point x="438" y="-279"/>
      <point x="438" y="21" type="curve" smooth="yes"/>
      <point x="438" y="1058" type="line"/>
      <point x="218" y="1058" type="line"/>
      <point x="218" y="10" type="line" smooth="yes"/>
      <point x="218" y="-155"/>
      <point x="183" y="-187"/>
      <point x="40" y="-201" type="curve" smooth="yes"/>
      <point x="0" y="-205" type="line"/>
    </contour>
  </outline>
</glyph>
<glyph name="k" format="1">
  <advance width="1061"/>
  <unicode hex="006B"/>
  <outline>
    <contour>
      <point x="118" y="0" type="line"/>
      <point x="342" y="0" type="line"/>
      <point x="342" y="433" type="line"/>
      <point x="288" y="320" type="line"/>
      <point x="484" y="504" type="line"/>
      <point x="412" y="504" type="line"/>
      <point x="812" y="0" type="line"/>
      <point x="1075" y="0" type="line"/>
      <point x="570" y="627" type="line"/>
      <point x="560" y="525" type="line"/>
      <point x="1053" y="1058" type="line"/>
      <point x="778" y="1058" type="line"/>
      <point x="294" y="526" type="line"/>
      <point x="335" y="526" type="line"/>
      <point x="342" y="783" type="line"/>
      <point x="342" y="1480" type="line"/>
      <point x="118" y="1460" type="line"/>
    </contour>
  </outline>
</glyph>
<glyph name="l" format="1">
  <advance width="717.2"/>
  <unicode hex="006C"/>
  <outline>
    <contour>
      <point x="524.5" y="-13.1" type="curve" smooth="yes"/>
      <point x="612.8" y="-13.1"/>
      <point x="690.9" y="11.7"/>
      <point x="697.2" y="12.6" type="curve"/>
      <point x="697.2" y="164.9" type="line"/>
      <point x="694.2" y="164.6"/>
      <point x="630.1" y="154.4"/>
      <point x="564.0" y="154.4" type="curve" smooth="yes"/>
      <point x="456.9" y="154.4"/>
      <point x="385.9" y="179.1"/>
      <point x="385.9" y="336.4" type="curve" smooth="yes"/>
      <point x="385.9" y="1451.9" type="line"/>
      <point x="161.0" y="1437.7" type="line"/>
      <point x="161.0" y="359.1" type="line" smooth="yes"/>
      <point x="161.0" y="86.7"/>
      <point x="281.5" y="-13.1"/>
    </contour>
  </outline>
</glyph>
<glyph name="m" format="1">
  <advance width="1681"/>
  <unicode hex="006D"/>
  <outline>
    <contour>
      <point x="116" y="0" type="line"/>
      <point x="337" y="0" type="line"/>
      <point x="337" y="559" type="line" smooth="yes"/>
      <point x="337" y="764"/>
      <point x="422" y="904"/>
      <point x="574" y="904" type="curve" smooth="yes"/>
      <point x="707" y="904"/>
      <point x="735" y="809"/>
      <point x="735" y="605" type="curve" smooth="yes"/>
      <point x="735" y="0" type="line"/>
      <point x="956" y="0" type="line"/>
      <point x="956" y="560" type="line" smooth="yes"/>
      <point x="956" y="780"/>
      <point x="1053" y="904"/>
      <point x="1192" y="904" type="curve" smooth="yes"/>
      <point x="1340" y="904"/>
      <point x="1352" y="779"/>
      <point x="1352" y="603" type="curve" smooth="yes"/>
      <point x="1352" y="0" type="line"/>
      <point x="1573" y="0" type="line"/>
      <point x="1573" y="676" type="line" smooth="yes"/>
      <point x="1573" y="936"/>
      <point x="1469" y="1076"/>
      <point x="1238" y="1076" type="curve" smooth="yes"/>
      <point x="1085" y="1076"/>
      <point x="946" y="993"/>
      <point x="894" y="793" type="curve"/>
      <point x="930" y="793" type="line"/>
      <point x="896" y="966"/>
      <point x="801" y="1076"/>
      <point x="628" y="1076" type="curve" smooth="yes"/>
      <point x="450" y="1076"/>
      <point x="337" y="965"/>
      <point x="291" y="786" type="curve"/>
      <point x="333" y="786" type="line"/>
      <point x="298" y="1058" type="line"/>
      <point x="116" y="1058" type="line"/>
    </contour>
  </outline>
</glyph>
<glyph name="n" format="1">
  <advance width="1152.0"/>
  <unicode hex="006E"/>
  <outline>
    <contour>
      <point x="118.0" y="0.0" type="line"/>
      <point x="342.0" y="0.0" type="line"/>
      <point x="342" y="529" type="line" smooth="yes"/>
      <point x="342" y="724"/>
      <point x="433" y="904"/>
      <point x="615" y="904" type="curve" smooth="yes"/>
      <point x="762" y="904"/>
      <point x="821" y="807"/>
      <point x="821" y="628" type="curve" smooth="yes"/>
      <point x="821.0" y="0.0" type="line"/>
      <point x="1045.0" y="0.0" type="line"/>
      <point x="1045.0" y="646.0" type="line" smooth="yes"/>
      <point x="1045.0" y="922.0"/>
      <point x="898.0" y="1076.0"/>
      <point x="671.0" y="1076.0" type="curve" smooth="yes"/>
      <point x="443.0" y="1076.0"/>
      <point x="350.0" y="942.0"/>
      <point x="299.0" y="786.0" type="curve"/>
      <point x="335.0" y="786.0" type="line"/>
      <point x="303.0" y="1058.0" type="line"/>
      <point x="118.0" y="1058.0" type="line"/>
    </contour>
  </outline>
</glyph>
<glyph name="o" format="1">
  <advance width="1169"/>
  <unicode hex="006F"/>
  <outline>
    <contour>
      <point x="585" y="152" type="curve" smooth="yes"/>
      <point x="401" y="152"/>
      <point x="300" y="295"/>
      <point x="300" y="530" type="curve" smooth="yes"/>
      <point x="300" y="766"/>
      <point x="403" y="904"/>
      <point x="585" y="904" type="curve" smooth="yes"/>
      <point x="771" y="904"/>
      <point x="869" y="766"/>
      <point x="869" y="530" type="curve" smooth="yes"/>
      <point x="869" y="294"/>
      <point x="771" y="152"/>
    </contour>
    <contour>
      <point x="585" y="-18" type="curve" smooth="yes"/>
      <point x="895" y="-18"/>
      <point x="1095" y="199"/>
      <point x="1095" y="530" type="curve" smooth="yes"/>
      <point x="1095" y="862"/>
      <point x="896" y="1076"/>
      <point x="585" y="1076" type="curve" smooth="yes"/>
      <point x="269" y="1076"/>
      <point x="74" y="866"/>
      <point x="74" y="530" type="curve" smooth="yes"/>
      <point x="74" y="202"/>
      <point x="278" y="-18"/>
    </contour>
  </outline>
</glyph>
<glyph name="p" format="1">
  <advance width="1162"/>
  <unicode hex="0070"/>
  <outline>
    <contour>
      <point x="120" y="-441" type="line"/>
      <point x="344" y="-441" type="line"/>
      <point x="344" y="-37" type="line"/>
      <point x="335" y="283" type="line"/>
      <point x="285" y="283" type="line"/>
      <point x="326" y="124"/>
      <point x="444" y="-18"/>
      <point x="641" y="-18" type="curve" smooth="yes"/>
      <point x="917" y="-18"/>
      <point x="1088" y="211"/>
      <point x="1088" y="530" type="curve" smooth="yes"/>
      <point x="1088" y="845"/>
      <point x="934" y="1076"/>
      <point x="661" y="1076" type="curve" smooth="yes"/>
      <point x="508" y="1076"/>
      <point x="357" y="1009"/>
      <point x="299" y="786" type="curve"/>
      <point x="339" y="786" type="line"/>
      <point x="305" y="1058" type="line"/>
      <point x="120" y="1058" type="line"/>
    </contour>
    <contour>
      <point x="608" y="152" type="curve" smooth="yes"/>
      <point x="436" y="152"/>
      <point x="341" y="279"/>
      <point x="341" y="548" type="curve"/>
      <point x="342" y="786"/>
      <point x="431" y="904"/>
      <point x="609" y="904" type="curve" smooth="yes"/>
      <point x="776" y="904"/>
      <point x="862" y="777"/>
      <point x="862" y="532" type="curve" smooth="yes"/>
      <point x="862" y="289"/>
      <point x="773" y="152"/>
    </contour>
  </outline>
</glyph>
<glyph name="q" format="1">
  <advance width="1252.4"/>
  <unicode hex="0071"/>
  <outline>
    <contour>
      <point x="869.5" y="-443.6" type="line"/>
      <point x="1093.8" y="-431.3" type="line"/>
      <point x="1093.8" y="1063.4" type="line"/>
      <point x="894.4" y="1063.4" type="line"/>
      <point x="869.6" y="857.2" type="line"/>
      <point x="913.8" y="870.7" type="line"/>
      <point x="857.1" y="980.5"/>
      <point x="756.3" y="1087.3"/>
      <point x="560.5" y="1087.3" type="curve" smooth="yes"/>
      <point x="269.1" y="1087.3"/>
      <point x="106.3" y="854.1"/>
      <point x="106.3" y="531.8" type="curve" smooth="yes"/>
      <point x="106.3" y="210.2"/>
      <point x="288.1" y="-19.0"/>
      <point x="562.2" y="-19.0" type="curve" smooth="yes"/>
      <point x="750.6" y="-19.0"/>
      <point x="860.0" y="83.2"/>
      <point x="927.8" y="222.6" type="curve"/>
      <point x="876.5" y="242.7" type="line"/>
      <point x="869.5" y="-20.8" type="line"/>
    </contour>
    <contour>
      <point x="600.6" y="152.1" type="curve" smooth="yes"/>
      <point x="427.3" y="152.1"/>
      <point x="330.6" y="288.1"/>
      <point x="330.6" y="534.3" type="curve" smooth="yes"/>
      <point x="330.6" y="780.8"/>
      <point x="427.4" y="914.1"/>
      <point x="599.1" y="914.1" type="curve" smooth="yes"/>
      <point x="786.5" y="914.1"/>
      <point x="874.5" y="788.2"/>
      <point x="874.5" y="534.1" type="curve"/>
      <point x="873.3" y="274.5"/>
      <point x="790.1" y="152.1"/>
    </contour>
  </outline>
</glyph>
<glyph name="r" format="1">
  <advance width="778"/>
  <unicode hex="0072"/>
  <outline>
    <contour>
      <point x="122" y="0" type="line"/>
      <point x="346" y="0" type="line"/>
      <point x="346" y="584" type="line" smooth="yes"/>
      <point x="346" y="797"/>
      <point x="465" y="893"/>
      <point x="646" y="893" type="curve" smooth="yes"/>
      <point x="670" y="893"/>
      <point x="697" y="892"/>
      <point x="727" y="886" type="curve"/>
      <point x="732" y="1059" type="line"/>
      <point x="707" y="1064"/>
      <point x="682" y="1065"/>
      <point x="656" y="1065" type="curve" smooth="yes"/>
      <point x="528" y="1065"/>
      <point x="385" y="1023"/>
      <point x="303" y="786" type="curve"/>
      <point x="341" y="786" type="line"/>
      <point x="307" y="1058" type="line"/>
      <point x="122" y="1058" type="line"/>
    </contour>
  </outline>
</glyph>
<glyph name="s" format="1">
  <advance width="889"/>
  <unicode hex="0073"/>
  <outline>
    <contour>
      <point x="205" y="15"/>
      <point x="346" y="-18"/>
      <point x="468" y="-18" type="curve" smooth="yes"/>
      <point x="674" y="-18"/>
      <point x="841" y="85"/>
      <point x="841" y="319" type="curve" smooth="yes"/>
      <point x="841" y="460"/>
      <point x="773" y="553"/>
      <point x="565" y="619" type="curve" smooth="yes"/>
      <point x="471" y="649" type="line" smooth="yes"/>
      <point x="335" y="693"/>
      <point x="305" y="725"/>
      <point x="305" y="789" type="curve" smooth="yes"/>
      <point x="305" y="861"/>
      <point x="384" y="905"/>
      <point x="496" y="905" type="curve" smooth="yes"/>
      <point x="577" y="905"/>
      <point x="669" y="881"/>
      <point x="749" y="828" type="curve"/>
      <point x="801" y="1002" type="line"/>
      <point x="717" y="1050"/>
      <point x="604" y="1076"/>
      <point x="493" y="1076" type="curve" smooth="yes"/>
      <point x="290" y="1076"/>
      <point x="93" y="987"/>
      <point x="93" y="777" type="curve" smooth="yes"/>
      <point x="93" y="625"/>
      <point x="158" y="539"/>
      <point x="357" y="475" type="curve" smooth="yes"/>
      <point x="469" y="439" type="line" smooth="yes"/>
      <point x="614" y="393"/>
      <point x="640" y="352"/>
      <point x="640" y="295" type="curve" smooth="yes"/>
      <point x="640" y="218"/>
      <point x="587" y="155"/>
      <point x="471" y="155" type="curve" smooth="yes"/>
      <point x="393" y="155"/>
      <point x="286" y="184"/>
      <point x="147" y="257" type="curve"/>
      <point x="92" y="72" type="line"/>
    </contour>
  </outline>
</glyph>
<glyph name="t" format="1">
  <advance width="866.5"/>
  <unicode hex="0074"/>
  <outline>
    <contour>
      <point x="583.1" y="-13.1" type="curve" smooth="yes"/>
      <point x="707.4" y="-13.1"/>
      <point x="786.5" y="14.8"/>
      <point x="786.5" y="14.8" type="curve"/>
      <point x="786.5" y="165.6" type="line"/>
      <point x="786.5" y="165.6"/>
      <point x="686.0" y="152.8"/>
      <point x="628.3" y="152.8" type="curve" smooth="yes"/>
      <point x="524.0" y="152.8"/>
      <point x="457.1" y="189.6"/>
      <point x="457.1" y="361.0" type="curve" smooth="yes"/>
      <point x="457.1" y="965.8" type="line"/>
      <point x="418.1" y="921.4" type="line"/>
      <point x="756.6" y="921.4" type="line"/>
      <point x="756.6" y="1063.4" type="line"/>
      <point x="417.4" y="1063.4" type="line"/>
      <point x="457.1" y="1014.2" type="line"/>
      <point x="457.1" y="1329.8" type="line"/>
      <point x="299.4" y="1328.0" type="line"/>
      <point x="234.6" y="1022.0" type="line"/>
      <point x="297.9" y="1066.4" type="line"/>
      <point x="80.0" y="1051.3" type="line"/>
      <point x="69.5" y="922.1" type="line"/>
      <point x="271.2" y="922.1" type="line"/>
      <point x="232.2" y="966.8" type="line"/>
      <point x="232.2" y="368.6" type="line" smooth="yes"/>
      <point x="232.2" y="111.2"/>
      <point x="339.1" y="-13.1"/>
    </contour>
  </outline>
</glyph>
<glyph name="u" format="1">
  <advance width="1135"/>
  <unicode hex="0075"/>
  <outline>
    <contour>
      <point x="1013" y="1058" type="line"/>
      <point x="789" y="1058" type="line"/>
      <point x="789" y="491" type="line" smooth="yes"/>
      <point x="789" y="282"/>
      <point x="735" y="152"/>
      <point x="534" y="152" type="curve" smooth="yes"/>
      <point x="380" y="152"/>
      <point x="330" y="244"/>
      <point x="330" y="409" type="curve" smooth="yes"/>
      <point x="330" y="1058" type="line"/>
      <point x="106" y="1058" type="line"/>
      <point x="106" y="400" type="line" smooth="yes"/>
      <point x="106" y="119"/>
      <point x="239" y="-18"/>
      <point x="480" y="-18" type="curve" smooth="yes"/>
      <point x="670" y="-18"/>
      <point x="795" y="61"/>
      <point x="851" y="267" type="curve"/>
      <point x="799" y="267" type="line"/>
      <point x="834" y="0" type="line"/>
      <point x="1013" y="0" type="line"/>
    </contour>
  </outline>
</glyph>
<glyph name="v" format="1">
  <advance width="1076"/>
  <unicode hex="0076"/>
  <outline>
    <contour>
      <point x="437" y="0" type="line"/>
      <point x="655" y="0" type="line"/>
      <point x="1050" y="1058" type="line"/>
      <point x="818" y="1058" type="line"/>
      <point x="622" y="475" type="line"/>
      <point x="527" y="167" type="line"/>
      <point x="571" y="167" type="line"/>
      <point x="467" y="475" type="line"/>
      <point x="260" y="1058" type="line"/>
      <point x="26" y="1058" type="line"/>
    </contour>
  </outline>
</glyph>
<glyph name="w" format="1">
  <advance width="1535"/>
  <unicode hex="0077"/>
  <outline>
    <contour>
      <point x="315" y="0" type="line"/>
      <point x="523" y="0" type="line"/>
      <point x="793" y="905" type="line"/>
      <point x="744" y="905" type="line"/>
      <point x="1003" y="0" type="line"/>
      <point x="1208" y="0" type="line"/>
      <point x="1507" y="1058" type="line"/>
      <point x="1298" y="1058" type="line"/>
      <point x="1081" y="191" type="line"/>
      <point x="1120" y="191" type="line"/>
      <point x="880" y="1058" type="line"/>
      <point x="660" y="1058" type="line"/>
      <point x="411" y="191" type="line"/>
      <point x="447" y="191" type="line"/>
      <point x="240" y="1058" type="line"/>
      <point x="28" y="1058" type="line"/>
    </contour>
  </outline>
</glyph>
<glyph name="x" format="1">
  <advance width="1071"/>
  <unicode hex="0078"/>
  <outline>
    <contour>
      <point x="21" y="0" type="line"/>
      <point x="271" y="0" type="line"/>
      <point x="556" y="412" type="line"/>
      <point x="644" y="491" type="line"/>
      <point x="1039" y="1058" type="line"/>
      <point x="790" y="1058" type="line"/>
      <point x="517" y="659" type="line"/>
      <point x="428" y="579" type="line"/>
    </contour>
    <contour>
      <point x="797" y="0" type="line"/>
      <point x="1050" y="0" type="line"/>
      <point x="292" y="1058" type="line"/>
      <point x="41" y="1058" type="line"/>
    </contour>
  </outline>
</glyph>
<glyph name="y" format="1">
  <advance width="1111.4"/>
  <unicode hex="0079"/>
  <outline>
    <contour>
      <point x="527.1" y="-396.5" type="line"/>
      <point x="1071.7" y="1063.4" type="line"/>
      <point x="839.7" y="1063.4" type="line"/>
      <point x="561.3" y="214.6" type="line"/>
      <point x="608.9" y="214.6" type="line"/>
      <point x="295.7" y="1063.4" type="line"/>
      <point x="64.2" y="1063.4" type="line"/>
      <point x="505.0" y="-43.2" type="line"/>
      <point x="505.0" y="98.2" type="line"/>
      <point x="324.5" y="-363.8" type="line"/>
    </contour>
  </outline>
</glyph>
<glyph name="z" format="1">
  <advance width="982.9"/>
  <unicode hex="007A"/>
  <outline>
    <contour>
      <point x="114.4" y="0.0" type="line"/>
      <point x="885.6" y="0.0" type="line"/>
      <point x="885.6" y="166.3" type="line"/>
      <point x="310.4" y="166.3" type="line"/>
      <point x="330.9" y="97.6" type="line"/>
      <point x="871.9" y="909.0" type="line"/>
      <point x="871.9" y="1063.4" type="line"/>
      <point x="136.8" y="1063.4" type="line"/>
      <point x="136.8" y="903.4" type="line"/>
      <point x="694.3" y="903.4" type="line"/>
      <point x="668.8" y="964.6" type="line"/>
      <point x="114.4" y="140.8" type="line"/>
    </contour>
  </outline>
</glyph>
<glyph name="braceleft" format="1">
  <advance width="724.9"/>
  <unicode hex="007B"/>
  <outline>
    <contour>
      <point x="650.9" y="-264.2" type="line"/>
      <point x="396.2" y="-264.2"/>
      <point x="277.8" y="-178.2"/>
      <point x="277.8" y="45.5" type="curve" smooth="yes"/>
      <point x="277.8" y="273.3" type="line" smooth="yes"/>
      <point x="277.8" y="428.3"/>
      <point x="247.3" y="506.5"/>
      <point x="73.2" y="507.4" type="curve"/>
      <point x="73.2" y="689.4" type="line"/>
      <point x="250.4" y="690.1"/>
      <point x="277.8" y="765.2"/>
      <point x="277.8" y="920.4" type="curve" smooth="yes"/>
      <point x="277.8" y="1177.3" type="line" smooth="yes"/>
      <point x="277.8" y="1389.0"/>
      <point x="407.7" y="1469.1"/>
      <point x="650.9" y="1469.4" type="curve"/>
      <point x="650.9" y="1297.2" type="line"/>
      <point x="514.7" y="1295.2"/>
      <point x="483.2" y="1252.1"/>
      <point x="483.2" y="1110.9" type="curve" smooth="yes"/>
      <point x="483.2" y="856.1" type="line"/>
      <point x="481.8" y="719.9"/>
      <point x="431.8" y="647.2"/>
      <point x="306.7" y="596.2" type="curve"/>
      <point x="426.1" y="561.4"/>
      <point x="483.2" y="485.8"/>
      <point x="483.2" y="346.8" type="curve" smooth="yes"/>
      <point x="483.2" y="90.9" type="line" smooth="yes"/>
      <point x="483.2" y="-47.9"/>
      <point x="513.1" y="-92.6"/>
      <point x="650.9" y="-94.6" type="curve"/>
    </contour>
  </outline>
</glyph>
<glyph name="bar" format="1">
  <advance width="490.4"/>
  <unicode hex="007C"/>
  <outline>
    <contour>
      <point x="175.7" y="-310.7" type="line"/>
      <point x="175.7" y="1538.0" type="line"/>
      <point x="349.2" y="1538.0" type="line"/>
      <point x="349.2" y="-310.7" type="line"/>
    </contour>
  </outline>
</glyph>
<glyph name="braceright" format="1">
  <advance width="724.9"/>
  <unicode hex="007D"/>
  <outline>
    <contour>
      <point x="96.3" y="-264.2" type="curve"/>
      <point x="96.3" y="-93.7" type="line"/>
      <point x="232.5" y="-91.7"/>
      <point x="262.6" y="-50.7"/>
      <point x="262.6" y="91.2" type="curve" smooth="yes"/>
      <point x="262.6" y="347.4" type="line" smooth="yes"/>
      <point x="262.6" y="473.0"/>
      <point x="314.9" y="551.6"/>
      <point x="440.5" y="601.3" type="curve"/>
      <point x="316.9" y="643.1"/>
      <point x="264.0" y="735.7"/>
      <point x="262.6" y="856.7" type="curve"/>
      <point x="262.6" y="1111.2" type="line" smooth="yes"/>
      <point x="262.6" y="1250.7"/>
      <point x="234.1" y="1296.4"/>
      <point x="96.3" y="1298.4" type="curve"/>
      <point x="96.3" y="1469.4" type="line"/>
      <point x="350.3" y="1469.4"/>
      <point x="468.0" y="1384.5"/>
      <point x="468.0" y="1156.6" type="curve" smooth="yes"/>
      <point x="468.0" y="921.8" type="line" smooth="yes"/>
      <point x="468.0" y="766.8"/>
      <point x="495.0" y="692.8"/>
      <point x="673.3" y="691.2" type="curve"/>
      <point x="673.3" y="509.5" type="line"/>
      <point x="501.0" y="509.5"/>
      <point x="468.0" y="431.6"/>
      <point x="468.0" y="275.7" type="curve" smooth="yes"/>
      <point x="468.0" y="24.8" type="line" smooth="yes"/>
      <point x="468.0" y="-185.5"/>
      <point x="343.7" y="-263.9"/>
    </contour>
  </outline>
</glyph>
<glyph name="asciitilde" format="1">
  <advance width="1158.8"/>
  <unicode hex="007E"/>
  <outline>
    <contour>
      <point x="179.6" y="470.6" type="curve"/>
      <point x="111.7" y="593.7" type="line"/>
      <point x="158.9" y="697.7"/>
      <point x="243.0" y="783.5"/>
      <point x="380.5" y="783.5" type="curve" smooth="yes"/>
      <point x="461.3" y="783.5"/>
      <point x="533.6" y="758.6"/>
      <point x="622.0" y="719.7" type="curve" smooth="yes"/>
      <point x="710.1" y="681.2"/>
      <point x="779.6" y="652.0"/>
      <point x="834.9" y="652.0" type="curve" smooth="yes"/>
      <point x="910.0" y="652.0"/>
      <point x="980.6" y="704.0"/>
      <point x="1041.5" y="789.5" type="curve"/>
      <point x="1108.8" y="672.6" type="line"/>
      <point x="1059.4" y="566.9"/>
      <point x="957.7" y="482.1"/>
      <point x="825.6" y="482.1" type="curve" smooth="yes"/>
      <point x="744.2" y="482.1"/>
      <point x="674.4" y="509.8"/>
      <point x="588.7" y="548.3" type="curve"/>
      <point x="505.1" y="587.0"/>
      <point x="442.1" y="614.8"/>
      <point x="373.9" y="614.8" type="curve" smooth="yes"/>
      <point x="289.2" y="614.8"/>
      <point x="221.2" y="547.5"/>
    </contour>
  </outline>
</glyph>
<glyph name="cent" format="1">
  <advance width="956.5"/>
  <unicode hex="00A2"/>
  <outline>
    <contour>
      <point x="571.6" y="-153.9" type="line"/>
      <point x="656.9" y="-153.9" type="line"/>
      <point x="656.9" y="1220.9" type="line"/>
      <point x="571.6" y="1220.9" type="line"/>
    </contour>
    <component base="c"/>
  </outline>
</glyph>
<glyph name="sterling" format="1">
  <advance width="1064.2"/>
  <unicode hex="00A3"/>
  <outline>
    <contour>
      <point x="96.3" y="9.8" type="line"/>
      <point x="85.7" y="175.7" type="line"/>
      <point x="257.2" y="195.3" type="line"/>
      <point x="257.2" y="646.7" type="line"/>
      <point x="80.3" y="646.7" type="line"/>
      <point x="80.3" y="806.0" type="line"/>
      <point x="257.2" y="806.0" type="line"/>
      <point x="257.2" y="907.3" type="line" smooth="yes"/>
      <point x="257.2" y="1204.1"/>
      <point x="347.1" y="1447.3"/>
      <point x="675.0" y="1447.3" type="curve" smooth="yes"/>
      <point x="820.5" y="1447.3"/>
      <point x="939.0" y="1394.7"/>
      <point x="1030.2" y="1317.6" type="curve"/>
      <point x="938.5" y="1173.4" type="line"/>
      <point x="855.4" y="1233.9"/>
      <point x="776.7" y="1268.8"/>
      <point x="681.2" y="1268.8" type="curve" smooth="yes"/>
      <point x="519.5" y="1268.8"/>
      <point x="463.2" y="1157.2"/>
      <point x="463.2" y="976.8" type="curve" smooth="yes"/>
      <point x="463.2" y="806.0" type="line"/>
      <point x="841.8" y="806.0" type="line"/>
      <point x="841.8" y="647.1" type="line"/>
      <point x="463.2" y="647.1" type="line"/>
      <point x="463.2" y="197.3" type="line"/>
      <point x="1046.4" y="197.3" type="line"/>
      <point x="1037.4" y="9.8" type="line"/>
    </contour>
  </outline>
</glyph>
<glyph name="currency" format="1">
  <advance width="1130.1"/>
  <unicode hex="00A4"/>
  <outline>
    <contour>
      <point x="1008.9" y="222.1" type="line"/>
      <point x="1090.4" y="308.9" type="line"/>
      <point x="916.7" y="476.8" type="line"/>
      <point x="963.9" y="544.7"/>
      <point x="988.4" y="621.6"/>
      <point x="988.4" y="708.1" type="curve" smooth="yes"/>
      <point x="988.4" y="792.2"/>
      <point x="962.1" y="871.5"/>
      <point x="915.7" y="939.7" type="curve"/>
      <point x="1091.4" y="1108.1" type="line"/>
      <point x="1008.9" y="1194.5" type="line"/>
      <point x="831.2" y="1027.1" type="line"/>
      <point x="762.4" y="1081.7"/>
      <point x="681.0" y="1112.1"/>
      <point x="588.5" y="1112.1" type="curve" smooth="yes"/>
      <point x="497.4" y="1112.1"/>
      <point x="411.8" y="1081.2"/>
      <point x="344.5" y="1028.8" type="curve"/>
      <point x="170.6" y="1194.5" type="line"/>
      <point x="83.4" y="1109.7" type="line"/>
      <point x="261.0" y="939.7" type="line"/>
      <point x="213.5" y="870.5"/>
      <point x="188.0" y="792.7"/>
      <point x="188.0" y="708.1" type="curve" smooth="yes"/>
      <point x="188.0" y="622.5"/>
      <point x="214.6" y="543.8"/>
      <point x="261.0" y="476.8" type="curve"/>
      <point x="84.4" y="308.1" type="line"/>
      <point x="170.6" y="223.8" type="line"/>
      <point x="343.4" y="388.4" type="line"/>
      <point x="411.8" y="334.2"/>
      <point x="495.0" y="305.4"/>
      <point x="588.5" y="305.4" type="curve" smooth="yes"/>
      <point x="680.6" y="305.4"/>
      <point x="763.5" y="336.3"/>
      <point x="831.2" y="388.8" type="curve"/>
    </contour>
    <contour>
      <point x="588.5" y="429.3" type="curve" smooth="yes"/>
      <point x="430.6" y="429.3"/>
      <point x="315.9" y="554.8"/>
      <point x="315.9" y="708.1" type="curve" smooth="yes"/>
      <point x="315.9" y="860.7"/>
      <point x="430.6" y="987.9"/>
      <point x="588.5" y="987.9" type="curve" smooth="yes"/>
      <point x="747.8" y="987.9"/>
      <point x="862.5" y="861.1"/>
      <point x="862.5" y="708.1" type="curve" smooth="yes"/>
      <point x="862.5" y="555.1"/>
      <point x="748.8" y="429.3"/>
    </contour>
  </outline>
</glyph>
<glyph name="yen" format="1">
  <advance width="1271"/>
  <unicode hex="00A5"/>
  <outline>
    <contour>
      <point x="540" y="0" type="line"/>
      <point x="788" y="0" type="line"/>
      <point x="788" y="250" type="line"/>
      <point x="1105" y="250" type="line"/>
      <point x="1105" y="397" type="line"/>
      <point x="788" y="397" type="line"/>
      <point x="788" y="543" type="line"/>
      <point x="1105" y="543" type="line"/>
      <point x="1105" y="684" type="line"/>
      <point x="849" y="684" type="line"/>
      <point x="1265" y="1457" type="line"/>
      <point x="1006" y="1457" type="line"/>
      <point x="662" y="782" type="line"/>
      <point x="315" y="1457" type="line"/>
      <point x="53" y="1457" type="line"/>
      <point x="478" y="684" type="line"/>
      <point x="222" y="684" type="line"/>
      <point x="222" y="543" type="line"/>
      <point x="540" y="543" type="line"/>
      <point x="540" y="397" type="line"/>
      <point x="221" y="397" type="line"/>
      <point x="221" y="250" type="line"/>
      <point x="540" y="250" type="line"/>
    </contour>
  </outline>
</glyph>
<glyph name="brokenbar" format="1">
  <advance width="553.6"/>
  <unicode hex="00A6"/>
  <outline>
    <contour>
      <point x="206.4" y="-297.3" type="line"/>
      <point x="206.4" y="396.3" type="line"/>
      <point x="380.2" y="396.3" type="line"/>
      <point x="380.2" y="-297.3" type="line"/>
    </contour>
    <contour>
      <point x="206.4" y="750.0" type="line"/>
      <point x="206.4" y="1441.3" type="line"/>
      <point x="380.2" y="1441.3" type="line"/>
      <point x="380.2" y="750.0" type="line"/>
    </contour>
  </outline>
</glyph>
<glyph name="section" format="1">
  <advance width="1010"/>
  <unicode hex="00A7"/>
  <outline>
    <contour>
      <point x="871" y="276" type="curve" smooth="yes"/>
      <point x="871" y="70"/>
      <point x="685" y="-18"/>
      <point x="479" y="-18" type="curve" smooth="yes"/>
      <point x="371" y="-18"/>
      <point x="257" y="5"/>
      <point x="162" y="49" type="curve"/>
      <point x="197" y="138" type="line"/>
      <point x="278" y="95"/>
      <point x="385" y="68"/>
      <point x="484" y="68" type="curve" smooth="yes"/>
      <point x="635" y="68"/>
      <point x="767" y="129"/>
      <point x="767" y="284" type="curve" smooth="yes"/>
      <point x="767" y="397"/>
      <point x="694" y="444"/>
      <point x="492" y="513" type="curve" smooth="yes"/>
      <point x="287" y="584"/>
      <point x="156" y="645"/>
      <point x="156" y="808" type="curve" smooth="yes"/>
      <point x="156" y="926"/>
      <point x="227" y="1006"/>
      <point x="324" y="1056" type="curve"/>
      <point x="219" y="1115"/>
      <point x="167" y="1181"/>
      <point x="167" y="1299" type="curve" smooth="yes"/>
      <point x="167" y="1491"/>
      <point x="348" y="1576"/>
      <point x="549" y="1576" type="curve" smooth="yes"/>
      <point x="647" y="1576"/>
      <point x="750" y="1555"/>
      <point x="839" y="1517" type="curve"/>
      <point x="808" y="1433" type="line"/>
      <point x="737" y="1467"/>
      <point x="642" y="1487"/>
      <point x="551" y="1487" type="curve" smooth="yes"/>
      <point x="407" y="1487"/>
      <point x="275" y="1437"/>
      <point x="275" y="1308" type="curve" smooth="yes"/>
      <point x="275" y="1162"/>
      <point x="384" y="1131"/>
      <point x="575" y="1055" type="curve"/>
      <point x="789" y="970"/>
      <point x="879" y="922"/>
      <point x="879" y="761" type="curve" smooth="yes"/>
      <point x="879" y="643"/>
      <point x="836" y="565"/>
      <point x="722" y="517" type="curve"/>
      <point x="815" y="465"/>
      <point x="871" y="387"/>
    </contour>
    <contour>
      <point x="641" y="558" type="line"/>
      <point x="706" y="593"/>
      <point x="774" y="628"/>
      <point x="774" y="773" type="curve" smooth="yes"/>
      <point x="774" y="876"/>
      <point x="676" y="916"/>
      <point x="537" y="971" type="curve"/>
      <point x="402" y="1023" type="line"/>
      <point x="336" y="999"/>
      <point x="262" y="920"/>
      <point x="262" y="813" type="curve" smooth="yes"/>
      <point x="262" y="697"/>
      <point x="357" y="671"/>
      <point x="520" y="606" type="curve" smooth="yes"/>
    </contour>
  </outline>
</glyph>
<glyph name="dieresis" format="1">
  <advance width="705.1"/>
  <unicode hex="00A8"/>
  <outline>
    <contour>
      <point x="91.2" y="1193.5" type="line"/>
      <point x="266.4" y="1193.5" type="line"/>
      <point x="266.4" y="1415.8" type="line"/>
      <point x="91.2" y="1415.8" type="line"/>
    </contour>
    <contour>
      <point x="476.6" y="1193.5" type="line"/>
      <point x="651.4" y="1193.5" type="line"/>
      <point x="651.4" y="1415.8" type="line"/>
      <point x="476.6" y="1415.8" type="line"/>
    </contour>
  </outline>
</glyph>
<glyph name="copyright" format="1">
  <advance width="1643.8"/>
  <unicode hex="00A9"/>
  <outline>
    <contour>
      <point x="821.7" y="242.3" type="curve" smooth="yes"/>
      <point x="930.3" y="242.3"/>
      <point x="1030.0" y="271.0"/>
      <point x="1111.4" y="323.3" type="curve"/>
      <point x="1066.6" y="425.6" type="line"/>
      <point x="991.6" y="379.9"/>
      <point x="905.3" y="359.8"/>
      <point x="831.2" y="359.8" type="curve" smooth="yes"/>
      <point x="639.4" y="359.8"/>
      <point x="505.0" y="502.3"/>
      <point x="505.0" y="728.0" type="curve" smooth="yes"/>
      <point x="505.0" y="946.2"/>
      <point x="638.7" y="1094.4"/>
      <point x="825.7" y="1094.4" type="curve" smooth="yes"/>
      <point x="896.8" y="1094.4"/>
      <point x="988.3" y="1072.3"/>
      <point x="1058.6" y="1025.1" type="curve"/>
      <point x="1109.5" y="1128.9" type="line"/>
      <point x="1026.1" y="1185.4"/>
      <point x="926.6" y="1212.9"/>
      <point x="817.4" y="1212.9" type="curve" smooth="yes"/>
      <point x="556.6" y="1212.9"/>
      <point x="361.8" y="999.6"/>
      <point x="361.8" y="725.6" type="curve" smooth="yes"/>
      <point x="361.8" y="444.2"/>
      <point x="564.0" y="242.3"/>
    </contour>
    <contour>
      <point x="820.6" y="89.9" type="curve" smooth="yes"/>
      <point x="474.6" y="89.9"/>
      <point x="187.7" y="347.8"/>
      <point x="187.7" y="732.2" type="curve" smooth="yes"/>
      <point x="187.7" y="1115.2"/>
      <point x="473.9" y="1369.9"/>
      <point x="819.2" y="1369.9" type="curve" smooth="yes"/>
      <point x="1168.0" y="1369.9"/>
      <point x="1456.8" y="1114.9"/>
      <point x="1456.8" y="731.5" type="curve" smooth="yes"/>
      <point x="1456.8" y="348.1"/>
      <point x="1169.4" y="89.9"/>
    </contour>
    <contour>
      <point x="820.6" y="-12.0" type="curve" smooth="yes"/>
      <point x="1215.0" y="-12.0"/>
      <point x="1575.8" y="272.3"/>
      <point x="1575.8" y="732.2" type="curve" smooth="yes"/>
      <point x="1575.8" y="1191.4"/>
      <point x="1212.9" y="1472.8"/>
      <point x="819.2" y="1472.8" type="curve" smooth="yes"/>
      <point x="427.6" y="1472.8"/>
      <point x="68.0" y="1192.1"/>
      <point x="68.0" y="732.2" type="curve" smooth="yes"/>
      <point x="68.0" y="272.3"/>
      <point x="429.0" y="-12.0"/>
    </contour>
  </outline>
</glyph>
<glyph name="guillemotleft" format="1">
  <advance width="963.9"/>
  <unicode hex="00AB"/>
  <outline>
    <contour>
      <point x="748.9" y="135.3" type="line"/>
      <point x="918.6" y="180.5" type="line"/>
      <point x="661.6" y="543.8" type="line"/>
      <point x="923.5" y="906.3" type="line"/>
      <point x="751.2" y="950.8" type="line"/>
      <point x="452.9" y="540.8" type="line"/>
    </contour>
    <contour>
      <point x="362.8" y="135.3" type="line"/>
      <point x="532.5" y="180.5" type="line"/>
      <point x="275.8" y="543.8" type="line"/>
      <point x="538.4" y="906.3" type="line"/>
      <point x="366.1" y="950.8" type="line"/>
      <point x="66.8" y="540.8" type="line"/>
    </contour>
  </outline>
</glyph>
<glyph name="logicalnot" format="1">
  <advance width="1151.8"/>
  <unicode hex="00AC"/>
  <outline>
    <contour>
      <point x="887.3" y="245.7" type="line"/>
      <point x="1053.7" y="245.7" type="line"/>
      <point x="1053.7" y="801.9" type="line"/>
      <point x="92.6" y="801.9" type="line"/>
      <point x="92.6" y="633.6" type="line"/>
      <point x="887.3" y="633.6" type="line"/>
    </contour>
  </outline>
</glyph>
<glyph name="uni00AD" format="1">
  <advance width="782.8"/>
  <unicode hex="00AD"/>
  <outline>
    <contour>
      <point x="85.3" y="297.0" type="line"/>
      <point x="731.3" y="297.0" type="line"/>
      <point x="731.3" y="475.5" type="line"/>
      <point x="85.3" y="475.5" type="line"/>
    </contour>
  </outline>
</glyph>
<glyph name="registered" format="1">
  <advance width="1638.2"/>
  <unicode hex="00AE"/>
  <outline>
    <contour>
      <point x="518.1" y="271.9" type="line"/>
      <point x="657.8" y="271.9" type="line"/>
      <point x="657.8" y="683.6" type="line"/>
      <point x="825.9" y="683.6" type="line"/>
      <point x="848.3" y="661.2"/>
      <point x="1040.5" y="271.9"/>
      <point x="1040.5" y="271.9" type="curve"/>
      <point x="1196.2" y="271.9" type="line"/>
      <point x="1196.2" y="271.9"/>
      <point x="1002.3" y="649.7"/>
      <point x="962.4" y="702.9" type="curve"/>
      <point x="1100.7" y="729.6"/>
      <point x="1156.4" y="813.7"/>
      <point x="1156.4" y="949.1" type="curve" smooth="yes"/>
      <point x="1156.4" y="1126.5"/>
      <point x="1044.0" y="1199.5"/>
      <point x="830.9" y="1199.5" type="curve" smooth="yes"/>
      <point x="518.1" y="1199.5" type="line"/>
    </contour>
    <contour>
      <point x="657.4" y="805.4" type="line"/>
      <point x="657.4" y="1077.7" type="line"/>
      <point x="800.8" y="1077.7" type="line" smooth="yes"/>
      <point x="954.7" y="1077.7"/>
      <point x="1018.5" y="1066.4"/>
      <point x="1018.5" y="945.5" type="curve" smooth="yes"/>
      <point x="1018.5" y="834.4"/>
      <point x="958.6" y="805.4"/>
      <point x="821.7" y="805.4" type="curve" smooth="yes"/>
    </contour>
    <contour>
      <point x="817.8" y="85.0" type="curve" smooth="yes"/>
      <point x="472.5" y="85.0"/>
      <point x="186.3" y="342.9"/>
      <point x="186.3" y="727.3" type="curve" smooth="yes"/>
      <point x="186.3" y="1110.3"/>
      <point x="471.8" y="1369.9"/>
      <point x="817.1" y="1369.9" type="curve" smooth="yes"/>
      <point x="1165.2" y="1369.9"/>
      <point x="1451.9" y="1110.0"/>
      <point x="1451.9" y="726.6" type="curve" smooth="yes"/>
      <point x="1451.9" y="343.2"/>
      <point x="1165.2" y="85.0"/>
    </contour>
    <contour>
      <point x="817.8" y="-16.9" type="curve" smooth="yes"/>
      <point x="1210.8" y="-16.9"/>
      <point x="1571.6" y="267.4"/>
      <point x="1571.6" y="727.3" type="curve" smooth="yes"/>
      <point x="1571.6" y="1186.5"/>
      <point x="1210.1" y="1472.8"/>
      <point x="817.1" y="1472.8" type="curve" smooth="yes"/>
      <point x="425.5" y="1472.8"/>
      <point x="66.6" y="1187.2"/>
      <point x="66.6" y="727.3" type="curve" smooth="yes"/>
      <point x="66.6" y="267.4"/>
      <point x="426.2" y="-16.9"/>
    </contour>
  </outline>
</glyph>
<glyph name="macron" format="1">
  <advance width="911.2"/>
  <unicode hex="00AF"/>
  <outline>
    <contour>
      <point x="130.2" y="1261.1" type="line"/>
      <point x="770.8" y="1261.1" type="line"/>
      <point x="770.8" y="1407.7" type="line"/>
      <point x="130.2" y="1407.7" type="line"/>
    </contour>
  </outline>
</glyph>
<glyph name="degree" format="1">
  <advance width="774.8"/>
  <unicode hex="00B0"/>
  <outline>
    <contour>
      <point x="387.6" y="998.7" type="curve" smooth="yes"/>
      <point x="299.8" y="998.7"/>
      <point x="223.2" y="1063.6"/>
      <point x="223.2" y="1167.7" type="curve" smooth="yes"/>
      <point x="223.2" y="1269.7"/>
      <point x="300.4" y="1333.2"/>
      <point x="388.3" y="1333.2" type="curve" smooth="yes"/>
      <point x="475.0" y="1333.2"/>
      <point x="551.2" y="1269.7"/>
      <point x="551.2" y="1167.7" type="curve" smooth="yes"/>
      <point x="551.2" y="1064.2"/>
      <point x="475.7" y="998.7"/>
    </contour>
    <contour>
      <point x="387.3" y="877.5" type="curve" smooth="yes"/>
      <point x="568.8" y="877.5"/>
      <point x="690.1" y="1012.4"/>
      <point x="690.1" y="1168.4" type="curve" smooth="yes"/>
      <point x="690.1" y="1328.7"/>
      <point x="564.4" y="1453.0"/>
      <point x="387.3" y="1453.0" type="curve" smooth="yes"/>
      <point x="209.6" y="1453.0"/>
      <point x="85.0" y="1328.7"/>
      <point x="85.0" y="1168.4" type="curve" smooth="yes"/>
      <point x="85.0" y="1009.0"/>
      <point x="208.1" y="877.5"/>
    </contour>
  </outline>
</glyph>
<glyph name="plusminus" format="1">
  <advance width="1141.2"/>
  <unicode hex="00B1"/>
  <outline>
    <contour>
      <point x="112.3" y="0.0" type="line"/>
      <point x="112.3" y="155.7" type="line"/>
      <point x="1028.9" y="155.7" type="line"/>
      <point x="1028.9" y="0.0" type="line"/>
    </contour>
    <contour>
      <point x="482.0" y="233.2" type="line"/>
      <point x="652.4" y="233.2" type="line"/>
      <point x="652.4" y="600.1" type="line"/>
      <point x="1009.4" y="600.1" type="line"/>
      <point x="1009.4" y="769.9" type="line"/>
      <point x="651.7" y="769.9" type="line"/>
      <point x="651.7" y="1127.5" type="line"/>
      <point x="482.0" y="1127.5" type="line"/>
      <point x="482.0" y="769.9" type="line"/>
      <point x="121.6" y="769.9" type="line"/>
      <point x="121.6" y="600.1" type="line"/>
      <point x="482.0" y="600.1" type="line"/>
    </contour>
  </outline>
</glyph>
<glyph name="uni00B2" format="1">
  <advance width="744"/>
  <unicode hex="00B2"/>
  <outline>
    <contour>
      <point x="634" y="662" type="line"/>
      <point x="109" y="662" type="line"/>
      <point x="109" y="754" type="line"/>
      <point x="354" y="1000"/>
      <point x="531" y="1155"/>
      <point x="531" y="1279" type="curve" smooth="yes"/>
      <point x="531" y="1387"/>
      <point x="463" y="1434"/>
      <point x="384" y="1434" type="curve" smooth="yes"/>
      <point x="300" y="1434"/>
      <point x="218" y="1398"/>
      <point x="153" y="1310" type="curve"/>
      <point x="81" y="1370" type="line"/>
      <point x="133" y="1468"/>
      <point x="256" y="1534"/>
      <point x="371" y="1534" type="curve" smooth="yes"/>
      <point x="529" y="1534"/>
      <point x="646" y="1450"/>
      <point x="646" y="1288" type="curve" smooth="yes"/>
      <point x="646" y="1095"/>
      <point x="471" y="959"/>
      <point x="255" y="761" type="curve"/>
      <point x="634" y="761" type="line"/>
    </contour>
  </outline>
</glyph>
<glyph name="uni00B3" format="1">
  <advance width="745.4"/>
  <unicode hex="00B3"/>
  <outline>
    <contour>
      <point x="385.2" y="581.9" type="curve" smooth="yes"/>
      <point x="536.0" y="581.9"/>
      <point x="664.8" y="674.3"/>
      <point x="664.8" y="841.4" type="curve" smooth="yes"/>
      <point x="664.8" y="933.6"/>
      <point x="606.5" y="1007.2"/>
      <point x="525.2" y="1040.7" type="curve"/>
      <point x="609.1" y="1069.9"/>
      <point x="645.1" y="1134.7"/>
      <point x="646.5" y="1205.9" type="curve"/>
      <point x="646.5" y="1367.0"/>
      <point x="522.2" y="1439.4"/>
      <point x="389.3" y="1439.4" type="curve" smooth="yes"/>
      <point x="297.5" y="1439.4"/>
      <point x="199.6" y="1406.5"/>
      <point x="137.8" y="1350.1" type="curve"/>
      <point x="191.8" y="1245.0" type="line"/>
      <point x="230.7" y="1277.4"/>
      <point x="315.4" y="1306.6"/>
      <point x="381.7" y="1306.6" type="curve" smooth="yes"/>
      <point x="450.6" y="1306.6"/>
      <point x="489.2" y="1267.7"/>
      <point x="489.2" y="1204.5" type="curve" smooth="yes"/>
      <point x="489.2" y="1137.8"/>
      <point x="437.0" y="1099.7"/>
      <point x="335.5" y="1099.7" type="curve" smooth="yes"/>
      <point x="256.5" y="1099.7" type="line"/>
      <point x="256.5" y="967.1" type="line"/>
      <point x="335.3" y="967.8" type="line"/>
      <point x="442.7" y="967.8"/>
      <point x="513.9" y="926.3"/>
      <point x="513.9" y="843.6" type="curve" smooth="yes"/>
      <point x="513.9" y="755.8"/>
      <point x="458.9" y="714.6"/>
      <point x="380.6" y="714.6" type="curve" smooth="yes"/>
      <point x="320.4" y="714.6"/>
      <point x="232.0" y="740.5"/>
      <point x="187.4" y="781.9" type="curve"/>
      <point x="134.3" y="664.2" type="line"/>
      <point x="200.8" y="608.7"/>
      <point x="301.4" y="581.9"/>
    </contour>
  </outline>
</glyph>
<glyph name="acute" format="1">
  <advance width="574.6"/>
  <unicode hex="00B4"/>
  <outline>
    <contour>
      <point x="145.8" y="1118.7" type="line"/>
      <point x="281.7" y="1118.7" type="line"/>
      <point x="583.9" y="1495.6" type="line"/>
      <point x="320.1" y="1495.6" type="line"/>
    </contour>
  </outline>
</glyph>
<glyph name="paragraph" format="1">
  <advance width="1069.9"/>
  <unicode hex="00B6"/>
  <outline>
    <contour>
      <point x="434.1" y="-48.6" type="line"/>
      <point x="583.7" y="-48.6" type="line"/>
      <point x="583.7" y="1311.9" type="line"/>
      <point x="748.1" y="1311.9" type="line"/>
      <point x="748.1" y="-48.6" type="line"/>
      <point x="897.7" y="-48.6" type="line"/>
      <point x="897.7" y="1311.9" type="line"/>
      <point x="973.2" y="1311.9" type="line"/>
      <point x="973.2" y="1462.9" type="line"/>
      <point x="536.4" y="1462.9" type="line" smooth="yes"/>
      <point x="241.5" y="1462.9"/>
      <point x="82.6" y="1348.7"/>
      <point x="82.6" y="1138.1" type="curve" smooth="yes"/>
      <point x="82.6" y="959.5"/>
      <point x="204.0" y="824.8"/>
      <point x="434.1" y="824.8" type="curve"/>
    </contour>
  </outline>
</glyph>
<glyph name="cedilla" format="1">
  <advance width="540.4"/>
  <unicode hex="00B8"/>
  <outline>
    <contour>
      <point x="81.0" y="-390.3" type="line"/>
      <point x="263.5" y="-390.3" type="line"/>
      <point x="312.0" y="1.2" type="line"/>
      <point x="188.3" y="1.2" type="line"/>
    </contour>
  </outline>
</glyph>
<glyph name="uni00B9" format="1">
  <advance width="718.3"/>
  <unicode hex="00B9"/>
  <outline>
    <contour>
      <point x="161.4" y="603.0" type="line"/>
      <point x="639.1" y="603.0" type="line"/>
      <point x="639.1" y="746.4" type="line"/>
      <point x="493.1" y="746.4" type="line"/>
      <point x="493.1" y="1444.3" type="line"/>
      <point x="351.8" y="1445.0" type="line"/>
      <point x="340.1" y="1433.3"/>
      <point x="164.2" y="1343.7"/>
      <point x="149.5" y="1340.4" type="curve"/>
      <point x="149.5" y="1186.3" type="line"/>
      <point x="166.0" y="1189.9"/>
      <point x="276.1" y="1238.5"/>
      <point x="312.4" y="1257.9" type="curve"/>
      <point x="312.4" y="746.4" type="line"/>
      <point x="161.4" y="746.4" type="line"/>
    </contour>
  </outline>
</glyph>
<glyph name="ordmasculine" format="1">
  <advance width="860"/>
  <unicode hex="00BA"/>
  <outline>
    <contour>
      <point x="193" y="1198" type="curve" smooth="yes"/>
      <point x="193" y="1364"/>
      <point x="273" y="1508"/>
      <point x="430" y="1508" type="curve" smooth="yes"/>
      <point x="592" y="1508"/>
      <point x="676" y="1362"/>
      <point x="676" y="1195" type="curve" smooth="yes"/>
      <point x="676" y="1033"/>
      <point x="596" y="891"/>
      <point x="430" y="891" type="curve" smooth="yes"/>
      <point x="272" y="891"/>
      <point x="193" y="1035"/>
    </contour>
    <contour>
      <point x="769" y="1197" type="curve" smooth="yes"/>
      <point x="769" y="1420"/>
      <point x="648" y="1580"/>
      <point x="430" y="1580" type="curve" smooth="yes"/>
      <point x="218" y="1580"/>
      <point x="92" y="1417"/>
      <point x="92" y="1197" type="curve" smooth="yes"/>
      <point x="92" y="981"/>
      <point x="218" y="820"/>
      <point x="430" y="820" type="curve" smooth="yes"/>
      <point x="630" y="820"/>
      <point x="769" y="984"/>
    </contour>
  </outline>
</glyph>
<glyph name="guillemotright" format="1">
  <advance width="1009.7"/>
  <unicode hex="00BB"/>
  <outline>
    <contour>
      <point x="651.2" y="950.8" type="line"/>
      <point x="482.9" y="906.6" type="line"/>
      <point x="737.8" y="542.3" type="line"/>
      <point x="478.0" y="180.8" type="line"/>
      <point x="648.2" y="135.3" type="line"/>
      <point x="947.9" y="545.3" type="line"/>
    </contour>
    <contour>
      <point x="272.4" y="950.8" type="line"/>
      <point x="102.7" y="906.6" type="line"/>
      <point x="361.1" y="542.3" type="line"/>
      <point x="98.9" y="180.8" type="line"/>
      <point x="270.8" y="135.3" type="line"/>
      <point x="569.1" y="545.3" type="line"/>
    </contour>
  </outline>
</glyph>
<glyph name="onequarter" format="1">
  <advance width="1581"/>
  <unicode hex="00BC"/>
  <outline>
    <contour>
      <point x="77" y="601" type="line"/>
      <point x="535" y="601" type="line"/>
      <point x="535" y="742" type="line"/>
      <point x="398" y="742" type="line"/>
      <point x="398" y="1477" type="line"/>
      <point x="263" y="1477" type="line"/>
      <point x="251" y="1465"/>
      <point x="79" y="1376"/>
      <point x="63" y="1370" type="curve"/>
      <point x="63" y="1228" type="line"/>
      <point x="78" y="1233"/>
      <point x="186" y="1281"/>
      <point x="223" y="1301" type="curve"/>
      <point x="223" y="742" type="line"/>
      <point x="77" y="742" type="line"/>
    </contour>
    <contour>
      <point x="1311" y="7" type="line"/>
      <point x="1462" y="7" type="line"/>
      <point x="1463" y="181" type="line"/>
      <point x="1581" y="181" type="line"/>
      <point x="1576" y="312" type="line"/>
      <point x="1464" y="312" type="line"/>
      <point x="1464" y="855" type="line"/>
      <point x="1301" y="855" type="line"/>
      <point x="927" y="309" type="line"/>
      <point x="927" y="181" type="line"/>
      <point x="1311" y="181" type="line"/>
    </contour>
    <contour>
      <point x="289" y="0" type="line"/>
      <point x="470" y="0" type="line"/>
      <point x="1423" y="1471" type="line"/>
      <point x="1247" y="1471" type="line"/>
    </contour>
    <contour>
      <point x="1114" y="312" type="line"/>
      <point x="1310" y="628" type="line"/>
      <point x="1310" y="312" type="line"/>
    </contour>
  </outline>
</glyph>
<glyph name="onehalf" format="1">
  <advance width="1647"/>
  <unicode hex="00BD"/>
  <outline>
    <contour>
      <point x="108" y="609" type="line"/>
      <point x="544" y="609" type="line"/>
      <point x="544" y="741" type="line"/>
      <point x="414" y="741" type="line"/>
      <point x="414" y="1477" type="line"/>
      <point x="263" y="1477" type="line"/>
      <point x="251" y="1465"/>
      <point x="110" y="1380"/>
      <point x="92" y="1371" type="curve"/>
      <point x="92" y="1226" type="line"/>
      <point x="105" y="1233"/>
      <point x="203" y="1287"/>
      <point x="239" y="1309" type="curve"/>
      <point x="239" y="741" type="line"/>
      <point x="108" y="741" type="line"/>
    </contour>
    <contour>
      <point x="1049" y="-20" type="line"/>
      <point x="1590" y="-20" type="line"/>
      <point x="1603" y="115" type="line"/>
      <point x="1278" y="115" type="line"/>
      <point x="1464" y="276"/>
      <point x="1607" y="386"/>
      <point x="1607" y="574" type="curve" smooth="yes"/>
      <point x="1607" y="745"/>
      <point x="1468" y="840"/>
      <point x="1324" y="840" type="curve" smooth="yes"/>
      <point x="1203" y="840"/>
      <point x="1092" y="791"/>
      <point x="1034" y="700" type="curve"/>
      <point x="1111" y="595" type="line"/>
      <point x="1161" y="663"/>
      <point x="1240" y="695"/>
      <point x="1313" y="695" type="curve" smooth="yes"/>
      <point x="1379" y="695"/>
      <point x="1444" y="651"/>
      <point x="1444" y="567" type="curve" smooth="yes"/>
      <point x="1444" y="438"/>
      <point x="1122" y="186"/>
      <point x="1049" y="112" type="curve"/>
    </contour>
    <contour>
      <point x="281" y="14" type="line"/>
      <point x="463" y="14" type="line"/>
      <point x="1419" y="1471" type="line"/>
      <point x="1239" y="1471" type="line"/>
    </contour>
  </outline>
</glyph>
<glyph name="threequarters" format="1">
  <advance width="1569"/>
  <unicode hex="00BE"/>
  <outline>
    <contour>
      <point x="328" y="613" type="curve" smooth="yes"/>
      <point x="480" y="613"/>
      <point x="616" y="704"/>
      <point x="616" y="873" type="curve" smooth="yes"/>
      <point x="616" y="965"/>
      <point x="558" y="1039"/>
      <point x="476" y="1072" type="curve"/>
      <point x="574" y="1108"/>
      <point x="596" y="1200"/>
      <point x="596" y="1238" type="curve" smooth="yes"/>
      <point x="596" y="1395"/>
      <point x="464" y="1468"/>
      <point x="332" y="1468" type="curve" smooth="yes"/>
      <point x="237" y="1468"/>
      <point x="128" y="1434"/>
      <point x="65" y="1375" type="curve"/>
      <point x="130" y="1270" type="line"/>
      <point x="170" y="1303"/>
      <point x="254" y="1331"/>
      <point x="322" y="1331" type="curve" smooth="yes"/>
      <point x="393" y="1331"/>
      <point x="432" y="1295"/>
      <point x="432" y="1233" type="curve" smooth="yes"/>
      <point x="432" y="1168"/>
      <point x="380" y="1129"/>
      <point x="276" y="1129" type="curve" smooth="yes"/>
      <point x="196" y="1129" type="line"/>
      <point x="196" y="993" type="line"/>
      <point x="277" y="994" type="line" smooth="yes"/>
      <point x="386" y="994"/>
      <point x="453" y="955"/>
      <point x="453" y="876" type="curve" smooth="yes"/>
      <point x="453" y="790"/>
      <point x="398" y="750"/>
      <point x="318" y="750" type="curve" smooth="yes"/>
      <point x="257" y="750"/>
      <point x="172" y="773"/>
      <point x="127" y="813" type="curve"/>
      <point x="71" y="696" type="line"/>
      <point x="138" y="639"/>
      <point x="243" y="613"/>
    </contour>
    <contour>
      <point x="1276" y="15" type="line"/>
      <point x="1427" y="15" type="line"/>
      <point x="1428" y="194" type="line"/>
      <point x="1546" y="194" type="line"/>
      <point x="1541" y="324" type="line"/>
      <point x="1429" y="324" type="line"/>
      <point x="1429" y="871" type="line"/>
      <point x="1265" y="871" type="line"/>
      <point x="893" y="318" type="line"/>
      <point x="893" y="194" type="line"/>
      <point x="1276" y="194" type="line"/>
    </contour>
    <contour>
      <point x="283" y="14" type="line"/>
      <point x="466" y="14" type="line"/>
      <point x="1417" y="1471" type="line"/>
      <point x="1239" y="1471" type="line"/>
    </contour>
    <contour>
      <point x="1078" y="324" type="line"/>
      <point x="1275" y="640" type="line"/>
      <point x="1275" y="324" type="line"/>
    </contour>
  </outline>
</glyph>
<glyph name="AE" format="1">
  <advance width="1719"/>
  <unicode hex="00C6"/>
  <outline>
    <contour>
      <point x="13" y="0" type="line"/>
      <point x="254" y="0" type="line"/>
      <point x="462" y="488" type="line"/>
      <point x="319" y="424" type="line"/>
      <point x="921" y="424" type="line"/>
      <point x="921" y="424"/>
      <point x="921" y="1460"/>
      <point x="921" y="1460" type="curve"/>
      <point x="641" y="1460" type="line"/>
    </contour>
    <contour>
      <point x="472" y="521" type="line"/>
      <point x="849" y="1449" type="line"/>
      <point x="823" y="1449" type="line"/>
      <point x="823" y="522" type="line"/>
      <point x="871" y="594" type="line"/>
      <point x="369" y="594" type="line"/>
    </contour>
    <contour>
      <point x="773" y="0" type="line"/>
      <point x="1635" y="0" type="line"/>
      <point x="1643" y="191" type="line"/>
      <point x="943" y="191" type="line"/>
      <point x="1013" y="122" type="line"/>
      <point x="1013" y="738" type="line"/>
      <point x="942" y="667" type="line"/>
      <point x="1573" y="667" type="line"/>
      <point x="1573" y="854" type="line"/>
      <point x="943" y="854" type="line"/>
      <point x="1013" y="785" type="line"/>
      <point x="1013" y="1342" type="line"/>
      <point x="943" y="1274" type="line"/>
      <point x="1616" y="1274" type="line"/>
      <point x="1626" y="1460" type="line"/>
      <point x="773" y="1460" type="line"/>
    </contour>
  </outline>
</glyph>
<glyph name="Eth" format="1">
  <advance width="1483.8"/>
  <unicode hex="00D0"/>
  <outline>
    <contour>
      <point x="660.9" y="800.8" type="line"/>
      <point x="35.1" y="800.8" type="line"/>
      <point x="35.1" y="648.3" type="line"/>
      <point x="660.9" y="648.3" type="line"/>
    </contour>
    <component base="D"/>
  </outline>
</glyph>
<glyph name="multiply" format="1">
  <advance width="1082.5"/>
  <unicode hex="00D7"/>
  <outline>
    <contour>
      <point x="815.5" y="164.5" type="line"/>
      <point x="931.1" y="286.9" type="line"/>
      <point x="931.1" y="286.9"/>
      <point x="708.3" y="520.7"/>
      <point x="660.7" y="568.3" type="curve"/>
      <point x="929.9" y="849.0" type="line"/>
      <point x="810.9" y="968.8" type="line"/>
      <point x="542.1" y="689.8" type="line"/>
      <point x="270.6" y="970.6" type="line"/>
      <point x="155.3" y="851.2" type="line"/>
      <point x="422.4" y="568.6" type="line"/>
      <point x="151.4" y="285.3" type="line"/>
      <point x="266.4" y="164.2" type="line"/>
      <point x="542.1" y="446.4" type="line"/>
    </contour>
  </outline>
</glyph>
<glyph name="Oslash" format="1">
  <advance width="1585.4"/>
  <unicode hex="00D8"/>
  <outline>
    <contour>
      <point x="532.1" y="-234.2" type="line"/>
      <point x="1251.0" y="1603.3" type="line"/>
      <point x="1128.6" y="1649.3" type="line"/>
      <point x="415.4" y="-193.2" type="line"/>
    </contour>
    <component base="O"/>
  </outline>
</glyph>
<glyph name="germandbls" format="1">
  <advance width="1190"/>
  <unicode hex="00DF"/>
  <outline>
    <contour>
      <point x="381" y="0" type="line"/>
      <point x="158" y="0" type="line"/>
      <point x="158" y="1017" type="line" smooth="yes"/>
      <point x="158" y="1306"/>
      <point x="304" y="1481"/>
      <point x="604" y="1481" type="curve" smooth="yes"/>
      <point x="834" y="1481"/>
      <point x="1013" y="1370"/>
      <point x="1013" y="1157" type="curve" smooth="yes"/>
      <point x="1013" y="924"/>
      <point x="822" y="854"/>
      <point x="822" y="773" type="curve" smooth="yes"/>
      <point x="822" y="667"/>
      <point x="1189" y="607"/>
      <point x="1189" y="304" type="curve" smooth="yes"/>
      <point x="1189" y="101"/>
      <point x="1057" y="-20"/>
      <point x="842" y="-20" type="curve" smooth="yes"/>
      <point x="732" y="-20"/>
      <point x="610" y="8"/>
      <point x="507" y="52" type="curve"/>
      <point x="562" y="213" type="line"/>
      <point x="610" y="188"/>
      <point x="708" y="156"/>
      <point x="802" y="156" type="curve" smooth="yes"/>
      <point x="904" y="156"/>
      <point x="964" y="208"/>
      <point x="964" y="307" type="curve" smooth="yes"/>
      <point x="964" y="502"/>
      <point x="606" y="559"/>
      <point x="606" y="750" type="curve" smooth="yes"/>
      <point x="606" y="917"/>
      <point x="807" y="970"/>
      <point x="807" y="1152" type="curve" smooth="yes"/>
      <point x="807" y="1247"/>
      <point x="735" y="1312"/>
      <point x="614" y="1312" type="curve" smooth="yes"/>
      <point x="440" y="1312"/>
      <point x="381" y="1215"/>
      <point x="381" y="1016" type="curve" smooth="yes"/>
    </contour>
  </outline>
</glyph>
<glyph name="ae" format="1">
  <advance width="1693"/>
  <unicode hex="00E6"/>
  <outline>
    <contour>
      <point x="426" y="-19" type="curve" smooth="yes"/>
      <point x="604" y="-19"/>
      <point x="785" y="55"/>
      <point x="874" y="144" type="curve"/>
      <point x="952" y="40"/>
      <point x="1060" y="-19"/>
      <point x="1233" y="-19" type="curve" smooth="yes"/>
      <point x="1402" y="-19"/>
      <point x="1509" y="18"/>
      <point x="1601" y="85" type="curve"/>
      <point x="1536" y="232" type="line"/>
      <point x="1457" y="185"/>
      <point x="1366" y="149"/>
      <point x="1250" y="149" type="curve" smooth="yes"/>
      <point x="1068" y="150"/>
      <point x="968" y="244"/>
      <point x="958" y="477" type="curve"/>
      <point x="1495" y="477"/>
      <point x="1629" y="611"/>
      <point x="1629" y="784" type="curve" smooth="yes"/>
      <point x="1629" y="944"/>
      <point x="1529" y="1115"/>
      <point x="1243" y="1115" type="curve" smooth="yes"/>
      <point x="1089" y="1115"/>
      <point x="940" y="1036"/>
      <point x="880" y="918" type="curve"/>
      <point x="846" y="1053"/>
      <point x="727" y="1115"/>
      <point x="562" y="1115" type="curve" smooth="yes"/>
      <point x="408" y="1115"/>
      <point x="233" y="1070"/>
      <point x="138" y="1016" type="curve"/>
      <point x="202" y="866" type="line"/>
      <point x="277" y="900"/>
      <point x="426" y="946"/>
      <point x="543" y="946" type="curve"/>
      <point x="693" y="942"/>
      <point x="743" y="872"/>
      <point x="743" y="736" type="curve" smooth="yes"/>
      <point x="743" y="628" type="line"/>
      <point x="613" y="628" type="line" smooth="yes"/>
      <point x="289" y="628"/>
      <point x="96" y="549"/>
      <point x="96" y="313" type="curve" smooth="yes"/>
      <point x="96" y="111"/>
      <point x="231" y="-19"/>
    </contour>
    <contour>
      <point x="457" y="141" type="curve" smooth="yes"/>
      <point x="360" y="141"/>
      <point x="303" y="193"/>
      <point x="303" y="305" type="curve" smooth="yes"/>
      <point x="303" y="415"/>
      <point x="375" y="478"/>
      <point x="606" y="478" type="curve" smooth="yes"/>
      <point x="747" y="478" type="line"/>
      <point x="750" y="406"/>
      <point x="771" y="316"/>
      <point x="789" y="272" type="curve"/>
      <point x="704" y="196"/>
      <point x="563" y="141"/>
    </contour>
    <contour>
      <point x="960" y="626" type="curve"/>
      <point x="983" y="869"/>
      <point x="1119" y="961"/>
      <point x="1260" y="961" type="curve" smooth="yes"/>
      <point x="1385" y="961"/>
      <point x="1453" y="895"/>
      <point x="1453" y="793" type="curve" smooth="yes"/>
      <point x="1453" y="680"/>
      <point x="1328" y="626"/>
    </contour>
  </outline>
</glyph>
<glyph name="eth" format="1">
  <advance width="1147.6"/>
  <unicode hex="00F0"/>
  <outline>
    <contour>
      <point x="586.9" y="-21.3" type="curve" smooth="yes"/>
      <point x="905.8" y="-21.3"/>
      <point x="1089.2" y="169.8"/>
      <point x="1089.2" y="457.6" type="curve"/>
      <point x="1088.5" y="595.2"/>
      <point x="1051.9" y="724.5"/>
      <point x="996.5" y="823.6" type="curve"/>
      <point x="924.7" y="949.2"/>
      <point x="822.5" y="1067.4"/>
      <point x="680.3" y="1222.8" type="curve"/>
      <point x="900.2" y="1307.7" type="line"/>
      <point x="841.4" y="1455.8" type="line"/>
      <point x="571.2" y="1348.8" type="line"/>
      <point x="445.6" y="1472.2" type="line"/>
      <point x="192.3" y="1472.2" type="line"/>
      <point x="396.3" y="1276.2" type="line"/>
      <point x="205.7" y="1201.1" type="line"/>
      <point x="262.5" y="1054.1" type="line"/>
      <point x="505.5" y="1149.2" type="line"/>
      <point x="603.1" y="1052.8"/>
      <point x="703.5" y="936.1"/>
      <point x="749.2" y="865.4" type="curve"/>
      <point x="702.7" y="890.4"/>
      <point x="640.7" y="922.4"/>
      <point x="555.2" y="922.4" type="curve" smooth="yes"/>
      <point x="274.8" y="922.4"/>
      <point x="81.7" y="738.6"/>
      <point x="81.7" y="462.2" type="curve" smooth="yes"/>
      <point x="81.7" y="190.4"/>
      <point x="274.2" y="-21.3"/>
    </contour>
    <contour>
      <point x="593.6" y="149.3" type="curve" smooth="yes"/>
      <point x="395.7" y="149.3"/>
      <point x="289.8" y="291.9"/>
      <point x="289.8" y="462.3" type="curve" smooth="yes"/>
      <point x="289.8" y="642.4"/>
      <point x="397.5" y="766.7"/>
      <point x="587.3" y="766.7" type="curve" smooth="yes"/>
      <point x="782.2" y="766.7"/>
      <point x="892.1" y="631.8"/>
      <point x="892.1" y="464.0" type="curve" smooth="yes"/>
      <point x="892.1" y="274.0"/>
      <point x="787.3" y="149.3"/>
    </contour>
  </outline>
</glyph>
<glyph name="divide" format="1">
  <advance width="1241"/>
  <unicode hex="00F7"/>
  <outline>
    <contour>
      <point x="497" y="25" type="line"/>
      <point x="740" y="25" type="line"/>
      <point x="740" y="273" type="line"/>
      <point x="497" y="273" type="line"/>
    </contour>
    <contour>
      <point x="108" y="488" type="line"/>
      <point x="1128" y="488" type="line"/>
      <point x="1128" y="661" type="line"/>
      <point x="108" y="661" type="line"/>
    </contour>
    <contour>
      <point x="497" y="869" type="line"/>
      <point x="746" y="869" type="line"/>
      <point x="746" y="1108" type="line"/>
      <point x="497" y="1108" type="line"/>
    </contour>
  </outline>
</glyph>
<glyph name="oslash" format="1">
  <advance width="1174.0"/>
  <unicode hex="00F8"/>
  <outline>
    <contour>
      <point x="291.2" y="-148.9" type="line"/>
      <point x="1010.4" y="1169.9" type="line"/>
      <point x="935.0" y="1212.4" type="line"/>
      <point x="221.8" y="-106.1" type="line"/>
    </contour>
    <component base="o"/>
  </outline>
</glyph>
<glyph name="Dcroat" format="1">
  <advance width="1480.3"/>
  <unicode hex="0110"/>
  <outline>
    <contour>
      <point x="60.3" y="688.9" type="line"/>
      <point x="60.3" y="778.5" type="line"/>
      <point x="574.3" y="778.5" type="line"/>
      <point x="574.3" y="688.9" type="line"/>
    </contour>
    <component base="D"/>
  </outline>
</glyph>
<glyph name="Hbar" format="1">
  <advance width="1421.1"/>
  <unicode hex="0126"/>
  <outline>
    <contour>
      <point x="164.9" y="0.0" type="line"/>
      <point x="164.9" y="1114.4" type="line"/>
      <point x="81.4" y="1114.4" type="line"/>
      <point x="81.4" y="1236.8" type="line"/>
      <point x="164.9" y="1236.8" type="line"/>
      <point x="164.9" y="1423.6" type="line"/>
      <point x="381.4" y="1423.6" type="line"/>
      <point x="381.4" y="1236.8" type="line"/>
      <point x="1093.4" y="1236.8" type="line"/>
      <point x="1093.4" y="1423.6" type="line"/>
      <point x="1311.3" y="1423.6" type="line"/>
      <point x="1311.3" y="1236.8" type="line"/>
      <point x="1394.8" y="1236.8" type="line"/>
      <point x="1394.8" y="1114.4" type="line"/>
      <point x="1311.3" y="1114.4" type="line"/>
      <point x="1311.3" y="0.0" type="line"/>
      <point x="1093.4" y="0.0" type="line"/>
      <point x="1093.4" y="648.7" type="line"/>
      <point x="381.4" y="648.7" type="line"/>
      <point x="381.4" y="0.0" type="line"/>
    </contour>
    <contour>
      <point x="381.4" y="823.1" type="line"/>
      <point x="1093.4" y="823.1" type="line"/>
      <point x="1093.4" y="1114.4" type="line"/>
      <point x="381.4" y="1114.4" type="line"/>
    </contour>
  </outline>
</glyph>
<glyph name="hbar" format="1">
  <advance width="1113.1"/>
  <unicode hex="0127"/>
  <outline>
    <contour>
      <point x="153.3" y="0.0" type="line"/>
      <point x="361.3" y="0.0" type="line"/>
      <point x="361.3" y="721.5" type="line"/>
      <point x="396.0" y="816.2"/>
      <point x="513.1" y="916.9"/>
      <point x="656.7" y="916.9" type="curve" smooth="yes"/>
      <point x="811.9" y="916.9"/>
      <point x="842.7" y="822.9"/>
      <point x="842.7" y="615.2" type="curve" smooth="yes"/>
      <point x="842.7" y="0.0" type="line"/>
      <point x="1050.0" y="0.0" type="line"/>
      <point x="1050.0" y="643.9" type="line" smooth="yes"/>
      <point x="1050.0" y="943.7"/>
      <point x="923.8" y="1086.3"/>
      <point x="712.3" y="1086.3" type="curve" smooth="yes"/>
      <point x="565.8" y="1086.3"/>
      <point x="447.5" y="1034.3"/>
      <point x="361.3" y="940.6" type="curve"/>
      <point x="361.3" y="1195.4" type="line"/>
      <point x="630.7" y="1195.4" type="line"/>
      <point x="630.7" y="1325.1" type="line"/>
      <point x="361.3" y="1325.1" type="line"/>
      <point x="361.3" y="1457.5" type="line"/>
      <point x="153.3" y="1438.2" type="line"/>
      <point x="153.3" y="1325.1" type="line"/>
      <point x="61.7" y="1325.1" type="line"/>
      <point x="61.7" y="1195.4" type="line"/>
      <point x="153.3" y="1195.4" type="line"/>
    </contour>
  </outline>
</glyph>
<glyph name="dotlessi" format="1">
  <advance width="481.1"/>
  <unicode hex="0131"/>
  <outline>
    <contour>
      <point x="147.6" y="0.0" type="line"/>
      <point x="362.9" y="0.0" type="line"/>
      <point x="362.9" y="1063.4" type="line"/>
      <point x="147.6" y="1063.4" type="line"/>
    </contour>
  </outline>
</glyph>
<glyph name="kgreenlandic" format="1">
  <advance width="1069"/>
  <unicode hex="0138"/>
  <outline>
    <contour>
      <point x="128" y="0" type="line"/>
      <point x="350" y="0" type="line"/>
      <point x="350" y="429" type="line"/>
      <point x="296" y="316" type="line"/>
      <point x="492" y="500" type="line"/>
      <point x="420" y="500" type="line"/>
      <point x="820" y="0" type="line"/>
      <point x="1083" y="0" type="line"/>
      <point x="578" y="623" type="line"/>
      <point x="568" y="521" type="line"/>
      <point x="1061" y="1058" type="line"/>
      <point x="786" y="1058" type="line"/>
      <point x="302" y="522" type="line"/>
      <point x="343" y="522" type="line"/>
      <point x="350" y="783" type="line"/>
      <point x="350" y="1058" type="line"/>
      <point x="128" y="1058" type="line"/>
    </contour>
  </outline>
</glyph>
<glyph name="Eng" format="1">
  <advance width="1297.9"/>
  <unicode hex="014A"/>
  <outline>
    <contour>
      <point x="796.6" y="-318.2" type="curve" smooth="yes"/>
      <point x="779.8" y="-318.2"/>
      <point x="734.5" y="-317.6"/>
      <point x="654.3" y="-309.7" type="curve"/>
      <point x="633.0" y="-119.8" type="line"/>
      <point x="722.4" y="-125.2"/>
      <point x="762.6" y="-126.2"/>
      <point x="775.4" y="-126.2" type="curve" smooth="yes"/>
      <point x="995.8" y="-126.2"/>
      <point x="1020.8" y="-62.8"/>
      <point x="1020.8" y="155.9" type="curve" smooth="yes"/>
      <point x="1020.8" y="938.2" type="line" smooth="yes"/>
      <point x="1020.8" y="1178.7"/>
      <point x="953.7" y="1262.8"/>
      <point x="770.6" y="1262.8" type="curve" smooth="yes"/>
      <point x="607.1" y="1262.8"/>
      <point x="444.3" y="1172.3"/>
      <point x="356.8" y="1031.7" type="curve"/>
      <point x="356.8" y="0.0" type="line"/>
      <point x="125.3" y="0.0" type="line"/>
      <point x="124.1" y="1427.3" type="line"/>
      <point x="332.5" y="1427.3" type="line"/>
      <point x="352.5" y="1247.5" type="line"/>
      <point x="491.3" y="1395.6"/>
      <point x="668.4" y="1449.9"/>
      <point x="827.3" y="1449.9" type="curve" smooth="yes"/>
      <point x="1108.7" y="1449.9"/>
      <point x="1252.7" y="1265.7"/>
      <point x="1252.7" y="946.5" type="curve" smooth="yes"/>
      <point x="1252.7" y="154.8" type="line" smooth="yes"/>
      <point x="1252.7" y="-147.0"/>
      <point x="1151.3" y="-318.2"/>
    </contour>
  </outline>
</glyph>
<glyph name="eng" format="1">
  <advance width="1093.5"/>
  <unicode hex="014B"/>
  <outline>
    <contour>
      <point x="619.2" y="-320.5" type="line"/>
      <point x="685.8" y="-320.5" type="line" smooth="yes"/>
      <point x="994.2" y="-320.5"/>
      <point x="1047.3" y="-167.9"/>
      <point x="1048.0" y="129.4" type="curve"/>
      <point x="1048.0" y="661.2" type="line" smooth="yes"/>
      <point x="1048.0" y="935.7"/>
      <point x="936.3" y="1087.6"/>
      <point x="690.8" y="1087.6" type="curve" smooth="yes"/>
      <point x="541.0" y="1087.6"/>
      <point x="433.6" y="1025.3"/>
      <point x="353.5" y="927.5" type="curve"/>
      <point x="331.2" y="1063.4" type="line"/>
      <point x="144.6" y="1063.4" type="line"/>
      <point x="144.6" y="0.0" type="line"/>
      <point x="369.5" y="0.0" type="line"/>
      <point x="369.5" y="550.7" type="line" smooth="yes"/>
      <point x="369.5" y="622.7"/>
      <point x="372.5" y="686.0"/>
      <point x="382.3" y="738.8" type="curve"/>
      <point x="417.3" y="840.1"/>
      <point x="500.3" y="915.1"/>
      <point x="639.9" y="915.1" type="curve" smooth="yes"/>
      <point x="788.1" y="915.1"/>
      <point x="822.4" y="817.9"/>
      <point x="823.1" y="652.3" type="curve"/>
      <point x="823.1" y="79.2" type="line" smooth="yes"/>
      <point x="823.1" y="-109.8"/>
      <point x="807.2" y="-141.7"/>
      <point x="651.6" y="-141.7" type="curve" smooth="yes"/>
      <point x="600.3" y="-141.7" type="line"/>
    </contour>
  </outline>
</glyph>
<glyph name="OE" format="1">
  <advance width="1930.7"/>
  <unicode hex="0152"/>
  <outline>
    <contour>
      <point x="791.5" y="-20.4" type="curve" smooth="yes"/>
      <point x="727.4" y="-20.4"/>
      <point x="749.1" y="101.0"/>
      <point x="805.1" y="279.7" type="curve"/>
      <point x="809.6" y="407.2"/>
      <point x="888.8" y="453.1"/>
      <point x="1004.3" y="453.1" type="curve"/>
      <point x="1050.8" y="453.1"/>
      <point x="1720.0" y="437.2"/>
      <point x="1737.7" y="417.1" type="curve"/>
      <point x="1751.0" y="593.6" type="line"/>
      <point x="1455.9" y="593.6" type="line"/>
      <point x="1451.7" y="848.0" type="line"/>
      <point x="1730.5" y="848.0" type="line"/>
      <point x="1730.5" y="827.2" type="line"/>
      <point x="1439.4" y="827.2" type="line"/>
      <point x="1439.4" y="1042.4" type="line"/>
      <point x="1749.4" y="1042.4" type="line"/>
      <point x="1762.7" y="1015.3" type="line"/>
      <point x="1280.6" y="1015.3" type="line"/>
      <point x="1277.0" y="938.5" type="line"/>
      <point x="1214.7" y="978.4"/>
      <point x="971.2" y="1000.8"/>
      <point x="881.6" y="1000.8" type="curve" smooth="yes"/>
      <point x="607.2" y="1000.8"/>
      <point x="400.7" y="814.7"/>
      <point x="398.6" y="522.8" type="curve"/>
      <point x="395.0" y="215.1"/>
      <point x="538.0" y="-20.4"/>
    </contour>
    <contour>
      <point x="791.3" y="160.0" type="curve" smooth="yes"/>
      <point x="622.1" y="160.7"/>
      <point x="574.9" y="349.0"/>
      <point x="584.8" y="540.7" type="curve"/>
      <point x="586.2" y="729.0"/>
      <point x="689.8" y="1241.4"/>
      <point x="881.6" y="1241.4" type="curve" smooth="yes"/>
      <point x="961.5" y="1258.5"/>
      <point x="1002.7" y="1236.2"/>
      <point x="1012.4" y="1190.0" type="curve"/>
      <point x="909.5" y="1190.0"/>
      <point x="845.0" y="559.2"/>
      <point x="841.4" y="444.3" type="curve"/>
      <point x="796.6" y="286.8"/>
      <point x="758.7" y="161.8"/>
    </contour>
  </outline>
</glyph>
<glyph name="OE" format="1">
  <advance width="1968"/>
  <unicode hex="0152"/>
  <outline>
    <contour>
      <point x="807" y="-21" type="curve"/>
      <point x="742" y="-21"/>
      <point x="764" y="103"/>
      <point x="821" y="285" type="curve"/>
      <point x="826" y="415"/>
      <point x="906" y="462"/>
      <point x="1024" y="462" type="curve" smooth="yes"/>
      <point x="1071" y="462"/>
      <point x="1754" y="446"/>
      <point x="1772" y="425" type="curve"/>
      <point x="1786" y="605" type="line"/>
      <point x="1485" y="605" type="line"/>
      <point x="1481" y="865" type="line"/>
      <point x="1765" y="865" type="line"/>
      <point x="1765" y="844" type="line"/>
      <point x="1468" y="844" type="line"/>
      <point x="1468" y="1063" type="line"/>
      <point x="1784" y="1063" type="line"/>
      <point x="1798" y="1036" type="line"/>
      <point x="1306" y="1036" type="line"/>
      <point x="1303" y="957" type="line"/>
      <point x="1239" y="998"/>
      <point x="990" y="1021"/>
      <point x="899" y="1021" type="curve" smooth="yes"/>
      <point x="619" y="1021"/>
      <point x="409" y="831"/>
      <point x="407" y="533" type="curve"/>
      <point x="403" y="219"/>
      <point x="548" y="-21"/>
    </contour>
    <contour>
      <point x="807" y="163" type="curve"/>
      <point x="634" y="164"/>
      <point x="586" y="356"/>
      <point x="596" y="552" type="curve"/>
      <point x="597" y="744"/>
      <point x="703" y="1266"/>
      <point x="899" y="1266" type="curve"/>
      <point x="980" y="1283"/>
      <point x="1023" y="1261"/>
      <point x="1033" y="1214" type="curve"/>
      <point x="928" y="1214"/>
      <point x="862" y="570"/>
      <point x="858" y="453" type="curve"/>
      <point x="812" y="292"/>
      <point x="774" y="165"/>
    </contour>
  </outline>
</glyph>
<glyph name="uni0237" format="1">
  <advance width="516.4"/>
  <unicode hex="0237"/>
  <outline>
    <contour>
      <point x="-23.2" y="-422.3" type="line"/>
      <point x="37.1" y="-422.3" type="line" smooth="yes"/>
      <point x="336.9" y="-422.3"/>
      <point x="396.8" y="-303.6"/>
      <point x="396.8" y="-27.6" type="curve" smooth="yes"/>
      <point x="396.8" y="1070.1" type="line"/>
      <point x="167.7" y="1070.1" type="line"/>
      <point x="167.7" y="-43.3" type="line" smooth="yes"/>
      <point x="167.7" y="-200.1"/>
      <point x="170.2" y="-247.3"/>
      <point x="7.5" y="-247.3" type="curve" smooth="yes"/>
      <point x="-55.1" y="-247.3" type="line"/>
    </contour>
  </outline>
</glyph>
<glyph name="uni02BC" format="1">
  <advance width="410.5"/>
  <unicode hex="02BC"/>
  <outline>
    <contour>
      <point x="113.4" y="993.3" type="line"/>
      <point x="244.1" y="993.3" type="line"/>
      <point x="337.9" y="1473.0" type="line"/>
      <point x="157.7" y="1473.0" type="line"/>
    </contour>
  </outline>
</glyph>
<glyph name="uni02BC" format="1">
  <advance width="418"/>
  <unicode hex="02BC"/>
  <outline>
    <contour>
      <point x="116" y="1013" type="line"/>
      <point x="249" y="1013" type="line"/>
      <point x="345" y="1502" type="line"/>
      <point x="161" y="1502" type="line"/>
    </contour>
  </outline>
</glyph>
<glyph name="circumflex" format="1">
  <advance width="721.1"/>
  <unicode hex="02C6"/>
  <outline>
    <contour>
      <point x="40.4" y="1152.8" type="line"/>
      <point x="196.8" y="1152.8" type="line"/>
      <point x="349.7" y="1386.8" type="line"/>
      <point x="510.3" y="1152.8" type="line"/>
      <point x="669.9" y="1152.8" type="line"/>
      <point x="456.1" y="1533.8" type="line"/>
      <point x="258.2" y="1533.8" type="line"/>
    </contour>
  </outline>
</glyph>
<glyph name="caron" format="1">
  <advance width="719.7"/>
  <unicode hex="02C7"/>
  <outline>
    <contour>
      <point x="255.6" y="1175.9" type="line"/>
      <point x="448.6" y="1175.9" type="line"/>
      <point x="676.2" y="1533.8" type="line"/>
      <point x="502.3" y="1533.8" type="line"/>
      <point x="343.8" y="1316.6" type="line"/>
      <point x="203.5" y="1533.8" type="line"/>
      <point x="32.7" y="1533.8" type="line"/>
    </contour>
  </outline>
</glyph>
<glyph name="breve" format="1">
  <advance width="671.6"/>
  <unicode hex="02D8"/>
  <outline>
    <contour>
      <point x="334.1" y="1211.1" type="curve" smooth="yes"/>
      <point x="479.8" y="1211.1"/>
      <point x="596.4" y="1286.8"/>
      <point x="596.4" y="1457.2" type="curve"/>
      <point x="451.8" y="1457.2" type="line"/>
      <point x="451.8" y="1379.1"/>
      <point x="407.9" y="1348.0"/>
      <point x="334.1" y="1348.0" type="curve" smooth="yes"/>
      <point x="260.3" y="1348.0"/>
      <point x="218.5" y="1379.1"/>
      <point x="218.5" y="1457.2" type="curve"/>
      <point x="74.0" y="1457.2" type="line"/>
      <point x="74.0" y="1287.2"/>
      <point x="189.4" y="1211.1"/>
    </contour>
  </outline>
</glyph>
<glyph name="dotaccent" format="1">
  <advance width="427.5"/>
  <unicode hex="02D9"/>
  <outline>
    <contour>
      <point x="123.1" y="1227.9" type="line"/>
      <point x="306.8" y="1227.9" type="line"/>
      <point x="306.8" y="1428.7" type="line"/>
      <point x="123.1" y="1428.7" type="line"/>
    </contour>
  </outline>
</glyph>
<glyph name="ring" format="1">
  <advance width="591.0"/>
  <unicode hex="02DA"/>
  <outline>
    <contour>
      <point x="295.5" y="1242.6" type="curve" smooth="yes"/>
      <point x="237.0" y="1242.6"/>
      <point x="203.5" y="1287.6"/>
      <point x="203.5" y="1342.6" type="curve" smooth="yes"/>
      <point x="203.5" y="1394.1"/>
      <point x="239.8" y="1441.6"/>
      <point x="295.5" y="1441.6" type="curve" smooth="yes"/>
      <point x="352.6" y="1441.6"/>
      <point x="388.5" y="1394.8"/>
      <point x="388.5" y="1342.6" type="curve" smooth="yes"/>
      <point x="388.5" y="1288.3"/>
      <point x="352.6" y="1242.6"/>
    </contour>
    <contour>
      <point x="295.5" y="1149.5" type="curve" smooth="yes"/>
      <point x="418.2" y="1149.5"/>
      <point x="497.7" y="1239.1"/>
      <point x="497.7" y="1342.9" type="curve" smooth="yes"/>
      <point x="497.7" y="1446.0"/>
      <point x="420.3" y="1535.6"/>
      <point x="295.5" y="1535.6" type="curve" smooth="yes"/>
      <point x="172.1" y="1535.6"/>
      <point x="93.3" y="1446.7"/>
      <point x="93.3" y="1342.9" type="curve" smooth="yes"/>
      <point x="93.3" y="1239.1"/>
      <point x="172.8" y="1149.5"/>
    </contour>
  </outline>
</glyph>
<glyph name="ogonek" format="1">
  <advance width="542"/>
  <unicode hex="02DB"/>
  <outline>
    <contour>
      <point x="480" y="-396" type="curve"/>
      <point x="475" y="-265" type="line" smooth="yes"/>
      <point x="459" y="-272"/>
      <point x="404" y="-294"/>
      <point x="353" y="-294" type="curve" smooth="yes"/>
      <point x="310" y="-294"/>
      <point x="277" y="-263"/>
      <point x="277" y="-218" type="curve" smooth="yes"/>
      <point x="277" y="-151"/>
      <point x="335" y="-54"/>
      <point x="406" y="0" type="curve"/>
      <point x="305" y="0" type="line"/>
      <point x="216" y="-43"/>
      <point x="109" y="-140"/>
      <point x="109" y="-264" type="curve" smooth="yes"/>
      <point x="109" y="-372"/>
      <point x="192" y="-430"/>
      <point x="310" y="-430" type="curve" smooth="yes"/>
      <point x="368" y="-430"/>
      <point x="432" y="-415"/>
    </contour>
  </outline>
</glyph>
<glyph name="tilde" format="1">
  <advance width="769.2"/>
  <unicode hex="02DC"/>
  <outline>
    <contour>
      <point x="187.9" y="1203.0" type="line"/>
      <point x="200.3" y="1272.0"/>
      <point x="225.3" y="1297.8"/>
      <point x="259.2" y="1297.8" type="curve" smooth="yes"/>
      <point x="326.8" y="1297.8"/>
      <point x="432.0" y="1203.0"/>
      <point x="539.3" y="1203.0" type="curve" smooth="yes"/>
      <point x="655.9" y="1203.0"/>
      <point x="706.5" y="1311.2"/>
      <point x="706.5" y="1431.8" type="curve"/>
      <point x="594.0" y="1431.8" type="line"/>
      <point x="582.7" y="1370.4"/>
      <point x="562.8" y="1351.2"/>
      <point x="534.7" y="1351.2" type="curve" smooth="yes"/>
      <point x="477.1" y="1351.2"/>
      <point x="384.7" y="1432.1"/>
      <point x="259.0" y="1432.1" type="curve" smooth="yes"/>
      <point x="130.1" y="1432.1"/>
      <point x="76.6" y="1328.3"/>
      <point x="76.6" y="1203.0" type="curve"/>
    </contour>
  </outline>
</glyph>
<glyph name="hungarumlaut" format="1">
  <advance width="815.4"/>
  <unicode hex="02DD"/>
  <outline>
    <contour>
      <point x="122.7" y="1157.7" type="line"/>
      <point x="244.5" y="1157.7" type="line"/>
      <point x="528.7" y="1498.2" type="line"/>
      <point x="326.2" y="1498.2" type="line"/>
    </contour>
    <contour>
      <point x="388.2" y="1157.7" type="line"/>
      <point x="509.5" y="1157.7" type="line"/>
      <point x="816.0" y="1498.2" type="line"/>
      <point x="608.1" y="1498.2" type="line"/>
    </contour>
  </outline>
</glyph>
<glyph name="uni0307" format="1">
  <advance width="403.0"/>
  <unicode hex="0307"/>
  <outline>
    <contour>
      <point x="121.3" y="1202.5" type="line"/>
      <point x="305.0" y="1202.5" type="line"/>
      <point x="305.0" y="1408.9" type="line"/>
      <point x="121.3" y="1408.9" type="line"/>
    </contour>
  </outline>
</glyph>
<glyph name="uni0311" format="1">
  <advance width="650.8"/>
  <unicode hex="0311"/>
  <outline>
    <contour>
      <point x="77.4" y="1217.0" type="curve"/>
      <point x="221.7" y="1217.0" type="line"/>
      <point x="221.7" y="1293.6"/>
      <point x="274.1" y="1329.1"/>
      <point x="336.8" y="1329.1" type="curve" smooth="yes"/>
      <point x="399.6" y="1329.1"/>
      <point x="454.6" y="1294.0"/>
      <point x="454.6" y="1217.0" type="curve"/>
      <point x="599.5" y="1217.0" type="line"/>
      <point x="599.5" y="1379.6"/>
      <point x="467.5" y="1451.5"/>
      <point x="338.7" y="1451.5" type="curve" smooth="yes"/>
      <point x="209.1" y="1451.5"/>
      <point x="77.4" y="1379.2"/>
    </contour>
  </outline>
</glyph>
<glyph name="uni031B" format="1">
  <advance width="501.3"/>
  <unicode hex="031B"/>
  <outline>
    <contour>
      <point x="209.1" y="502.0" type="line"/>
      <point x="222.9" y="467.2"/>
      <point x="232.5" y="426.8"/>
      <point x="232.5" y="389.8" type="curve" smooth="yes"/>
      <point x="232.5" y="327.2"/>
      <point x="206.2" y="264.3"/>
      <point x="113.9" y="264.3" type="curve" smooth="yes"/>
      <point x="111.2" y="264.3"/>
      <point x="102.9" y="264.6"/>
      <point x="99.9" y="264.9" type="curve"/>
      <point x="99.9" y="169.7" type="line"/>
      <point x="119.8" y="167.4"/>
      <point x="138.3" y="165.8"/>
      <point x="156.6" y="165.8" type="curve" smooth="yes"/>
      <point x="305.8" y="165.8"/>
      <point x="356.8" y="246.7"/>
      <point x="356.8" y="341.9" type="curve" smooth="yes"/>
      <point x="356.8" y="392.3"/>
      <point x="340.5" y="449.6"/>
      <point x="317.4" y="502.0" type="curve"/>
    </contour>
  </outline>
</glyph>
<glyph name="Gamma" format="1">
  <advance width="1209"/>
  <unicode hex="0393"/>
  <outline>
    <contour>
      <point x="229" y="0" type="line"/>
      <point x="229" y="1449" type="line"/>
      <point x="1081" y="1448" type="line"/>
      <point x="1076" y="1354" type="line"/>
      <point x="309" y="1355" type="line"/>
      <point x="351" y="1393" type="line"/>
      <point x="351" y="0" type="line"/>
    </contour>
  </outline>
</glyph>
<glyph name="Delta" format="1">
  <advance width="1291"/>
  <unicode hex="0394"/>
  <outline>
    <contour>
      <point x="44" y="0" type="line"/>
      <point x="568" y="1474" type="line"/>
      <point x="775" y="1474" type="line"/>
      <point x="1299" y="0" type="line"/>
    </contour>
    <contour>
      <point x="310" y="176" type="line"/>
      <point x="1038" y="176" type="line"/>
      <point x="671" y="1250" type="line"/>
    </contour>
  </outline>
</glyph>
<glyph name="Delta" format="1">
  <advance width="1266.3"/>
  <unicode hex="0394"/>
  <outline>
    <contour>
      <point x="42.7" y="0.0" type="line"/>
      <point x="556.6" y="1444.9" type="line"/>
      <point x="759.7" y="1444.9" type="line"/>
      <point x="1273.5" y="0.0" type="line"/>
    </contour>
    <contour>
      <point x="304.4" y="172.9" type="line"/>
      <point x="1018.0" y="172.9" type="line"/>
      <point x="658.2" y="1225.2" type="line"/>
    </contour>
  </outline>
</glyph>
<glyph name="Lambda" format="1">
  <advance width="1266.3"/>
  <unicode hex="039B"/>
  <outline>
    <contour>
      <point x="42.3" y="0.0" type="line"/>
      <point x="566.9" y="1441.6" type="line"/>
      <point x="748.6" y="1441.6" type="line"/>
      <point x="1273.5" y="0.0" type="line"/>
      <point x="1090.9" y="0.0" type="line"/>
      <point x="657.8" y="1237.6" type="line"/>
      <point x="229.9" y="0.0" type="line"/>
    </contour>
  </outline>
</glyph>
<glyph name="Pi" format="1">
  <advance width="1368"/>
  <unicode hex="03A0"/>
  <outline>
    <contour>
      <point x="141" y="0" type="line"/>
      <point x="141" y="1470" type="line"/>
      <point x="1283" y="1470" type="line"/>
      <point x="1283" y="0" type="line"/>
      <point x="1101" y="0" type="line"/>
      <point x="1101" y="1313" type="line"/>
      <point x="323" y="1313" type="line"/>
      <point x="323" y="0" type="line"/>
    </contour>
  </outline>
</glyph>
<glyph name="Pi" format="1">
  <advance width="1342.6"/>
  <unicode hex="03A0"/>
  <outline>
    <contour>
      <point x="137.9" y="0.0" type="line"/>
      <point x="137.9" y="1441.6" type="line"/>
      <point x="1257.4" y="1441.6" type="line"/>
      <point x="1257.4" y="0.0" type="line"/>
      <point x="1079.5" y="0.0" type="line"/>
      <point x="1079.5" y="1287.4" type="line"/>
      <point x="316.7" y="1287.4" type="line"/>
      <point x="316.7" y="0.0" type="line"/>
    </contour>
  </outline>
</glyph>
<glyph name="Sigma" format="1">
  <advance width="1066.6"/>
  <unicode hex="03A3"/>
  <outline>
    <contour>
      <point x="139.4" y="0.0" type="line"/>
      <point x="139.4" y="1419.2" type="line"/>
      <point x="1008.1" y="1419.2" type="line"/>
      <point x="998.5" y="1229.9" type="line"/>
      <point x="380.3" y="1229.9" type="line"/>
      <point x="380.3" y="829.1" type="line"/>
      <point x="956.7" y="829.1" type="line"/>
      <point x="956.7" y="646.6" type="line"/>
      <point x="380.3" y="646.6" type="line"/>
      <point x="380.3" y="189.3" type="line"/>
      <point x="1013.0" y="189.3" type="line"/>
      <point x="1005.7" y="0.0" type="line"/>
    </contour>
  </outline>
</glyph>
<glyph name="Phi" format="1">
  <advance width="1540.3"/>
  <unicode hex="03A6"/>
  <outline>
    <contour>
      <point x="708.0" y="0.0" type="line"/>
      <point x="708.0" y="163.5" type="line"/>
      <point x="312.2" y="195.4"/>
      <point x="102.1" y="433.1"/>
      <point x="102.1" y="743.7" type="curve" smooth="yes"/>
      <point x="102.1" y="1058.5"/>
      <point x="322.9" y="1279.1"/>
      <point x="708.0" y="1309.3" type="curve"/>
      <point x="708.0" y="1441.6" type="line"/>
      <point x="885.1" y="1441.6" type="line"/>
      <point x="885.1" y="1309.3" type="line"/>
      <point x="1271.9" y="1280.8"/>
      <point x="1496.1" y="1060.6"/>
      <point x="1496.1" y="743.7" type="curve" smooth="yes"/>
      <point x="1496.1" y="432.9"/>
      <point x="1286.1" y="193.8"/>
      <point x="885.1" y="163.5" type="curve"/>
      <point x="885.1" y="0.0" type="line"/>
    </contour>
    <contour>
      <point x="708.0" y="322.8" type="curve"/>
      <point x="708.0" y="1150.3" type="line"/>
      <point x="430.8" y="1122.9"/>
      <point x="291.6" y="967.9"/>
      <point x="291.6" y="743.7" type="curve" smooth="yes"/>
      <point x="291.6" y="528.2"/>
      <point x="418.1" y="353.3"/>
    </contour>
    <contour>
      <point x="885.1" y="322.8" type="line"/>
      <point x="1176.1" y="351.6"/>
      <point x="1306.2" y="526.1"/>
      <point x="1306.2" y="743.7" type="curve" smooth="yes"/>
      <point x="1306.2" y="966.1"/>
      <point x="1167.7" y="1123.9"/>
      <point x="885.1" y="1150.3" type="curve"/>
    </contour>
  </outline>
</glyph>
<glyph name="Omega" format="1">
  <advance width="1575.4"/>
  <unicode hex="03A9"/>
  <outline>
    <contour>
      <point x="815.4" y="191.8" type="curve" smooth="yes"/>
      <point x="1084.7" y="191.8"/>
      <point x="1245.5" y="405.5"/>
      <point x="1245.5" y="709.1" type="curve" smooth="yes"/>
      <point x="1245.5" y="1020.1"/>
      <point x="1082.2" y="1232.1"/>
      <point x="815.7" y="1232.1" type="curve" smooth="yes"/>
      <point x="549.2" y="1232.1"/>
      <point x="383.6" y="1020.4"/>
      <point x="383.6" y="709.1" type="curve" smooth="yes"/>
      <point x="383.6" y="405.5"/>
      <point x="546.1" y="191.8"/>
    </contour>
    <contour>
      <point x="815.4" y="-19.6" type="curve" smooth="yes"/>
      <point x="393.1" y="-19.6"/>
      <point x="115.7" y="259.2"/>
      <point x="115.7" y="710.8" type="curve" smooth="yes"/>
      <point x="115.7" y="1168.5"/>
      <point x="396.9" y="1445.2"/>
      <point x="815.7" y="1445.2" type="curve" smooth="yes"/>
      <point x="1232.1" y="1445.2"/>
      <point x="1513.3" y="1167.6"/>
      <point x="1513.3" y="710.5" type="curve" smooth="yes"/>
      <point x="1513.3" y="261.0"/>
      <point x="1236.2" y="-19.6"/>
    </contour>
  </outline>
</glyph>
<glyph name="rho" format="1">
  <advance width="1165.2"/>
  <unicode hex="03C1"/>
  <outline>
    <contour>
      <point x="136.9" y="-443.6" type="line"/>
      <point x="361.0" y="-432.1" type="line"/>
      <point x="361.0" y="-37.3" type="line" smooth="yes"/>
      <point x="361.0" y="10.0"/>
      <point x="359.3" y="65.7"/>
      <point x="356.0" y="124.1" type="curve"/>
      <point x="426.0" y="37.4"/>
      <point x="543.3" y="-20.8"/>
      <point x="674.5" y="-20.8" type="curve" smooth="yes"/>
      <point x="949.0" y="-20.8"/>
      <point x="1125.8" y="213.5"/>
      <point x="1125.8" y="531.8" type="curve" smooth="yes"/>
      <point x="1125.8" y="848.5"/>
      <point x="963.1" y="1087.6"/>
      <point x="684.2" y="1087.6" type="curve" smooth="yes"/>
      <point x="544.2" y="1087.6"/>
      <point x="415.1" y="1018.4"/>
      <point x="354.9" y="918.6" type="curve"/>
      <point x="333.9" y="1063.8" type="line"/>
      <point x="136.9" y="1063.8" type="line"/>
    </contour>
    <contour>
      <point x="634.6" y="150.8" type="curve" smooth="yes"/>
      <point x="442.5" y="150.8"/>
      <point x="359.9" y="281.3"/>
      <point x="359.9" y="551.8" type="curve"/>
      <point x="361.0" y="791.7"/>
      <point x="450.1" y="915.4"/>
      <point x="633.0" y="915.4" type="curve" smooth="yes"/>
      <point x="804.7" y="915.4"/>
      <point x="902.4" y="781.9"/>
      <point x="902.4" y="535.9" type="curve" smooth="yes"/>
      <point x="902.4" y="291.6"/>
      <point x="804.1" y="150.8"/>
    </contour>
  </outline>
</glyph>
<glyph name="uni040A" format="1">
  <advance width="2088.5"/>
  <unicode hex="040A"/>
  <outline>
    <contour>
      <point x="1053.8" y="0.0" type="line"/>
      <point x="1564.7" y="0.0" type="line" smooth="yes"/>
      <point x="1887.2" y="0.0"/>
      <point x="2076.5" y="136.2"/>
      <point x="2076.5" y="411.7" type="curve" smooth="yes"/>
      <point x="2076.5" y="687.7"/>
      <point x="1904.8" y="819.2"/>
      <point x="1567.5" y="819.2" type="curve" smooth="yes"/>
      <point x="1226.5" y="819.2" type="line"/>
      <point x="1301.2" y="744.0" type="line"/>
      <point x="1301.8" y="1416.8" type="line"/>
      <point x="1053.8" y="1416.8" type="line"/>
      <point x="1053.8" y="753.4" type="line"/>
      <point x="1125.1" y="819.2" type="line"/>
      <point x="355.0" y="819.2" type="line"/>
      <point x="430.3" y="753.4" type="line"/>
      <point x="430.3" y="1416.8" type="line"/>
      <point x="182.3" y="1416.8" type="line"/>
      <point x="182.3" y="0.0" type="line"/>
      <point x="430.3" y="0.0" type="line"/>
      <point x="430.3" y="705.2" type="line"/>
      <point x="355.0" y="637.0" type="line"/>
      <point x="1130.6" y="637.0" type="line"/>
      <point x="1053.8" y="705.2" type="line"/>
    </contour>
    <contour>
      <point x="1301.9" y="84.9" type="line"/>
      <point x="1301.9" y="712.3" type="line"/>
      <point x="1227.6" y="637.0" type="line"/>
      <point x="1554.6" y="637.0" type="line" smooth="yes"/>
      <point x="1749.2" y="637.0"/>
      <point x="1830.9" y="580.7"/>
      <point x="1830.9" y="413.2" type="curve" smooth="yes"/>
      <point x="1830.9" y="244.1"/>
      <point x="1728.8" y="184.7"/>
      <point x="1539.9" y="184.7" type="curve" smooth="yes"/>
      <point x="1219.0" y="184.7" type="line"/>
    </contour>
  </outline>
</glyph>
<glyph name="uni0411" format="1">
  <advance width="1245.3"/>
  <unicode hex="0411"/>
  <outline>
    <contour>
      <point x="178.4" y="0.0" type="line"/>
      <point x="716.8" y="0.0" type="line" smooth="yes"/>
      <point x="1039.3" y="0.0"/>
      <point x="1225.6" y="139.8"/>
      <point x="1225.6" y="415.3" type="curve" smooth="yes"/>
      <point x="1225.6" y="691.3"/>
      <point x="1056.2" y="827.7"/>
      <point x="718.9" y="827.7" type="curve" smooth="yes"/>
      <point x="339.4" y="827.7" type="line"/>
      <point x="426.4" y="755.3" type="line"/>
      <point x="426.4" y="1321.6" type="line"/>
      <point x="350.6" y="1244.1" type="line"/>
      <point x="1076.1" y="1244.1" type="line"/>
      <point x="1076.1" y="1428.4" type="line"/>
      <point x="178.4" y="1428.4" type="line"/>
    </contour>
    <contour>
      <point x="426.4" y="87.9" type="line"/>
      <point x="426.4" y="717.4" type="line"/>
      <point x="338.8" y="640.3" type="line"/>
      <point x="706.0" y="640.3" type="line" smooth="yes"/>
      <point x="898.2" y="640.3"/>
      <point x="976.9" y="581.6"/>
      <point x="976.9" y="414.1" type="curve" smooth="yes"/>
      <point x="976.9" y="245.0"/>
      <point x="876.9" y="187.1"/>
      <point x="691.3" y="187.1" type="curve" smooth="yes"/>
      <point x="345.1" y="187.1" type="line"/>
    </contour>
  </outline>
</glyph>
<glyph name="uni041B" format="1">
  <advance width="1526"/>
  <unicode hex="041B"/>
  <outline>
    <contour>
      <point x="-73" y="-25" type="line"/>
      <point x="28" y="-25" type="line" smooth="yes"/>
      <point x="335" y="-25"/>
      <point x="480" y="142"/>
      <point x="480" y="466" type="curve" smooth="yes"/>
      <point x="480" y="1326" type="line"/>
      <point x="404" y="1257" type="line"/>
      <point x="1220" y="1257" type="line"/>
      <point x="1141" y="1326" type="line"/>
      <point x="1141" y="-0" type="line"/>
      <point x="1394" y="-1" type="line"/>
      <point x="1394" y="1445" type="line"/>
      <point x="227" y="1445" type="line"/>
      <point x="227" y="449" type="line" smooth="yes"/>
      <point x="227" y="302"/>
      <point x="188" y="177"/>
      <point x="-1" y="177" type="curve" smooth="yes"/>
      <point x="-73" y="177" type="line"/>
    </contour>
  </outline>
</glyph>
<glyph name="uni041F" format="1">
  <advance width="1475.4"/>
  <unicode hex="041F"/>
  <outline>
    <contour>
      <point x="182.3" y="0.0" type="line"/>
      <point x="430.3" y="0.0" type="line"/>
      <point x="430.3" y="1300.4" type="line"/>
      <point x="355.7" y="1232.5" type="line"/>
      <point x="1174.0" y="1232.5" type="line"/>
      <point x="1096.5" y="1300.4" type="line"/>
      <point x="1096.5" y="0.0" type="line"/>
      <point x="1344.5" y="0.0" type="line"/>
      <point x="1344.5" y="1416.8" type="line"/>
      <point x="182.3" y="1416.8" type="line"/>
    </contour>
  </outline>
</glyph>
<glyph name="uni0424" format="1">
  <advance width="1613.2"/>
  <unicode hex="0424"/>
  <outline>
    <contour>
      <point x="732.8" y="0.0" type="line"/>
      <point x="937.8" y="0.0" type="line"/>
      <point x="937.8" y="137.0" type="line"/>
      <point x="1333.0" y="157.1"/>
      <point x="1596.3" y="374.9"/>
      <point x="1596.3" y="721.9" type="curve" smooth="yes"/>
      <point x="1596.3" y="1066.2"/>
      <point x="1331.1" y="1280.2"/>
      <point x="937.8" y="1298.9" type="curve"/>
      <point x="937.8" y="1423.6" type="line"/>
      <point x="732.8" y="1423.6" type="line"/>
      <point x="731.7" y="1298.0" type="line"/>
      <point x="333.0" y="1273.6"/>
      <point x="81.8" y="1052.3"/>
      <point x="81.8" y="721.9" type="curve" smooth="yes"/>
      <point x="81.8" y="386.3"/>
      <point x="334.9" y="162.0"/>
      <point x="731.7" y="137.6" type="curve"/>
    </contour>
    <contour>
      <point x="731.7" y="325.6" type="line"/>
      <point x="442.1" y="349.1"/>
      <point x="304.1" y="507.9"/>
      <point x="304.1" y="720.4" type="curve" smooth="yes"/>
      <point x="304.1" y="929.6"/>
      <point x="443.6" y="1087.1"/>
      <point x="731.7" y="1110.6" type="curve"/>
    </contour>
    <contour>
      <point x="937.8" y="324.7" type="curve"/>
      <point x="937.8" y="1111.2" type="line"/>
      <point x="1237.1" y="1089.6"/>
      <point x="1374.7" y="929.8"/>
      <point x="1374.7" y="720.4" type="curve" smooth="yes"/>
      <point x="1374.7" y="506.5"/>
      <point x="1235.2" y="346.3"/>
    </contour>
  </outline>
</glyph>
<glyph name="uni0427" format="1">
  <advance width="1373.0"/>
  <unicode hex="0427"/>
  <outline>
    <contour>
      <point x="939.6" y="8.3" type="line"/>
      <point x="1153.6" y="8.3" type="line"/>
      <point x="1153.6" y="1410.6" type="line"/>
      <point x="939.6" y="1410.6" type="line"/>
      <point x="939.6" y="716.8" type="line"/>
      <point x="922.1" y="710.0"/>
      <point x="645.3" y="697.7"/>
      <point x="632.7" y="697.7" type="curve" smooth="yes"/>
      <point x="434.6" y="697.7"/>
      <point x="343.0" y="735.5"/>
      <point x="343.0" y="942.2" type="curve" smooth="yes"/>
      <point x="343.0" y="1410.6" type="line"/>
      <point x="136.6" y="1410.6" type="line"/>
      <point x="136.6" y="914.6" type="line" smooth="yes"/>
      <point x="136.6" y="613.3"/>
      <point x="329.9" y="510.7"/>
      <point x="627.1" y="510.7" type="curve" smooth="yes"/>
      <point x="640.8" y="510.7"/>
      <point x="913.7" y="516.3"/>
      <point x="938.9" y="526.8" type="curve"/>
    </contour>
  </outline>
</glyph>
<glyph name="uni0428" format="1">
  <advance width="1679.5"/>
  <unicode hex="0428"/>
  <outline>
    <contour>
      <point x="164.9" y="0.0" type="line"/>
      <point x="1571.0" y="0.0" type="line"/>
      <point x="1571.0" y="1428.4" type="line"/>
      <point x="1344.4" y="1428.4" type="line"/>
      <point x="1344.4" y="176.7" type="line"/>
      <point x="987.7" y="176.7" type="line"/>
      <point x="987.7" y="1428.4" type="line"/>
      <point x="762.2" y="1428.4" type="line"/>
      <point x="762.2" y="176.7" type="line"/>
      <point x="390.1" y="176.7" type="line"/>
      <point x="390.1" y="1428.4" type="line"/>
      <point x="164.9" y="1428.4" type="line"/>
    </contour>
  </outline>
</glyph>
<glyph name="uni0429" format="1">
  <advance width="1729.3"/>
  <unicode hex="0429"/>
  <outline>
    <contour>
      <point x="1501.9" y="-305.1" type="line"/>
      <point x="1703.8" y="-305.1" type="line"/>
      <point x="1703.8" y="133.9" type="line"/>
      <point x="1584.5" y="133.9" type="line"/>
      <point x="1584.5" y="1428.4" type="line"/>
      <point x="1358.3" y="1428.4" type="line"/>
      <point x="1358.3" y="176.7" type="line"/>
      <point x="1001.2" y="176.7" type="line"/>
      <point x="1001.2" y="1428.4" type="line"/>
      <point x="775.7" y="1428.4" type="line"/>
      <point x="775.7" y="176.7" type="line"/>
      <point x="403.6" y="176.7" type="line"/>
      <point x="403.6" y="1428.4" type="line"/>
      <point x="178.4" y="1428.4" type="line"/>
      <point x="178.4" y="0.0" type="line"/>
      <point x="1501.5" y="0.0" type="line"/>
    </contour>
  </outline>
</glyph>
<glyph name="uni042A" format="1">
  <advance width="1337.7"/>
  <unicode hex="042A"/>
  <outline>
    <contour>
      <point x="216.5" y="0.0" type="line"/>
      <point x="721.9" y="0.0" type="line" smooth="yes"/>
      <point x="1044.4" y="0.0"/>
      <point x="1230.7" y="139.8"/>
      <point x="1230.7" y="415.3" type="curve" smooth="yes"/>
      <point x="1230.7" y="691.3"/>
      <point x="1061.6" y="827.7"/>
      <point x="724.3" y="827.7" type="curve" smooth="yes"/>
      <point x="377.5" y="827.7" type="line"/>
      <point x="464.5" y="755.3" type="line"/>
      <point x="465.2" y="1416.1" type="line"/>
      <point x="-32.2" y="1416.1" type="line"/>
      <point x="-32.9" y="1232.2" type="line"/>
      <point x="302.0" y="1232.8" type="line"/>
      <point x="216.5" y="1312.5" type="line"/>
    </contour>
    <contour>
      <point x="464.5" y="87.9" type="line"/>
      <point x="464.5" y="720.2" type="line"/>
      <point x="376.9" y="642.4" type="line"/>
      <point x="711.4" y="642.4" type="line" smooth="yes"/>
      <point x="903.6" y="642.4"/>
      <point x="982.0" y="583.7"/>
      <point x="982.0" y="416.2" type="curve" smooth="yes"/>
      <point x="982.0" y="247.1"/>
      <point x="882.0" y="187.1"/>
      <point x="696.4" y="187.1" type="curve" smooth="yes"/>
      <point x="382.5" y="187.1" type="line"/>
    </contour>
  </outline>
</glyph>
<glyph name="uni042C" format="1">
  <advance width="1271.9"/>
  <unicode hex="042C"/>
  <outline>
    <contour>
      <point x="178.4" y="0.0" type="line"/>
      <point x="703.5" y="0.0" type="line" smooth="yes"/>
      <point x="1026.0" y="0.0"/>
      <point x="1212.3" y="139.8"/>
      <point x="1212.3" y="415.3" type="curve" smooth="yes"/>
      <point x="1212.3" y="691.3"/>
      <point x="1042.9" y="827.7"/>
      <point x="705.6" y="827.7" type="curve" smooth="yes"/>
      <point x="339.4" y="827.7" type="line"/>
      <point x="426.4" y="755.3" type="line"/>
      <point x="427.1" y="1415.8" type="line"/>
      <point x="178.4" y="1415.1" type="line"/>
    </contour>
    <contour>
      <point x="426.4" y="87.9" type="line"/>
      <point x="426.4" y="720.2" type="line"/>
      <point x="338.8" y="642.4" type="line"/>
      <point x="692.7" y="642.4" type="line" smooth="yes"/>
      <point x="884.9" y="642.4"/>
      <point x="963.6" y="583.7"/>
      <point x="963.6" y="416.2" type="curve" smooth="yes"/>
      <point x="963.6" y="247.1"/>
      <point x="863.6" y="187.1"/>
      <point x="678.0" y="187.1" type="curve" smooth="yes"/>
      <point x="345.1" y="187.1" type="line"/>
    </contour>
  </outline>
</glyph>
<glyph name="uni0432" format="1">
  <advance width="1144"/>
  <unicode hex="0432"/>
  <outline>
    <contour>
      <point x="197" y="0" type="line"/>
      <point x="197" y="1076" type="line"/>
      <point x="653" y="1076" type="line" smooth="yes"/>
      <point x="932" y="1076"/>
      <point x="1004" y="930"/>
      <point x="1004" y="805" type="curve" smooth="yes"/>
      <point x="1004" y="680"/>
      <point x="938" y="606"/>
      <point x="831" y="573" type="curve"/>
      <point x="999" y="527"/>
      <point x="1040" y="398"/>
      <point x="1040" y="307" type="curve" smooth="yes"/>
      <point x="1040" y="178"/>
      <point x="984" y="0"/>
      <point x="651" y="0" type="curve" smooth="yes"/>
    </contour>
    <contour>
      <point x="321" y="87" type="line"/>
      <point x="646" y="87" type="line" smooth="yes"/>
      <point x="885" y="87"/>
      <point x="918" y="187"/>
      <point x="918" y="307" type="curve" smooth="yes"/>
      <point x="918" y="401"/>
      <point x="917" y="516"/>
      <point x="696" y="516" type="curve" smooth="yes"/>
      <point x="321" y="516" type="line"/>
    </contour>
    <contour>
      <point x="321" y="608" type="line"/>
      <point x="691" y="608" type="line" smooth="yes"/>
      <point x="857" y="608"/>
      <point x="882" y="710"/>
      <point x="882" y="800" type="curve" smooth="yes"/>
      <point x="882" y="910"/>
      <point x="833" y="989"/>
      <point x="651" y="989" type="curve" smooth="yes"/>
      <point x="321" y="989" type="line"/>
    </contour>
  </outline>
</glyph>
<glyph name="uni0433" format="1">
  <advance width="932"/>
  <unicode hex="0433"/>
  <outline>
    <contour>
      <point x="197" y="0" type="line"/>
      <point x="197" y="1076" type="line"/>
      <point x="876" y="1076" type="line"/>
      <point x="876" y="980" type="line"/>
      <point x="321" y="980" type="line"/>
      <point x="321" y="0" type="line"/>
    </contour>
  </outline>
</glyph>
<glyph name="uni0434" format="1">
  <advance width="1265"/>
  <unicode hex="0434"/>
  <outline>
    <contour>
      <point x="62" y="-280" type="line"/>
      <point x="62" y="78" type="line"/>
      <point x="167" y="78" type="line"/>
      <point x="251" y="102"/>
      <point x="272" y="179"/>
      <point x="310" y="284" type="curve"/>
      <point x="453" y="1078" type="line"/>
      <point x="1071" y="1078" type="line"/>
      <point x="1071" y="78" type="line"/>
      <point x="1133" y="78" type="line"/>
      <point x="1133" y="-280" type="line"/>
      <point x="1027" y="-280" type="line"/>
      <point x="1039" y="0" type="line"/>
      <point x="151" y="0" type="line"/>
      <point x="157" y="-280" type="line"/>
    </contour>
    <contour>
      <point x="303" y="75" type="curve"/>
      <point x="936" y="75" type="line"/>
      <point x="936" y="1008" type="line"/>
      <point x="546" y="1008" type="line"/>
      <point x="547" y="1036"/>
      <point x="444" y="381"/>
      <point x="446" y="401" type="curve"/>
      <point x="408" y="224"/>
      <point x="346" y="81"/>
    </contour>
  </outline>
</glyph>
<glyph name="uni0436" format="1">
  <advance width="1568"/>
  <unicode hex="0436"/>
  <outline>
    <contour>
      <point x="62" y="0" type="line"/>
      <point x="615" y="557" type="line"/>
      <point x="65" y="1078" type="line"/>
      <point x="173" y="1078" type="line"/>
      <point x="705" y="562" type="line"/>
      <point x="705" y="1078" type="line"/>
      <point x="837" y="1078" type="line"/>
      <point x="837" y="562" type="line"/>
      <point x="1373" y="1078" type="line"/>
      <point x="1479" y="1078" type="line"/>
      <point x="930" y="557" type="line"/>
      <point x="1482" y="0" type="line"/>
      <point x="1362" y="0" type="line"/>
      <point x="837" y="534" type="line"/>
      <point x="837" y="0" type="line"/>
      <point x="705" y="0" type="line"/>
      <point x="705" y="534" type="line"/>
      <point x="184" y="0" type="line"/>
    </contour>
  </outline>
</glyph>
<glyph name="uni043B" format="1">
  <advance width="1243"/>
  <unicode hex="043B"/>
  <outline>
    <contour>
      <point x="44" y="-7" type="curve"/>
      <point x="26" y="95" type="line"/>
      <point x="206" y="95"/>
      <point x="272" y="138"/>
      <point x="320" y="499" type="curve"/>
      <point x="387" y="1076" type="line"/>
      <point x="1048" y="1076" type="line"/>
      <point x="1048" y="-1" type="line"/>
      <point x="916" y="-1" type="line"/>
      <point x="916" y="981" type="line"/>
      <point x="500" y="981" type="line"/>
      <point x="437" y="487" type="line"/>
      <point x="387" y="65"/>
      <point x="297" y="-7"/>
    </contour>
  </outline>
</glyph>
<glyph name="uni043D" format="1">
  <advance width="1246"/>
  <unicode hex="043D"/>
  <outline>
    <contour>
      <point x="193" y="0" type="line"/>
      <point x="193" y="1055" type="line"/>
      <point x="315" y="1055" type="line"/>
      <point x="315" y="608" type="line"/>
      <point x="932" y="608" type="line"/>
      <point x="932" y="1055" type="line"/>
      <point x="1054" y="1055" type="line"/>
      <point x="1054" y="0" type="line"/>
      <point x="932" y="0" type="line"/>
      <point x="932" y="513" type="line"/>
      <point x="315" y="513" type="line"/>
      <point x="315" y="0" type="line"/>
    </contour>
  </outline>
</glyph>
<glyph name="uni0446" format="1">
  <advance width="1198"/>
  <unicode hex="0446"/>
  <outline>
    <contour>
      <point x="953" y="-275" type="line"/>
      <point x="968" y="0" type="line"/>
      <point x="208" y="0" type="line"/>
      <point x="208" y="1057" type="line"/>
      <point x="335" y="1057" type="line"/>
      <point x="335" y="77" type="line"/>
      <point x="890" y="77" type="line"/>
      <point x="890" y="1057" type="line"/>
      <point x="1019" y="1057" type="line"/>
      <point x="1019" y="135" type="line"/>
      <point x="1114" y="135" type="line"/>
      <point x="1114" y="-275" type="line"/>
    </contour>
  </outline>
</glyph>
<glyph name="uni0447" format="1">
  <advance width="1041.2"/>
  <unicode hex="0447"/>
  <outline>
    <contour>
      <point x="739.3" y="0.0" type="line"/>
      <point x="959.0" y="0.0" type="line"/>
      <point x="959.0" y="1063.4" type="line"/>
      <point x="739.3" y="1063.4" type="line"/>
      <point x="739.3" y="644.8" type="line"/>
      <point x="735.1" y="606.3"/>
      <point x="630.8" y="544.0"/>
      <point x="523.7" y="544.0" type="curve" smooth="yes"/>
      <point x="352.7" y="544.0"/>
      <point x="309.1" y="640.2"/>
      <point x="309.1" y="827.6" type="curve" smooth="yes"/>
      <point x="309.1" y="1063.4" type="line"/>
      <point x="89.5" y="1063.4" type="line"/>
      <point x="89.5" y="796.3" type="line" smooth="yes"/>
      <point x="89.5" y="499.8"/>
      <point x="225.8" y="372.2"/>
      <point x="493.5" y="370.1" type="curve"/>
      <point x="584.5" y="370.1"/>
      <point x="700.8" y="396.0"/>
      <point x="739.3" y="433.8" type="curve"/>
    </contour>
  </outline>
</glyph>
<glyph name="uni044A" format="1">
  <advance width="1028"/>
  <unicode hex="044A"/>
  <outline>
    <contour>
      <point x="228" y="0" type="line"/>
      <point x="228" y="978" type="line"/>
      <point x="82" y="978" type="line"/>
      <point x="82" y="1055" type="line"/>
      <point x="357" y="1055" type="line"/>
      <point x="357" y="671" type="line"/>
      <point x="557" y="671" type="line" smooth="yes"/>
      <point x="859" y="671"/>
      <point x="916" y="490"/>
      <point x="916" y="347" type="curve" smooth="yes"/>
      <point x="916" y="194"/>
      <point x="848" y="0"/>
      <point x="559" y="0" type="curve" smooth="yes"/>
    </contour>
    <contour>
      <point x="356" y="85" type="line"/>
      <point x="574" y="85" type="line" smooth="yes"/>
      <point x="729" y="85"/>
      <point x="771" y="242"/>
      <point x="771" y="349" type="curve" smooth="yes"/>
      <point x="771" y="462"/>
      <point x="716" y="578"/>
      <point x="567" y="578" type="curve" smooth="yes"/>
      <point x="356" y="578" type="line"/>
    </contour>
  </outline>
</glyph>
<glyph name="uni044D" format="1">
  <advance width="1218"/>
  <unicode hex="044D"/>
  <outline>
    <contour>
      <point x="509" y="-29" type="curve" smooth="yes"/>
      <point x="368" y="-29"/>
      <point x="236" y="9"/>
      <point x="183" y="67" type="curve"/>
      <point x="214" y="147" type="line"/>
      <point x="325" y="84"/>
      <point x="419" y="65"/>
      <point x="502" y="65" type="curve" smooth="yes"/>
      <point x="751" y="65"/>
      <point x="913" y="247"/>
      <point x="929" y="483" type="curve"/>
      <point x="479" y="483" type="line"/>
      <point x="479" y="586" type="line"/>
      <point x="929" y="586" type="line"/>
      <point x="912" y="829"/>
      <point x="782" y="1017"/>
      <point x="497" y="1017" type="curve" smooth="yes"/>
      <point x="379" y="1017"/>
      <point x="293" y="979"/>
      <point x="211" y="930" type="curve"/>
      <point x="173" y="1008" type="line"/>
      <point x="247" y="1075"/>
      <point x="392" y="1109"/>
      <point x="495" y="1109" type="curve" smooth="yes"/>
      <point x="920" y="1109"/>
      <point x="1034" y="786"/>
      <point x="1034" y="521" type="curve" smooth="yes"/>
      <point x="1034" y="282"/>
      <point x="889" y="-29"/>
    </contour>
  </outline>
</glyph>
<glyph name="uni044E" format="1">
  <advance width="1550"/>
  <unicode hex="044E"/>
  <outline>
    <contour>
      <point x="928" y="-29" type="curve" smooth="yes"/>
      <point x="612" y="-29"/>
      <point x="485" y="195"/>
      <point x="480" y="493" type="curve"/>
      <point x="265" y="493" type="line"/>
      <point x="265" y="0" type="line"/>
      <point x="175" y="0" type="line"/>
      <point x="175" y="1076" type="line"/>
      <point x="265" y="1076" type="line"/>
      <point x="265" y="578" type="line"/>
      <point x="480" y="578" type="line"/>
      <point x="486" y="872"/>
      <point x="615" y="1109"/>
      <point x="933" y="1109" type="curve" smooth="yes"/>
      <point x="1278" y="1109"/>
      <point x="1365" y="851"/>
      <point x="1365" y="539" type="curve" smooth="yes"/>
      <point x="1365" y="241"/>
      <point x="1266" y="-29"/>
    </contour>
    <contour>
      <point x="933" y="65" type="curve" smooth="yes"/>
      <point x="1192" y="65"/>
      <point x="1260" y="298"/>
      <point x="1260" y="536" type="curve" smooth="yes"/>
      <point x="1260" y="781"/>
      <point x="1202" y="1015"/>
      <point x="928" y="1015" type="curve" smooth="yes"/>
      <point x="665" y="1015"/>
      <point x="589" y="767"/>
      <point x="589" y="530" type="curve" smooth="yes"/>
      <point x="589" y="298"/>
      <point x="668" y="65"/>
    </contour>
  </outline>
</glyph>
<glyph name="uni045A" format="1">
  <advance width="1555"/>
  <unicode hex="045A"/>
  <outline>
    <contour>
      <point x="125" y="0" type="line"/>
      <point x="348" y="0" type="line"/>
      <point x="348" y="486" type="line"/>
      <point x="782" y="486" type="line"/>
      <point x="782" y="0" type="line"/>
      <point x="1208" y="0" type="line" smooth="yes"/>
      <point x="1433" y="0"/>
      <point x="1566" y="148"/>
      <point x="1566" y="337" type="curve" smooth="yes"/>
      <point x="1566" y="545"/>
      <point x="1439" y="666"/>
      <point x="1209" y="666" type="curve" smooth="yes"/>
      <point x="1002" y="666" type="line"/>
      <point x="1002" y="1085" type="line"/>
      <point x="782" y="1085" type="line"/>
      <point x="782" y="665" type="line"/>
      <point x="348" y="665" type="line"/>
      <point x="348" y="1085" type="line"/>
      <point x="125" y="1085" type="line"/>
    </contour>
    <contour>
      <point x="1002" y="170" type="line"/>
      <point x="1002" y="505" type="line"/>
      <point x="1199" y="505" type="line" smooth="yes"/>
      <point x="1322" y="505"/>
      <point x="1377" y="432"/>
      <point x="1377" y="342" type="curve" smooth="yes"/>
      <point x="1377" y="249"/>
      <point x="1323" y="170"/>
      <point x="1200" y="170" type="curve" smooth="yes"/>
    </contour>
  </outline>
</glyph>
<glyph name="uni045F" format="1">
  <advance width="1042.8"/>
  <unicode hex="045F"/>
  <outline>
    <contour>
      <point x="476.2" y="-293.5" type="line"/>
      <point x="647.9" y="-293.5" type="line"/>
      <point x="656.3" y="0.0" type="line"/>
      <point x="969.3" y="0.0" type="line"/>
      <point x="969.3" y="1063.4" type="line"/>
      <point x="761.3" y="1063.4" type="line"/>
      <point x="761.3" y="165.2" type="line"/>
      <point x="325.1" y="165.2" type="line"/>
      <point x="325.1" y="1063.4" type="line"/>
      <point x="116.7" y="1063.4" type="line"/>
      <point x="116.7" y="0.0" type="line"/>
      <point x="469.3" y="0.0" type="line"/>
    </contour>
  </outline>
</glyph>
<glyph name="endash" format="1">
  <advance width="1166.1"/>
  <unicode hex="2013"/>
  <outline>
    <contour>
      <point x="94.3" y="474.8" type="line"/>
      <point x="1119.0" y="474.8" type="line"/>
      <point x="1119.0" y="642.3" type="line"/>
      <point x="94.3" y="642.3" type="line"/>
    </contour>
  </outline>
</glyph>
<glyph name="emdash" format="1">
  <advance width="2092.3"/>
  <unicode hex="2014"/>
  <outline>
    <contour>
      <point x="68.0" y="474.8" type="line"/>
      <point x="2093.1" y="474.8" type="line"/>
      <point x="2093.1" y="642.3" type="line"/>
      <point x="68.0" y="642.3" type="line"/>
    </contour>
  </outline>
</glyph>
<glyph name="quoteleft" format="1">
  <advance width="418.2"/>
  <unicode hex="2018"/>
  <outline>
    <contour>
      <point x="206.3" y="1022.6" type="line"/>
      <point x="356.6" y="1022.6" type="line"/>
      <point x="285.6" y="1428.7" type="line"/>
      <point x="112.9" y="1428.7" type="line"/>
    </contour>
  </outline>
</glyph>
<glyph name="quoteright" format="1">
  <advance width="422"/>
  <unicode hex="2019"/>
  <outline>
    <contour>
      <point x="74" y="960" type="line"/>
      <point x="220" y="960" type="line"/>
      <point x="394" y="1460" type="line"/>
      <point x="173" y="1460" type="line"/>
    </contour>
  </outline>
</glyph>
<glyph name="quotesinglbase" format="1">
  <advance width="466.1"/>
  <unicode hex="201A"/>
  <outline>
    <contour>
      <point x="99.2" y="-244.7" type="line"/>
      <point x="243.3" y="-244.7" type="line"/>
      <point x="385.8" y="223.3" type="line"/>
      <point x="195.8" y="223.3" type="line"/>
    </contour>
  </outline>
</glyph>
<glyph name="quotedblleft" format="1">
  <advance width="697.6"/>
  <unicode hex="201C"/>
  <outline>
    <contour>
      <point x="238.7" y="1003.8" type="line"/>
      <point x="363.5" y="1290.6" type="line"/>
      <point x="252.4" y="1485.0" type="line"/>
      <point x="80.8" y="1199.7" type="line"/>
    </contour>
    <contour>
      <point x="528.3" y="1003.8" type="line"/>
      <point x="653.4" y="1290.6" type="line"/>
      <point x="541.5" y="1485.7" type="line"/>
      <point x="373.8" y="1199.7" type="line"/>
    </contour>
  </outline>
</glyph>
<glyph name="quotedblright" format="1">
  <advance width="773.2"/>
  <unicode hex="201D"/>
  <outline>
    <contour>
      <point x="89.8" y="1061.9" type="line"/>
      <point x="234.0" y="1061.9" type="line"/>
      <point x="371.5" y="1465.3" type="line"/>
      <point x="188.1" y="1465.3" type="line"/>
    </contour>
    <contour>
      <point x="406.1" y="1063.4" type="line"/>
      <point x="544.7" y="1063.4" type="line"/>
      <point x="688.4" y="1465.3" type="line"/>
      <point x="498.0" y="1465.3" type="line"/>
    </contour>
  </outline>
</glyph>
<glyph name="quotedblbase" format="1">
  <advance width="822"/>
  <unicode hex="201E"/>
  <outline>
    <contour>
      <point x="137" y="-250" type="line"/>
      <point x="285" y="-250" type="line"/>
      <point x="432" y="228" type="line"/>
      <point x="236" y="228" type="line"/>
    </contour>
    <contour>
      <point x="441" y="-250" type="line"/>
      <point x="591" y="-250" type="line"/>
      <point x="739" y="228" type="line"/>
      <point x="542" y="228" type="line"/>
    </contour>
  </outline>
</glyph>
<glyph name="dagger" format="1">
  <advance width="896"/>
  <unicode hex="2020"/>
  <outline>
    <contour>
      <point x="380" y="114" type="line"/>
      <point x="540" y="114" type="line"/>
      <point x="540" y="958" type="line"/>
      <point x="853" y="958" type="line"/>
      <point x="853" y="1112" type="line"/>
      <point x="543" y="1112" type="line"/>
      <point x="543" y="1463" type="line"/>
      <point x="380" y="1463" type="line"/>
      <point x="380" y="1112" type="line"/>
      <point x="83" y="1112" type="line"/>
      <point x="83" y="958" type="line"/>
      <point x="380" y="958" type="line"/>
    </contour>
  </outline>
</glyph>
<glyph name="daggerdbl" format="1">
  <advance width="916.8"/>
  <unicode hex="2021"/>
  <outline>
    <contour>
      <point x="808.7" y="391.0" type="line"/>
      <point x="808.7" y="528.4" type="line"/>
      <point x="547.9" y="528.4" type="line"/>
      <point x="547.2" y="932.7" type="line"/>
      <point x="810.8" y="932.7" type="line"/>
      <point x="810.8" y="1078.8" type="line"/>
      <point x="545.4" y="1078.8" type="line"/>
      <point x="545.4" y="1430.1" type="line"/>
      <point x="385.3" y="1430.1" type="line"/>
      <point x="385.3" y="1078.8" type="line"/>
      <point x="120.9" y="1078.8" type="line"/>
      <point x="120.9" y="932.7" type="line"/>
      <point x="385.3" y="932.7" type="line"/>
      <point x="385.3" y="528.4" type="line"/>
      <point x="119.5" y="528.4" type="line"/>
      <point x="119.5" y="391.0" type="line"/>
      <point x="385.3" y="391.0" type="line"/>
      <point x="385.3" y="20.1" type="line"/>
      <point x="547.9" y="20.1" type="line"/>
      <point x="547.9" y="391.0" type="line"/>
    </contour>
  </outline>
</glyph>
<glyph name="bullet" format="1">
  <advance width="853.9"/>
  <unicode hex="2022"/>
  <outline>
    <contour>
      <point x="446.4" y="371.2" type="curve" smooth="yes"/>
      <point x="265.3" y="371.2"/>
      <point x="119.8" y="500.4"/>
      <point x="119.8" y="694.9" type="curve" smooth="yes"/>
      <point x="119.8" y="890.3"/>
      <point x="270.7" y="1023.5"/>
      <point x="451.7" y="1023.5" type="curve" smooth="yes"/>
      <point x="631.7" y="1023.5"/>
      <point x="778.5" y="895.1"/>
      <point x="778.5" y="700.3" type="curve" smooth="yes"/>
      <point x="778.5" y="504.8"/>
      <point x="628.1" y="371.2"/>
    </contour>
  </outline>
</glyph>
